<?xml version="1.0" encoding="UTF-8" standalone="no"?>
<!-- Uploaded to: SVG Repo, www.svgrepo.com, Generator: SVG Repo Mixer Tools -->

<svg
   fill="#000000"
   width="800px"
   height="800px"
   viewBox="0 0 24 24"
   version="1.1"
   id="svg2"
   sodipodi:docname="back_icon.svg"
   inkscape:version="1.3.2 (091e20e, 2023-11-25, custom)"
   xmlns:inkscape="http://www.inkscape.org/namespaces/inkscape"
   xmlns:sodipodi="http://sodipodi.sourceforge.net/DTD/sodipodi-0.dtd"
   xmlns="http://www.w3.org/2000/svg"
   xmlns:svg="http://www.w3.org/2000/svg">
  <defs
     id="defs2" />
  <sodipodi:namedview
     id="namedview2"
     pagecolor="#ffffff"
     bordercolor="#000000"
     borderopacity="0.25"
     inkscape:showpageshadow="2"
     inkscape:pageopacity="0.0"
     inkscape:pagecheckerboard="true"
     inkscape:deskcolor="#d1d1d1"
     showgrid="false"
     inkscape:zoom="1.02625"
     inkscape:cx="400.48721"
     inkscape:cy="400"
     inkscape:window-width="1920"
     inkscape:window-height="1017"
     inkscape:window-x="-8"
     inkscape:window-y="-8"
     inkscape:window-maximized="1"
     inkscape:current-layer="svg2" />
  <g
     data-name="Layer 2"
     id="g2"
     style="fill:#ffffff;fill-opacity:1">
    <g
       data-name="arrow-back"
       id="g1"
       style="fill:#ffffff;fill-opacity:1">
      <rect
         width="24"
         height="24"
         transform="rotate(90 12 12)"
         opacity="0"
         id="rect1"
         style="fill:#ffffff;fill-opacity:1" />
      <path
         d="M19 11H7.14l3.63-4.36a1 1 0 1 0-1.54-1.28l-5 6a1.19 1.19 0 0 0-.09.15c0 .05 0 .08-.07.13A1 1 0 0 0 4 12a1 1 0 0 0 .07.36c0 .05 0 .08.07.13a1.19 1.19 0 0 0 .09.15l5 6A1 1 0 0 0 10 19a1 1 0 0 0 .64-.23 1 1 0 0 0 .13-1.41L7.14 13H19a1 1 0 0 0 0-2z"
         id="path1"
         style="fill:#ffffff;fill-opacity:1" />
    </g>
  </g>
</svg>
