<?xml version="1.0" encoding="UTF-8" standalone="no"?>
<svg
   version="1.0"
   width="512.000000pt"
   height="512.000000pt"
   viewBox="0 0 512.000000 512.000000"
   preserveAspectRatio="xMidYMid meet"
   id="svg3"
   sodipodi:docname="feedback_down.svg"
   inkscape:version="1.3 (0e150ed6c4, 2023-07-21)"
   xmlns:inkscape="http://www.inkscape.org/namespaces/inkscape"
   xmlns:sodipodi="http://sodipodi.sourceforge.net/DTD/sodipodi-0.dtd"
   xmlns="http://www.w3.org/2000/svg"
   xmlns:svg="http://www.w3.org/2000/svg">
  <defs
     id="defs3" />
  <sodipodi:namedview
     id="namedview3"
     pagecolor="#ffffff"
     bordercolor="#000000"
     borderopacity="0.25"
     inkscape:showpageshadow="2"
     inkscape:pageopacity="0.0"
     inkscape:pagecheckerboard="true"
     inkscape:deskcolor="#d1d1d1"
     inkscape:document-units="pt"
     inkscape:zoom="1.2026367"
     inkscape:cx="276.89159"
     inkscape:cy="96.454729"
     inkscape:window-width="1350"
     inkscape:window-height="1040"
     inkscape:window-x="1062"
     inkscape:window-y="13"
     inkscape:window-maximized="0"
     inkscape:current-layer="g3"
     inkscape:connector-spacing="6" />
  <g
     transform="translate(0.000000,512.000000) scale(0.100000,-0.100000)"
     fill="#000000"
     stroke="none"
     id="g3"
     style="fill:#00080f;fill-opacity:1">
    <path
       d="M2911 4674 c-161 -43 -291 -178 -336 -349 -12 -49 -15 -134 -15 -476 0 -234 4 -440 10 -470 34 -182 188 -342 365 -379 l55 -11 0 -158 c0 -175 10 -222 60 -283 45 -54 129 -92 204 -92 107 1 130 17 404 288 l249 246 190 0 c220 0 277 12 379 78 97 64 159 147 194 261 19 59 20 94 20 511 0 417 -1 452 -20 511 -20 67 -64 144 -109 193 -42 46 -139 105 -209 126 -61 19 -93 20 -726 19 -545 0 -670 -3 -715 -15z m1387 -324 c18 -11 41 -34 52 -52 19 -32 20 -52 20 -458 0 -406 -1 -426 -20 -458 -11 -18 -34 -41 -52 -52 -31 -18 -51 -20 -278 -20 l-245 0 -230 -230 -230 -230 -5 227 -5 228 -165 5 c-185 6 -200 10 -238 79 -22 38 -22 45 -22 451 l0 413 25 42 c45 78 11 75 725 75 616 0 636 -1 668 -20z"
       id="path1"
       style="fill:#000080;fill-opacity:1" />
    <path
       id="path2"
       style="fill:#000080;fill-opacity:1"
       d="m 1460,3826 c -161,-35 -268,-94 -386,-211 -76,-76 -97,-105 -137,-185 -59,-121 -79,-206 -79,-340 1,-332 209,-611 532,-712 63,-19 96,-23 210,-23 114,0 147,4 210,23 323,101 531,380 532,712 0,134 -20,219 -79,340 -39,80 -61,110 -137,186 -77,77 -106,98 -186,137 -52,26 -122,54 -155,63 -84,22 -245,27 -325,10 z m 314,-344 c 132,-62 224,-183 248,-326 29,-178 -70,-365 -239,-448 -65,-32 -72,-33 -183,-33 -111,0 -118,1 -183,33 -124,61 -213,180 -239,319 -31,168 63,358 221,442 79,42 121,51 223,47 71,-3 98,-9 152,-34 z" />
    <path
       d="M768 2111 c-156 -50 -271 -165 -318 -319 -17 -56 -20 -93 -20 -286 0 -218 1 -222 29 -304 38 -110 82 -181 161 -261 187 -191 474 -285 910 -298 397 -12 700 46 913 174 104 63 211 176 260 275 58 117 67 173 67 419 0 188 -3 225 -20 280 -20 67 -64 144 -109 193 -42 46 -139 105 -209 126 -62 19 -93 20 -836 19 -718 0 -775 -1 -828 -18z m1610 -321 c67 -41 72 -62 72 -285 0 -190 -1 -203 -24 -251 -63 -135 -196 -218 -426 -265 -127 -27 -481 -37 -642 -19 -304 33 -503 134 -579 295 -29 59 -29 62 -29 250 0 212 6 235 72 275 32 19 52 20 778 20 726 0 746 -1 778 -20z"
       id="path3"
       style="fill:#808080;fill-opacity:1" />
    <path
       id="path9"
       style="fill:#808080;fill-opacity:1"
       d="m 1460,3826 c -161,-35 -268,-94 -386,-211 -76,-76 -97,-105 -137,-185 -59,-121 -79,-206 -79,-340 1,-332 209,-611 532,-712 63,-19 96,-23 210,-23 114,0 147,4 210,23 323,101 531,380 532,712 0,134 -20,219 -79,340 -39,80 -61,110 -137,186 -77,77 -106,98 -186,137 -52,26 -122,54 -155,63 -84,22 -245,27 -325,10 z m 314,-344 c 132,-62 224,-183 248,-326 29,-178 -70,-365 -239,-448 -65,-32 -72,-33 -183,-33 -111,0 -118,1 -183,33 -124,61 -213,180 -239,319 -31,168 63,358 221,442 79,42 121,51 223,47 71,-3 98,-9 152,-34 z" />
    <path
       style="fill:#000080;fill-opacity:1;fill-rule:evenodd;stroke:#000080;stroke-width:39.1976;stroke-opacity:1"
       d="m 211.84437,235.51508 c -4.10103,-0.0116 -8.36295,0.10838 -12.00043,2.25711 -8.47229,3.64743 -15.32275,10.63887 -18.89225,19.13373 -4.08251,8.71713 -3.72631,19.16004 0.60947,27.71275 4.11063,9.0296 12.10021,16.14102 21.42069,19.44241 6.92614,0.18991 13.88396,0.33455 20.79864,-0.0735 9.81275,-3.44598 18.0634,-11.1264 22.01774,-20.77122 2.52692,-5.63585 3.06629,-12.00103 2.32362,-18.07745 -1.54563,-8.71481 -6.2427,-16.7952 -13.20392,-22.2898 -4.93599,-3.98447 -10.89364,-7.10486 -17.3725,-7.17155 -1.89707,-0.13406 -3.79961,-0.17592 -5.70106,-0.16249 z"
       id="path10"
       transform="matrix(7.5,0,0,-7.5,0,5120)" />
    <path
       d="m 1601.8359,3499.9707 c -8.5161,0.108 -17.0243,0.09 -25.3271,-0.059 -8.3028,-0.1481 -16.3984,-0.4256 -24.082,-0.835 -7.6836,-0.4093 -14.9479,-0.9502 -21.6065,-1.6259 -6.6585,-0.6757 -12.7021,-1.4845 -17.9297,-2.4317 -6.0988,-1.105 -12.3842,-2.5199 -18.8086,-4.2187 -6.4243,-1.6988 -12.9976,-3.6821 -19.6582,-5.9326 -6.6605,-2.2506 -13.4074,-4.7691 -20.2148,-7.5293 -6.8074,-2.7603 -13.6722,-5.7662 -20.5371,-8.9942 -6.865,-3.2279 -13.7333,-6.6735 -20.5664,-10.3271 -6.8331,-3.6537 -13.6348,-7.5057 -20.3467,-11.543 -6.7119,-4.0373 -13.3327,-8.2626 -19.834,-12.6416 -6.5013,-4.3789 -12.8709,-8.9152 -19.0723,-13.5937 -4.9858,-3.7616 -9.8931,-7.6602 -14.707,-11.6748 -4.8139,-4.0147 -9.5458,-8.1526 -14.1797,-12.4073 -4.6338,-4.2547 -9.1773,-8.6139 -13.623,-13.0957 -4.4457,-4.4818 -8.7877,-9.0736 -13.0371,-13.7695 -4.2495,-4.6959 -8.4062,-9.5024 -12.4512,-14.3994 -4.0451,-4.897 -7.9741,-9.8856 -11.8066,-14.9707 -3.8326,-5.0851 -7.5648,-10.2671 -11.1768,-15.5274 -3.612,-5.2602 -7.105,-10.603 -10.4883,-16.0254 -3.3833,-5.4223 -6.6533,-10.9226 -9.7998,-16.4941 -3.1465,-5.5715 -6.1804,-11.2113 -9.082,-16.9189 -2.9016,-5.7077 -5.6717,-11.4837 -8.3203,-17.3145 -2.6486,-5.8308 -5.1712,-11.725 -7.5586,-17.666 -2.3875,-5.941 -4.6347,-11.9354 -6.753,-17.9736 -2.1182,-6.0383 -4.1063,-12.1149 -5.9472,-18.2374 -1.841,-6.1224 -3.5422,-12.278 -5.0977,-18.4716 -1.5555,-6.1936 -2.9714,-12.425 -4.2334,-18.6768 -1.0457,-5.1806 -1.8621,-9.7438 -2.5195,-14.2969 -0.6574,-4.553 -1.1551,-9.0935 -1.5088,-14.2529 -0.3537,-5.1593 -0.5686,-10.9301 -0.7031,-17.9297 -0.1346,-6.9995 -0.1758,-15.2242 -0.1758,-25.2978 0,-13.3793 0.2134,-24.8935 0.7617,-35.3174 0.2742,-5.212 0.6297,-10.1604 1.084,-14.9268 0.4543,-4.7663 1.0068,-9.3558 1.6699,-13.872 0.6631,-4.5163 1.4285,-8.9564 2.3291,-13.418 0.9006,-4.4616 1.9387,-8.9474 3.1055,-13.5498 2.3337,-9.205 5.2183,-18.883 8.7891,-29.8242 1.9711,-6.0397 4.9,-13.7117 8.3789,-22.1338 3.4788,-8.4221 7.5092,-17.5907 11.6748,-26.6162 4.1655,-9.0255 8.4786,-17.9169 12.5097,-25.7666 4.0311,-7.8498 7.7789,-14.6607 10.8545,-19.5557 3.1713,-5.0473 6.4267,-10.0156 9.7705,-14.8975 3.3439,-4.8818 6.7829,-9.6841 10.2979,-14.3994 3.515,-4.7152 7.111,-9.3391 10.7959,-13.8867 3.6848,-4.5476 7.4553,-9.0099 11.3086,-13.3887 3.8533,-4.3787 7.7862,-8.6817 11.8066,-12.8906 4.0204,-4.2089 8.1332,-8.3254 12.3193,-12.3633 4.1862,-4.0378 8.4522,-7.9849 12.8028,-11.8506 4.3505,-3.8657 8.7872,-7.6454 13.3008,-11.3379 4.5136,-3.6924 9.1089,-7.307 13.7841,-10.8251 4.6753,-3.5182 9.432,-6.9406 14.2676,-10.2832 4.8356,-3.3427 9.7418,-6.6045 14.7364,-9.7706 4.9945,-3.166 10.0675,-6.2401 15.2197,-9.2285 5.1521,-2.9883 10.3801,-5.8916 15.6885,-8.7011 5.3084,-2.8096 10.6939,-5.5296 16.1572,-8.1592 5.4633,-2.6297 11.0091,-5.1686 16.626,-7.6172 5.6168,-2.4487 11.311,-4.8087 17.08,-7.0752 3.3378,-1.3113 6.502,-2.4681 9.6973,-3.501 3.1953,-1.0329 6.4156,-1.9412 9.873,-2.7246 3.4575,-0.7834 7.1554,-1.4441 11.2793,-2.0068 4.124,-0.5628 8.6771,-1.0207 13.8721,-1.3916 5.195,-0.371 11.0248,-0.6562 17.6953,-0.8643 6.6706,-0.2081 14.1839,-0.336 22.7344,-0.4101 17.1011,-0.1483 38.372,-0.068 65.4199,0.1464 l 83.7744,0.6739 17.6514,6.0498 c 8.4718,2.9098 16.7337,6.0053 24.8145,9.2871 8.0808,3.2818 15.9811,6.7567 23.7011,10.4297 7.72,3.6729 15.2571,7.5475 22.6465,11.6308 7.3894,4.0834 14.62,8.3777 21.709,12.8907 7.089,4.5129 14.0406,9.2471 20.8594,14.2089 6.8187,4.9618 13.5042,10.1415 20.083,15.5713 6.5787,5.4299 13.0549,11.1044 19.4238,17.0215 6.3689,5.9171 12.634,12.0774 18.8233,18.501 4.7972,4.9788 9.3804,9.9004 13.7548,14.7803 4.3745,4.8798 8.5418,9.727 12.5391,14.5752 3.9973,4.8481 7.8186,9.6914 11.4844,14.5752 3.6658,4.8837 7.1816,9.8082 10.5615,14.7949 3.3799,4.9867 6.6162,10.0334 9.7559,15.1904 3.1396,5.157 6.1809,10.4258 9.1259,15.8203 2.9451,5.3946 5.8026,10.9119 8.5987,16.6113 2.796,5.6995 5.525,11.5797 8.2177,17.6514 3.1162,7.0265 6.0166,14.044 8.6866,21.0938 2.6699,7.0497 5.109,14.1202 7.3388,21.2255 2.2298,7.1053 4.2395,14.2523 6.0352,21.4454 1.7957,7.193 3.3785,14.4398 4.7461,21.7529 1.3676,7.3131 2.5261,14.6978 3.4717,22.1631 0.9455,7.4653 1.6824,15.0114 2.2119,22.6611 0.5295,7.6498 0.8473,15.3953 0.9668,23.2617 0.1194,7.8665 0.036,15.8495 -0.2491,23.9649 -0.1938,5.5292 -0.5025,11.047 -0.9375,16.5527 -0.4349,5.5057 -0.9959,11.0023 -1.6699,16.4795 -0.674,5.4772 -1.4619,10.9332 -2.373,16.377 -0.9111,5.4437 -1.9446,10.8691 -3.0908,16.2744 -1.1463,5.4052 -2.4146,10.7955 -3.794,16.1572 -1.3793,5.3617 -2.8719,10.6975 -4.4824,16.0107 -1.6105,5.3132 -3.3313,10.6046 -5.1709,15.8643 -1.8396,5.2596 -3.7926,10.4874 -5.8594,15.6885 -2.0667,5.2011 -4.2413,10.3751 -6.5332,15.5127 -2.2919,5.1375 -4.7066,10.2386 -7.2217,15.3076 -2.515,5.069 -5.1446,10.1071 -7.8808,15.1025 -2.7363,4.9954 -5.57,9.9514 -8.5254,14.8682 -2.9554,4.9168 -6.0266,9.7859 -9.1992,14.6191 -3.1727,4.8332 -6.456,9.6256 -9.8438,14.3701 -3.3878,4.7446 -6.8726,9.4555 -10.4736,14.1065 -3.601,4.651 -7.3206,9.2465 -11.1328,13.7988 -3.522,4.2058 -7.1504,8.3548 -10.8838,12.4365 -3.7334,4.0818 -7.5708,8.0934 -11.499,12.0411 -3.9283,3.9476 -7.949,7.8275 -12.0557,11.6308 -4.1067,3.8033 -8.2998,7.5279 -12.5684,11.1768 -4.2685,3.6488 -8.6084,7.2238 -13.0224,10.708 -4.414,3.4842 -8.8897,6.8859 -13.4326,10.1953 -4.543,3.3094 -9.1581,6.5289 -13.8135,9.6533 -4.6554,3.1245 -9.3551,6.1527 -14.1065,9.082 -4.7514,2.9294 -9.5538,5.7574 -14.3847,8.4815 -4.8309,2.724 -9.696,5.3429 -14.5899,7.8516 -4.8939,2.5086 -9.8105,4.9093 -14.751,7.1923 -4.9404,2.283 -9.8976,4.4421 -14.8681,6.4893 -4.9705,2.0472 -9.9574,3.9848 -14.9414,5.7861 -4.9841,1.8013 -9.9749,3.4793 -14.9561,5.0244 -4.9811,1.5452 -9.9504,2.9545 -14.9121,4.2334 -4.9617,1.279 -9.913,2.4253 -14.8389,3.4278 -5.3104,1.0808 -11.4287,2.0404 -18.1494,2.8857 -6.7207,0.8453 -14.0425,1.578 -21.7675,2.1826 -7.7251,0.6047 -15.8465,1.0767 -24.17,1.4356 -8.3235,0.3589 -16.855,0.5952 -25.3711,0.7031 z"
       style="fill:#000080;fill-rule:evenodd;stroke:#000080;stroke-width:39.1976"
       id="path13" />
    <path
       d="m 1599.1113,3515.7324 c -8.883,0.01 -18.1718,-0.1128 -27.9345,-0.3515 -8.2112,-0.2008 -15.9009,-0.49 -23.1592,-0.9082 -7.2583,-0.4183 -14.0917,-0.964 -20.625,-1.6553 -6.5334,-0.6913 -12.7576,-1.5291 -18.794,-2.5488 -6.0363,-1.0198 -11.8841,-2.2145 -17.6513,-3.6182 -5.7673,-1.4037 -11.4565,-3.0202 -17.1827,-4.8633 -5.7261,-1.8431 -11.4893,-3.9169 -17.4023,-6.2549 -5.913,-2.338 -11.9827,-4.9339 -18.3105,-7.8222 -6.3279,-2.8884 -12.9221,-6.0712 -19.8926,-9.5655 -6.5255,-3.2711 -12.7344,-6.503 -18.6914,-9.7265 -5.9571,-3.2236 -11.6548,-6.4376 -17.1387,-9.6826 -5.4839,-3.2451 -10.7582,-6.5228 -15.8643,-9.8584 -5.106,-3.3356 -10.0446,-6.7294 -14.8681,-10.2247 -4.8235,-3.4952 -9.5288,-7.0866 -14.1651,-10.8105 -4.6362,-3.7239 -9.1959,-7.58 -13.7402,-11.6016 -4.5443,-4.0216 -9.0754,-8.2092 -13.623,-12.5976 -4.5477,-4.3884 -9.1232,-8.9746 -13.7696,-13.7989 -4.4712,-4.6423 -8.8255,-9.3531 -13.0664,-14.1357 -4.2409,-4.7826 -8.3692,-9.6419 -12.3779,-14.5605 -4.0087,-4.9187 -7.9003,-9.9058 -11.6748,-14.9561 -3.7745,-5.0503 -7.4334,-10.1592 -10.9717,-15.3369 -3.5383,-5.1777 -6.9537,-10.417 -10.2539,-15.7178 -3.3002,-5.3008 -6.476,-10.6643 -9.5361,-16.084 -3.0602,-5.4196 -6.0002,-10.9014 -8.8184,-16.4355 -2.8182,-5.5342 -5.5117,-11.1281 -8.0859,-16.7725 -2.5742,-5.6444 -5.0253,-11.3297 -7.3535,-17.0801 -2.3283,-5.7503 -4.5408,-11.565 -6.6211,-17.4169 -2.0804,-5.852 -4.0289,-11.746 -5.8594,-17.6954 -1.8305,-5.9493 -3.5482,-11.9458 -5.127,-17.9882 -1.5787,-6.0425 -3.0256,-12.1354 -4.3506,-18.2666 -1.3249,-6.1312 -2.5196,-12.3 -3.5888,-18.5157 -1.0693,-6.2157 -2.0156,-12.4687 -2.8272,-18.7646 -0.8116,-6.2959 -1.4841,-12.6419 -2.0361,-19.0137 -0.46,-5.3102 -0.7912,-10.6622 -0.9814,-16.0693 -0.1903,-5.4072 -0.2509,-10.8596 -0.1758,-16.3477 0.075,-5.488 0.294,-11.0145 0.6299,-16.5674 0.3358,-5.5528 0.7993,-11.1414 1.3916,-16.7431 0.5922,-5.6017 1.3092,-11.2259 2.1533,-16.8604 0.8441,-5.6344 1.8088,-11.2824 2.9004,-16.9336 1.0915,-5.6512 2.313,-11.2963 3.6474,-16.9482 1.3345,-5.6519 2.7777,-11.3117 4.3506,-16.9483 1.5729,-5.6365 3.2761,-11.2551 5.083,-16.8603 1.8069,-5.6052 3.7205,-11.1853 5.7569,-16.7432 2.0364,-5.5578 4.1838,-11.0876 6.4453,-16.582 2.2614,-5.4944 4.6371,-10.962 7.1191,-16.377 2.482,-5.4149 5.0803,-10.7791 7.7783,-16.0986 2.6981,-5.3194 5.4986,-10.5831 8.4082,-15.791 2.9097,-5.2079 5.9213,-10.3591 9.0381,-15.4395 3.1168,-5.0803 6.3339,-10.0925 9.6533,-15.0293 5.7388,-8.5347 11.6368,-16.7681 17.71,-24.6972 6.0732,-7.9291 12.3316,-15.5522 18.7793,-22.9102 6.4477,-7.3579 13.0891,-14.4482 19.9512,-21.2695 6.862,-6.8213 13.9385,-13.383 21.2549,-19.7022 7.3163,-6.3191 14.8651,-12.3857 22.6757,-18.2373 7.8107,-5.8515 15.8837,-11.4858 24.2286,-16.9043 8.3448,-5.4184 16.9647,-10.6247 25.8837,-15.6445 8.9191,-5.0198 18.1378,-9.8463 27.6709,-14.5019 8.7887,-4.2922 16.5663,-7.9241 23.6426,-11.001 7.0764,-3.0769 13.4577,-5.6051 19.4238,-7.6758 5.9661,-2.0707 11.5196,-3.6924 16.9776,-4.9658 5.4579,-1.2735 10.8104,-2.2006 16.3623,-2.8858 2.7561,-0.3402 7.483,-0.6346 13.6963,-0.8935 6.2133,-0.2589 13.9138,-0.4825 22.6025,-0.6592 17.3774,-0.3535 38.7288,-0.5372 60.1172,-0.5566 21.3885,-0.019 42.8207,0.1323 60.3662,0.4541 8.7727,0.1608 16.5708,0.3531 22.9102,0.6006 6.3393,0.2474 11.2115,0.5439 14.1357,0.8789 6.2447,0.7153 12.2396,1.6835 18.2666,3.0175 6.0271,1.3341 12.0949,3.0421 18.5156,5.2002 6.4208,2.1582 13.1845,4.7663 20.6104,7.9541 7.4259,3.1879 15.5084,6.9443 24.5508,11.3672 9.2489,4.524 18.26,9.2899 27.0263,14.2822 8.7664,4.9923 17.2968,10.219 25.5909,15.6885 8.294,5.4695 16.3527,11.1832 24.1845,17.1387 7.8319,5.9555 15.4279,12.153 22.8076,18.6035 7.3798,6.4505 14.5368,13.1434 21.4747,20.0977 6.9378,6.9543 13.6647,14.1687 20.1709,21.6357 6.5061,7.467 12.7972,15.1853 18.8818,23.1738 6.0846,7.9886 11.9635,16.2516 17.6367,24.7705 3.1944,4.7968 6.2878,9.6652 9.2871,14.6192 2.9993,4.954 5.9014,9.9928 8.7012,15.0879 2.7998,5.0951 5.4899,10.2487 8.0859,15.4687 2.596,5.22 5.0975,10.5062 7.4854,15.835 2.3878,5.3288 4.6655,10.7065 6.8408,16.1279 2.1753,5.4215 4.2378,10.879 6.1963,16.377 1.9584,5.4979 3.8145,11.0383 5.5517,16.5967 1.7373,5.5583 3.3664,11.1406 4.878,16.7431 1.5116,5.6026 2.9078,11.2151 4.1894,16.8457 1.2817,5.6306 2.439,11.2764 3.4864,16.919 1.0473,5.6425 1.9891,11.2806 2.7978,16.9189 0.8087,5.6383 1.4851,11.2717 2.0508,16.8897 0.5657,5.6179 1.0147,11.2202 1.333,16.8017 0.3183,5.5815 0.5047,11.1411 0.5713,16.6699 0.067,5.5289 0.014,11.0341 -0.1758,16.4942 -0.1895,5.46 -0.5022,10.8846 -0.9521,16.2597 -0.8795,10.507 -2.1421,20.9283 -3.7647,31.2452 -1.6226,10.3168 -3.6054,20.5197 -5.9473,30.6152 -2.3419,10.0954 -5.0485,20.0841 -8.0859,29.9268 -3.0374,9.8426 -6.413,19.5479 -10.1221,29.1064 -3.709,9.5585 -7.7426,18.9698 -12.0996,28.2129 -4.3569,9.243 -9.0375,18.3206 -14.0185,27.2168 -4.981,8.8962 -10.2684,17.6002 -15.8496,26.1181 -5.5813,8.518 -11.4498,16.8379 -17.6075,24.9463 -6.1576,8.1084 -12.5963,16.0044 -19.3066,23.6719 -6.7103,7.6675 -13.6935,15.1144 -20.9326,22.3096 -7.2391,7.1952 -14.7413,14.1385 -22.4854,20.8301 -7.744,6.6915 -15.7396,13.1354 -23.9648,19.292 -8.2252,6.1565 -16.6739,12.0319 -25.3565,17.622 -8.6825,5.5902 -17.5879,10.8865 -26.7041,15.8789 -9.1161,4.9925 -18.4526,9.6845 -27.9785,14.0479 -9.5258,4.3633 -19.2533,8.3967 -29.165,12.0996 -5.5486,2.0729 -11.1526,3.9859 -16.875,5.7275 -5.7224,1.7417 -11.5517,3.3236 -17.5488,4.7461 -5.9971,1.4225 -12.1577,2.6785 -18.5303,3.794 -6.3726,1.1154 -12.9557,2.0799 -19.8047,2.9004 -6.849,0.8204 -13.9606,1.4986 -21.3867,2.0361 -7.4262,0.5375 -15.1722,0.9345 -23.2764,1.2012 -8.1042,0.2667 -16.5759,0.4022 -25.459,0.4101 z m 2.7246,-15.7617 c 8.5161,-0.1079 17.0476,-0.3442 25.3711,-0.7031 8.3235,-0.3589 16.4449,-0.8309 24.17,-1.4356 7.725,-0.6046 15.0468,-1.3373 21.7675,-2.1826 6.7207,-0.8453 12.839,-1.8049 18.1494,-2.8857 4.9259,-1.0025 9.8772,-2.1488 14.8389,-3.4278 4.9617,-1.2789 9.931,-2.6882 14.9121,-4.2334 4.9812,-1.5451 9.972,-3.2231 14.9561,-5.0244 4.984,-1.8013 9.9709,-3.7389 14.9414,-5.7861 4.9705,-2.0472 9.9277,-4.2063 14.8681,-6.4893 4.9405,-2.283 9.8571,-4.6837 14.751,-7.1923 4.8939,-2.5087 9.759,-5.1276 14.5899,-7.8516 4.8309,-2.7241 9.6333,-5.5521 14.3847,-8.4815 4.7514,-2.9293 9.4511,-5.9575 14.1065,-9.082 4.6554,-3.1244 9.2705,-6.3439 13.8135,-9.6533 4.5429,-3.3094 9.0186,-6.7111 13.4326,-10.1953 4.414,-3.4842 8.7539,-7.0592 13.0224,-10.708 4.2686,-3.6489 8.4617,-7.3735 12.5684,-11.1768 4.1067,-3.8033 8.1274,-7.6832 12.0557,-11.6308 3.9282,-3.9477 7.7656,-7.9593 11.499,-12.0411 3.7334,-4.0817 7.3618,-8.2307 10.8838,-12.4365 3.8122,-4.5523 7.5318,-9.1478 11.1328,-13.7988 3.601,-4.651 7.0858,-9.3619 10.4736,-14.1065 3.3878,-4.7445 6.6711,-9.5369 9.8438,-14.3701 3.1726,-4.8332 6.2438,-9.7023 9.1992,-14.6191 2.9554,-4.9168 5.7891,-9.8728 8.5254,-14.8682 2.7362,-4.9954 5.3658,-10.0335 7.8808,-15.1025 2.5151,-5.069 4.9298,-10.1701 7.2217,-15.3076 2.2919,-5.1376 4.4665,-10.3116 6.5332,-15.5127 2.0668,-5.2011 4.0198,-10.4289 5.8594,-15.6885 1.8396,-5.2597 3.5604,-10.5511 5.1709,-15.8643 1.6105,-5.3132 3.1031,-10.649 4.4824,-16.0107 1.3794,-5.3617 2.6477,-10.752 3.794,-16.1572 1.1462,-5.4053 2.1797,-10.8307 3.0908,-16.2744 0.9111,-5.4438 1.699,-10.8998 2.373,-16.377 0.674,-5.4772 1.235,-10.9738 1.6699,-16.4795 0.435,-5.5057 0.7437,-11.0235 0.9375,-16.5527 0.2846,-8.1154 0.3685,-16.0984 0.2491,-23.9649 -0.1195,-7.8664 -0.4373,-15.6119 -0.9668,-23.2617 -0.5295,-7.6497 -1.2664,-15.1958 -2.2119,-22.6611 -0.9456,-7.4653 -2.1041,-14.85 -3.4717,-22.1631 -1.3676,-7.3131 -2.9504,-14.5599 -4.7461,-21.7529 -1.7957,-7.1931 -3.8054,-14.3401 -6.0352,-21.4454 -2.2298,-7.1053 -4.6689,-14.1758 -7.3388,-21.2255 -2.67,-7.0498 -5.5704,-14.0673 -8.6866,-21.0938 -2.6927,-6.0717 -5.4217,-11.9519 -8.2177,-17.6514 -2.7961,-5.6994 -5.6536,-11.2167 -8.5987,-16.6113 -2.945,-5.3945 -5.9863,-10.6633 -9.1259,-15.8203 -3.1397,-5.157 -6.376,-10.2037 -9.7559,-15.1904 -3.3799,-4.9867 -6.8957,-9.9112 -10.5615,-14.7949 -3.6658,-4.8838 -7.4871,-9.7271 -11.4844,-14.5752 -3.9973,-4.8482 -8.1646,-9.6954 -12.5391,-14.5752 -4.3744,-4.8799 -8.9576,-9.8015 -13.7548,-14.7803 -6.1893,-6.4236 -12.4544,-12.5839 -18.8233,-18.501 -6.3689,-5.9171 -12.8451,-11.5916 -19.4238,-17.0215 -6.5788,-5.4298 -13.2643,-10.6095 -20.083,-15.5713 -6.8188,-4.9618 -13.7704,-9.696 -20.8594,-14.2089 -7.089,-4.513 -14.3196,-8.8073 -21.709,-12.8907 -7.3894,-4.0833 -14.9265,-7.9579 -22.6465,-11.6308 -7.72,-3.673 -15.6203,-7.1479 -23.7011,-10.4297 -8.0808,-3.2818 -16.3427,-6.3773 -24.8145,-9.2871 l -17.6514,-6.0498 -83.7744,-0.6739 c -27.0479,-0.2144 -48.3188,-0.2947 -65.4199,-0.1464 -8.5505,0.074 -16.0638,0.202 -22.7344,0.4101 -6.6705,0.2081 -12.5003,0.4933 -17.6953,0.8643 -5.195,0.3709 -9.7481,0.8288 -13.8721,1.3916 -4.1239,0.5627 -7.8218,1.2234 -11.2793,2.0068 -3.4574,0.7834 -6.6777,1.6917 -9.873,2.7246 -3.1953,1.0329 -6.3595,2.1897 -9.6973,3.501 -5.769,2.2665 -11.4632,4.6265 -17.08,7.0752 -5.6169,2.4486 -11.1627,4.9875 -16.626,7.6172 -5.4633,2.6296 -10.8488,5.3496 -16.1572,8.1592 -5.3084,2.8095 -10.5364,5.7128 -15.6885,8.7011 -5.1522,2.9884 -10.2252,6.0625 -15.2197,9.2285 -4.9946,3.1661 -9.9008,6.4279 -14.7364,9.7706 -4.8356,3.3426 -9.5923,6.765 -14.2676,10.2832 -4.6752,3.5181 -9.2705,7.1327 -13.7841,10.8251 -4.5136,3.6925 -8.9503,7.4722 -13.3008,11.3379 -4.3506,3.8657 -8.6166,7.8128 -12.8028,11.8506 -4.1861,4.0379 -8.2989,8.1544 -12.3193,12.3633 -4.0204,4.2089 -7.9533,8.5119 -11.8066,12.8906 -3.8533,4.3788 -7.6238,8.8411 -11.3086,13.3887 -3.6849,4.5476 -7.2809,9.1715 -10.7959,13.8867 -3.515,4.7153 -6.954,9.5176 -10.2979,14.3994 -3.3438,4.8819 -6.5992,9.8502 -9.7705,14.8975 -3.0756,4.895 -6.8234,11.7059 -10.8545,19.5557 -4.0311,7.8497 -8.3442,16.7411 -12.5097,25.7666 -4.1656,9.0255 -8.196,18.1941 -11.6748,26.6162 -3.4789,8.4221 -6.4078,16.0941 -8.3789,22.1338 -3.5708,10.9412 -6.4554,20.6192 -8.7891,29.8242 -1.1668,4.6024 -2.2049,9.0882 -3.1055,13.5498 -0.9006,4.4616 -1.666,8.9017 -2.3291,13.418 -0.6631,4.5162 -1.2156,9.1057 -1.6699,13.872 -0.4543,4.7664 -0.8098,9.7148 -1.084,14.9268 -0.5483,10.4239 -0.7617,21.9381 -0.7617,35.3174 0,10.0736 0.041,18.2983 0.1758,25.2978 0.1345,6.9996 0.3494,12.7704 0.7031,17.9297 0.3537,5.1594 0.8514,9.6999 1.5088,14.2529 0.6574,4.5531 1.4738,9.1163 2.5195,14.2969 1.262,6.2518 2.6779,12.4832 4.2334,18.6768 1.5555,6.1936 3.2567,12.3492 5.0977,18.4716 1.8409,6.1225 3.829,12.1991 5.9472,18.2374 2.1183,6.0382 4.3655,12.0326 6.753,17.9736 2.3874,5.941 4.91,11.8352 7.5586,17.666 2.6486,5.8308 5.4187,11.6068 8.3203,17.3145 2.9016,5.7076 5.9355,11.3474 9.082,16.9189 3.1465,5.5715 6.4165,11.0718 9.7998,16.4941 3.3833,5.4224 6.8763,10.7652 10.4883,16.0254 3.612,5.2603 7.3442,10.4423 11.1768,15.5274 3.8325,5.0851 7.7615,10.0737 11.8066,14.9707 4.045,4.897 8.2017,9.7035 12.4512,14.3994 4.2494,4.6959 8.5914,9.2877 13.0371,13.7695 4.4457,4.4818 8.9892,8.841 13.623,13.0957 4.6339,4.2547 9.3658,8.3926 14.1797,12.4073 4.8139,4.0146 9.7212,7.9132 14.707,11.6748 6.2014,4.6785 12.571,9.2148 19.0723,13.5937 6.5013,4.379 13.1221,8.6043 19.834,12.6416 6.7119,4.0373 13.5136,7.8893 20.3467,11.543 6.8331,3.6536 13.7014,7.0992 20.5664,10.3271 6.8649,3.228 13.7297,6.2339 20.5371,8.9942 6.8074,2.7602 13.5543,5.2787 20.2148,7.5293 6.6606,2.2505 13.2339,4.2338 19.6582,5.9326 6.4244,1.6988 12.7098,3.1137 18.8086,4.2187 5.2276,0.9472 11.2712,1.756 17.9297,2.4317 6.6586,0.6757 13.9229,1.2166 21.6065,1.6259 7.6836,0.4094 15.7792,0.6869 24.082,0.835 8.3028,0.1481 16.811,0.1666 25.3271,0.059 z"
       style="fill:#000080;fill-rule:evenodd;stroke:#000080;stroke-width:39.1976"
       id="path12" />
    <path
       d="m 3630,4370 c -178.4998,0 -310.2569,0.1904 -408.1787,-0.7471 -48.9609,-0.4687 -89.4581,-1.2217 -123.1201,-2.417 -33.6621,-1.1953 -60.4815,-2.833 -82.0752,-5.083 -10.7969,-1.125 -20.2815,-2.4023 -28.667,-3.8525 -8.3855,-1.4502 -15.668,-3.0762 -22.0459,-4.8926 -6.3779,-1.8164 -11.8518,-3.8262 -16.626,-6.0498 -4.7742,-2.2236 -8.8477,-4.667 -12.4219,-7.3389 -3.5742,-2.6718 -6.6555,-5.5693 -9.4336,-8.7304 -2.778,-3.1612 -5.2607,-6.5772 -7.6464,-10.2686 -4.7715,-7.3828 -9.1553,-15.8701 -14.7803,-25.6201 L 2880,4253.0029 v -412.998 c 0,-101.4999 -0.01,-178.0675 0.3369,-236.4112 0.3438,-58.3436 1.042,-98.4648 2.417,-127.0898 0.6875,-14.3125 1.5479,-25.7539 2.6221,-35.1562 1.0742,-9.4024 2.3642,-16.7676 3.9111,-22.9395 1.5469,-6.1719 3.3438,-11.1553 5.4492,-15.7764 2.1055,-4.6211 4.5157,-8.8877 7.2657,-13.6377 4.7499,-8.625 9.1416,-16.2295 13.5498,-22.9541 4.4082,-6.7246 8.832,-12.5654 13.6523,-17.6513 4.8203,-5.086 10.0391,-9.416 16.0254,-13.125 5.9863,-3.709 12.7334,-6.7959 20.6396,-9.3897 7.9063,-2.5937 16.9737,-4.6904 27.5538,-6.4306 10.58,-1.7403 22.6718,-3.1289 36.6796,-4.2774 28.0156,-2.2969 63.6427,-3.6709 109.8926,-5.1709 l 165,-4.9951 5.0098,-228.0029 L 3315,2850.0049 3544.9951,3080 3775.0049,3309.9951 H 4020 c 56.7499,0 100.5577,0.1319 134.8389,0.6006 34.2812,0.4688 59.041,1.2764 77.666,2.6514 9.3125,0.6875 17.084,1.5234 23.7597,2.5195 6.6758,0.9961 12.2481,2.1563 17.1387,3.5156 4.8906,1.3594 9.1094,2.9102 13.0664,4.6875 3.9571,1.7774 7.6534,3.7852 11.5283,6.0352 4.5,2.75 9.3204,6.2402 14.1797,10.2246 4.8594,3.9844 9.7559,8.4521 14.4434,13.1396 4.6875,4.6875 9.1553,9.5987 13.1396,14.458 3.9844,4.8594 7.4893,9.6797 10.2393,14.1797 2.375,4 4.4678,7.7998 6.3135,12.2022 1.8457,4.4023 3.4511,9.4023 4.834,15.7617 1.3828,6.3594 2.5439,14.0791 3.5302,23.9502 0.9864,9.8711 1.7901,21.8887 2.4463,36.8262 1.3125,29.8749 2.0264,71.4444 2.417,130.9131 0.3906,59.4686 0.4541,136.8448 0.4541,238.3447 0,101.4999 -0.064,178.876 -0.4541,238.3447 -0.3906,59.4687 -1.1045,101.0235 -2.417,130.8984 -0.6562,14.9375 -1.4599,26.9551 -2.4463,36.8262 -0.9863,9.8711 -2.1474,17.5908 -3.5302,23.9502 -1.3829,6.3594 -2.9883,11.3594 -4.834,15.7617 -1.8457,4.4024 -3.9385,8.2168 -6.3135,12.2168 -2.75,4.5 -6.2549,9.3057 -10.2393,14.1651 -3.9843,4.8593 -8.4521,9.7705 -13.1396,14.458 -4.6875,4.6875 -9.584,9.1553 -14.4434,13.1396 -4.8593,3.9844 -9.6797,7.4893 -14.1797,10.2393 -3.9999,2.375 -7.8144,4.4678 -12.6269,6.3135 -4.8125,1.8457 -10.6182,3.4365 -18.6182,4.8193 -8,1.3828 -18.1953,2.5586 -31.7578,3.5449 -13.5625,0.9863 -30.502,1.7901 -52.0019,2.4463 -43,1.3125 -104.2423,2.0264 -193.2422,2.417 C 3900.7511,4369.9365 3783.9998,4370 3630,4370 Z"
       style="fill:#000080"
       id="path34" />
    <path
       d="m 3997.9102,4689.1309 c -92.9687,0.25 -213.6594,0.1181 -371.9092,-0.1319 -136.2499,0 -246.255,-0.1904 -335.3174,-0.6592 -89.0624,-0.4687 -157.1778,-1.2187 -209.6777,-2.3437 -52.5,-1.125 -89.3799,-2.6162 -115.9424,-4.585 -13.2813,-0.9843 -23.9795,-2.0947 -32.7686,-3.3252 -8.789,-1.2304 -15.6738,-2.5869 -21.2988,-4.0869 -10.0625,-2.6875 -20.0025,-5.7334 -29.8096,-9.126 -9.8071,-3.3925 -19.4785,-7.1357 -29.0039,-11.206 -9.5254,-4.0703 -18.9077,-8.4629 -28.125,-13.1836 -9.2173,-4.7207 -18.2754,-9.7588 -27.1582,-15.1025 -8.8828,-5.3438 -17.5815,-10.9942 -26.1035,-16.9336 -8.522,-5.9395 -16.8555,-12.169 -24.9902,-18.6768 -8.1348,-6.5078 -16.0679,-13.2979 -23.7891,-20.3467 -7.7212,-7.0488 -15.2334,-14.3662 -22.5146,-21.9287 -7.2813,-7.5625 -14.3375,-15.374 -21.1524,-23.4228 -6.8149,-8.0489 -13.3945,-16.336 -19.7168,-24.8438 -6.3222,-8.5078 -12.3901,-17.2373 -18.1933,-26.1767 -5.8033,-8.9395 -11.3389,-18.0782 -16.5967,-27.4219 -5.2578,-9.3438 -10.2408,-18.8877 -14.9268,-28.6084 -4.686,-9.7207 -9.081,-19.6221 -13.1689,-29.6924 -4.0879,-10.0703 -7.8599,-20.3106 -11.3233,-30.7031 -3.4633,-10.3926 -6.6064,-20.9385 -9.4189,-31.626 -1.5,-6.125 -2.8711,-12.8115 -4.1016,-20.4932 -1.2304,-7.6816 -2.3262,-16.3535 -3.3105,-26.455 -1.9688,-20.2031 -3.4746,-46.1192 -4.5996,-81.1817 -1.125,-35.0624 -1.875,-79.2705 -2.3438,-136.0986 -0.4687,-56.8281 -0.6445,-126.2726 -0.6445,-211.7725 0,-58.4999 0.249,-115.2422 0.7178,-167.9297 0.4687,-52.6874 1.1464,-101.3193 2.0214,-143.5693 0.875,-42.25 1.9454,-78.1201 3.1641,-105.3076 1.2188,-27.1875 2.5869,-45.6885 4.0869,-53.1885 2.125,-11.375 4.7249,-22.6741 7.7637,-33.8525 3.0388,-11.1785 6.5244,-22.2461 10.4297,-33.1787 3.9052,-10.9327 8.2248,-21.721 12.9492,-32.3584 4.7244,-10.6375 9.8555,-21.1133 15.3516,-31.4063 5.496,-10.293 11.3576,-20.4084 17.5781,-30.3076 6.2204,-9.8992 12.79,-19.5918 19.6875,-29.0479 6.8974,-9.456 14.1233,-18.6779 21.6504,-27.6416 7.5271,-8.9636 15.3574,-17.667 23.4668,-26.0888 8.1093,-8.4219 16.5071,-16.5589 25.1513,-24.3897 8.6443,-7.8308 17.543,-15.3535 26.6748,-22.5439 9.1319,-7.1904 18.4944,-14.0511 28.0664,-20.5518 9.5721,-6.5007 19.3467,-12.6367 29.3116,-18.3984 9.9648,-5.7617 20.1145,-11.1399 30.4248,-16.1133 10.3103,-4.9734 20.7832,-9.5459 31.3916,-13.6816 10.6084,-4.1358 21.3528,-7.8401 32.2119,-11.0889 10.8591,-3.2488 21.8379,-6.0371 32.9004,-8.3496 l 54.9902,-11.001 v -157.998 c 0,-21.875 0.1563,-41.7598 0.5274,-59.9122 0.3711,-18.1523 0.957,-34.5713 1.8164,-49.5556 0.8593,-14.9844 1.9922,-28.5274 3.457,-40.8985 1.4648,-12.371 3.2617,-23.5839 5.4492,-33.8964 2.1875,-10.3125 4.7656,-19.7266 7.793,-28.5352 3.0273,-8.8086 6.5039,-16.999 10.4883,-24.8584 3.9843,-7.8594 8.4765,-15.3867 13.5351,-22.8516 5.0586,-7.4648 10.6836,-14.875 16.9336,-22.5 5.625,-6.7499 11.8682,-13.2461 18.6182,-19.4531 6.75,-6.207 14.0068,-12.1172 21.6943,-17.6953 7.6875,-5.5781 15.8057,-10.8252 24.2432,-15.6885 8.4375,-4.8632 17.206,-9.3554 26.206,-13.4179 9,-4.0625 18.2227,-7.6934 27.5977,-10.8692 9.375,-3.1758 18.8994,-5.8828 28.4619,-8.0859 9.5625,-2.2031 19.1631,-3.9092 28.7256,-5.0537 9.5625,-1.1446 19.0869,-1.7285 28.4619,-1.7285 13.375,0.125 25.4365,0.4755 36.8408,1.538 5.7022,0.5313 11.2298,1.2413 16.6846,2.1827 5.4548,0.9414 10.8301,2.1201 16.2012,3.5888 5.3711,1.4688 10.7502,3.2334 16.2011,5.3467 5.451,2.1133 10.9756,4.5664 16.67,7.4414 5.6943,2.875 11.55,6.1631 17.6513,9.917 6.1013,3.7539 12.4444,7.9795 19.1162,12.7295 13.3438,9.5 27.9971,21.1152 44.6045,35.3027 16.6074,14.1875 35.1729,30.9444 56.3526,50.7569 21.1796,19.8125 44.9805,42.6777 72.041,69.0527 27.0605,26.375 57.376,56.2569 91.626,90.1318 L 3907.002,2990 h 190.0048 c 27.5,0 52.4512,0.1875 75.2637,0.6445 22.8125,0.4571 43.4795,1.1778 62.417,2.2559 18.9375,1.0781 36.1416,2.5166 52.0166,4.3799 15.875,1.8633 30.4229,4.1601 44.0479,6.9726 13.6249,2.8125 26.3232,6.1377 38.5107,10.0635 12.1875,3.9258 23.8574,8.4492 35.4199,13.6523 11.5625,5.2032 23.0254,11.0801 34.7754,17.7247 11.75,6.6445 23.7979,14.0595 36.5479,22.3095 12.1249,8 23.6992,16.2998 34.7461,24.917 11.0468,8.6172 21.5673,17.5547 31.5673,26.836 10,9.2812 19.4776,18.8945 28.462,28.8867 8.9843,9.9922 17.4736,20.3633 25.4736,31.1133 8,10.7499 15.5117,21.8877 22.5586,33.4423 7.0468,11.5547 13.6211,23.5264 19.7461,35.9327 6.125,12.4062 11.8017,25.25 17.0361,38.5546 5.2344,13.3047 10.0244,27.0587 14.3994,41.3086 2.375,7.375 4.4678,14.379 6.3135,21.7969 1.8457,7.418 3.4512,15.2549 4.834,24.3018 1.3828,9.0468 2.5439,19.3056 3.5303,31.5674 0.9863,12.2617 1.79,26.5312 2.4462,43.5937 1.3125,34.125 2.0411,79.4366 2.4317,142.2803 0.3906,62.8437 0.4541,143.2208 0.4541,247.4707 0,104.2499 -0.064,184.627 -0.4541,247.4707 -0.3906,62.8437 -1.1192,108.1553 -2.4317,142.2803 -0.6562,17.0624 -1.4599,31.3174 -2.4462,43.5791 -0.9864,12.2617 -2.1475,22.5205 -3.5303,31.5673 -1.3828,9.0469 -2.9883,16.8838 -4.834,24.3018 -1.8457,7.418 -3.9385,14.4219 -6.3135,21.7969 -2.5,8.375 -5.3642,16.9043 -8.5693,25.5176 -3.2051,8.6132 -6.7412,17.3125 -10.5615,26.0156 -7.6407,17.4062 -16.4239,34.834 -25.9864,51.709 -9.5625,16.8749 -19.9082,33.1982 -30.6738,48.3545 -5.3828,7.5781 -10.8721,14.8564 -16.4209,21.7822 -5.5488,6.9258 -11.1621,13.4892 -16.7871,19.6142 -5.25,5.75 -11.3555,11.712 -18.1641,17.7686 -6.8086,6.0566 -14.3213,12.2197 -22.3681,18.3838 -8.0469,6.164 -16.626,12.3262 -25.5909,18.3984 -8.9648,6.0723 -18.3134,12.0459 -27.8759,17.8272 -9.5625,5.7812 -19.3399,11.3642 -29.1797,16.6552 -9.8399,5.2911 -19.7344,10.2959 -29.5313,14.8975 -9.7968,4.6016 -19.497,8.8115 -28.9306,12.5244 -9.4336,3.7129 -18.5987,6.9258 -27.3487,9.5508 -7.625,2.375 -14.7998,4.4697 -22.749,6.3135 -7.9492,1.8437 -16.6728,3.4297 -27.4072,4.8047 -10.7344,1.375 -23.4825,2.5322 -39.4629,3.5009 -15.9805,0.9688 -35.1992,1.7627 -58.8867,2.3877 -47.375,1.25 -112.6222,1.8741 -205.5908,2.1241 z M 3630,4370 c 153.9998,0 270.7511,-0.064 359.751,-0.4541 88.9999,-0.3906 150.2422,-1.1045 193.2422,-2.417 21.4999,-0.6562 38.4394,-1.46 52.0019,-2.4463 13.5625,-0.9863 23.7578,-2.1621 31.7578,-3.5449 8,-1.3828 13.8057,-2.9736 18.6182,-4.8193 4.8125,-1.8457 8.627,-3.9385 12.6269,-6.3135 4.5,-2.75 9.3204,-6.2549 14.1797,-10.2393 4.8594,-3.9843 9.7559,-8.4521 14.4434,-13.1396 4.6875,-4.6875 9.1553,-9.5987 13.1396,-14.458 3.9844,-4.8594 7.4893,-9.6651 10.2393,-14.1651 2.375,-4 4.4678,-7.8144 6.3135,-12.2168 1.8457,-4.4023 3.4511,-9.4023 4.834,-15.7617 1.3828,-6.3594 2.5439,-14.0791 3.5302,-23.9502 0.9864,-9.8711 1.7901,-21.8887 2.4463,-36.8262 1.3125,-29.8749 2.0264,-71.4297 2.417,-130.8984 0.3906,-59.4687 0.4541,-136.8448 0.4541,-238.3447 0,-101.4999 -0.064,-178.8761 -0.4541,-238.3447 -0.3906,-59.4687 -1.1045,-101.0382 -2.417,-130.9131 -0.6562,-14.9375 -1.4599,-26.9551 -2.4463,-36.8262 -0.9863,-9.8711 -2.1474,-17.5908 -3.5302,-23.9502 -1.3829,-6.3594 -2.9883,-11.3594 -4.834,-15.7617 -1.8457,-4.4024 -3.9385,-8.2022 -6.3135,-12.2022 -2.75,-4.5 -6.2549,-9.3203 -10.2393,-14.1797 -3.9843,-4.8593 -8.4521,-9.7705 -13.1396,-14.458 -4.6875,-4.6875 -9.584,-9.1552 -14.4434,-13.1396 -4.8593,-3.9844 -9.6797,-7.4746 -14.1797,-10.2246 -3.8749,-2.25 -7.5712,-4.2578 -11.5283,-6.0352 -3.957,-1.7773 -8.1758,-3.3281 -13.0664,-4.6875 -4.8906,-1.3593 -10.4629,-2.5195 -17.1387,-3.5156 -6.6757,-0.9961 -14.4472,-1.832 -23.7597,-2.5195 -18.625,-1.375 -43.3848,-2.1826 -77.666,-2.6514 -34.2812,-0.4687 -78.089,-0.6006 -134.8389,-0.6006 H 3775.0049 L 3544.9951,3080 3315,2850.0049 l -4.9951,226.9922 -5.0098,228.0029 -165,4.9951 c -46.2499,1.5 -81.877,2.874 -109.8926,5.1709 -14.0078,1.1485 -26.0996,2.5371 -36.6796,4.2774 -10.5801,1.7402 -19.6475,3.8369 -27.5538,6.4306 -7.9062,2.5938 -14.6533,5.6807 -20.6396,9.3897 -5.9863,3.709 -11.2051,8.039 -16.0254,13.125 -4.8203,5.0859 -9.2441,10.9267 -13.6523,17.6513 -4.4082,6.7246 -8.7999,14.3291 -13.5498,22.9541 -2.75,4.75 -5.1602,9.0166 -7.2657,13.6377 -2.1054,4.6211 -3.9023,9.6045 -5.4492,15.7764 -1.5469,6.1719 -2.8369,13.5371 -3.9111,22.9395 -1.0742,9.4023 -1.9346,20.8437 -2.6221,35.1562 -1.375,28.625 -2.0732,68.7462 -2.417,127.0898 -0.3437,58.3437 -0.3369,134.9113 -0.3369,236.4112 v 412.998 L 2905.0049,4295 c 5.625,9.75 10.0088,18.2373 14.7803,25.6201 2.3857,3.6914 4.8684,7.1074 7.6464,10.2686 2.7781,3.1611 5.8594,6.0586 9.4336,8.7304 3.5742,2.6719 7.6477,5.1153 12.4219,7.3389 4.7742,2.2236 10.2481,4.2334 16.626,6.0498 6.3779,1.8164 13.6604,3.4424 22.0459,4.8926 8.3855,1.4502 17.8701,2.7275 28.667,3.8525 21.5937,2.25 48.4131,3.8877 82.0752,5.083 33.662,1.1953 74.1592,1.9483 123.1201,2.417 97.9218,0.9375 229.6789,0.7471 408.1787,0.7471 z"
       style="fill:#000080"
       id="path33" />
    <path
       style="fill:#000080;fill-opacity:1;fill-rule:evenodd;stroke:#000080;stroke-width:39.1976;stroke-opacity:1"
       d="m 442.00623,300.37598 c 0.01,-3.6111 -1.21933,-57.85915 -1.31762,-58.16392 -0.0695,-0.21558 -2.48357,-0.38911 -7.25954,-0.52185 -3.93545,-0.10938 -10.92568,-0.32919 -15.53384,-0.48846 -22.96561,-0.79376 -25.65666,-1.60957 -30.13037,-9.13423 -1.90743,-3.20825 -2.67379,-5.55396 -3.1113,-9.52324 -0.26044,-2.36286 -0.39046,-17.17906 -0.48277,-55.01241 l -0.12634,-51.7786 2.7178,-4.66591 c 1.49479,-2.56626 3.04095,-5.0628 3.43591,-5.54787 2.51091,-3.08375 6.67233,-4.11767 19.75956,-4.90933 8.99522,-0.54413 143.29114,-0.55324 151.69464,-0.0103 6.18023,0.39931 8.98789,0.86489 10.77267,1.78638 2.50176,1.29168 6.57801,5.42269 7.87811,7.98394 1.93705,3.81608 1.97599,4.80164 2.13124,53.94568 0.17299,54.76483 -0.0578,62.52933 -1.97097,66.31134 -1.5086,2.9822 -5.49308,6.98087 -8.44192,8.47195 -3.61223,1.82654 -8.89527,2.0869 -42.41368,2.0903 l -26.31191,0.003 -30.42606,30.42713 c -16.73434,16.73492 -30.52552,30.42712 -30.64708,30.42712 -0.12156,0 -0.219,-0.76068 -0.21653,-1.69039 z"
       id="path15"
       transform="matrix(7.5,0,0,-7.5,0,5120)" />
    <path
       style="fill:#ffffff;fill-rule:evenodd;stroke:#ffffff;stroke-width:7.5px;stroke-linecap:butt;stroke-linejoin:miter;stroke-opacity:1"
       d="m 3002.7771,4243.8003 1141.2424,6.2362"
       id="path24"
       inkscape:connector-type="polyline"
       inkscape:connector-curvature="0" />
    <path
       style="fill:none;fill-rule:evenodd;stroke:#ffffff;stroke-width:7.5px;stroke-linecap:butt;stroke-linejoin:miter;stroke-opacity:1"
       d="m 3015.2497,3994.3483 1135.0061,15.5908"
       id="path25"
       inkscape:connector-type="polyline"
       inkscape:connector-curvature="0" />
    <path
       style="fill:#ffffff;fill-rule:evenodd;stroke:#ffffff;stroke-width:7.5px;stroke-linecap:butt;stroke-linejoin:miter;stroke-opacity:1"
       d="m 3024.6041,3776.0779 1119.4154,12.4727"
       id="path26"
       inkscape:connector-type="polyline"
       inkscape:connector-curvature="0" />
    <path
       style="fill:none;fill-rule:evenodd;stroke:#ffffff;stroke-width:7.5px;stroke-linecap:butt;stroke-linejoin:miter;stroke-opacity:1"
       d="m 3046.4311,3514.1535 492.6676,6.2363"
       id="path27"
       inkscape:connector-type="polyline"
       inkscape:connector-curvature="0" />
    <path
       style="fill:#ffffff;fill-opacity:1;fill-rule:evenodd;stroke:#000080;stroke-width:55.4338;stroke-opacity:1"
       d="m 189.58343,553.93678 c -17.6353,-1.05676 -36.88463,-4.97322 -50.09825,-10.19297 -17.67961,-6.98394 -29.78081,-17.38465 -36.22373,-31.1335 -2.98127,-6.36186 -3.03692,-6.91783 -3.03669,-30.33666 2.2e-4,-21.26986 0.2148,-24.98189 1.70638,-29.51847 0.37591,-1.14332 1.15688,-2.79606 1.73547,-3.67274 1.24276,-1.88303 5.47073,-5.01022 7.96237,-5.88932 3.8222,-1.34855 11.97285,-1.51836 83.15137,-1.73233 70.40453,-0.21164 112.50181,0.19128 117.84394,1.12791 4.64921,0.81514 9.76431,4.58381 11.47718,8.4561 1.87354,4.2355 2.11573,7.15777 2.34701,28.31858 0.29965,27.41651 -0.005,30.25335 -4.0994,38.12254 -3.71848,7.14737 -9.99925,14.01942 -17.17764,18.79474 -8.10022,5.38856 -20.34291,10.24855 -33.50004,13.29856 -10.29185,2.3858 -20.69286,3.55212 -39.26539,4.40307 -10.60911,0.48608 -34.37284,0.46083 -42.82258,-0.0455 z"
       id="path28"
       transform="matrix(7.5,0,0,-7.5,0,5120)" />
    <path
       style="fill:#808080;fill-opacity:1;fill-rule:evenodd;stroke:#000080;stroke-width:55.4338;stroke-opacity:1"
       d="m 192.90946,526.27115 c -13.2045,-0.65102 -29.86663,-3.7013 -40.50084,-7.41434 -11.18124,-3.90404 -19.53983,-9.84795 -23.07621,-16.4098 l -1.21409,-2.25277 -0.0332,-15.0566 c -0.0182,-8.28113 0.0936,-15.18404 0.24861,-15.3398 0.42221,-0.42432 137.93075,-0.71807 155.20989,-0.33157 l 14.96711,0.33479 v 16.63012 16.63013 l -1.22056,2.20322 c -1.93205,3.4875 -6.45102,7.47013 -11.27032,9.93267 -16.49483,8.42846 -37.18527,11.4889 -76.22943,11.27555 -7.91256,-0.0432 -15.509,-0.13396 -16.88099,-0.2016 z"
       id="path29"
       transform="matrix(7.5,0,0,-7.5,0,5120)" />
    <path
       style="fill:#ffffff;fill-opacity:1;fill-rule:evenodd;stroke:#000080;stroke-width:55.4338;stroke-opacity:1"
       d="m 191.27903,498.31067 c -1.74959,-0.14494 -2.94479,-0.44213 -3.04885,-0.75809 -0.13583,-0.41239 5.60902,-0.51708 27.82287,-0.50705 16.1889,0.007 27.73106,0.16596 27.37042,0.37621 -1.67145,0.97443 -42.67476,1.67343 -52.14444,0.88893 z"
       id="path30"
       transform="matrix(7.5,0,0,-7.5,0,5120)" />
    <path
       id="path31"
       style="fill:#808080;fill-opacity:1;fill-rule:evenodd;stroke:#808080;stroke-width:55.43333333;stroke-opacity:1;stroke-dasharray:none"
       transform="matrix(7.5,0,0,-7.5,0,5120)"
       d="m 190.62282,581.82914 c -11.88048,-0.52337 -24.97379,-2.31904 -37.83354,-5.18864 -24.57279,-5.48333 -43.47472,-14.79347 -57.318647,-28.23231 -7.651998,-7.42809 -12.068758,-13.48522 -16.695558,-22.89621 -5.961927,-12.12667 -6.018274,-12.53734 -6.018274,-43.86196 0,-22.54203 0.0791,-25.60087 0.762003,-29.46695 2.399067,-13.58173 8.383994,-22.98877 19.228055,-30.22246 6.409621,-4.27563 12.403101,-6.40684 20.359531,-7.23963 7.0267,-0.73547 84.03327,-1.3475 135.51399,-1.07703 47.90976,0.25171 62.44587,0.5644 68.18352,1.46674 13.16141,2.06985 26.0763,11.42465 31.93768,23.13382 1.85636,3.70839 3.4031,8.49437 4.21934,13.05553 0.88884,4.96692 1.6136,28.75541 1.32365,43.4462 -0.25423,12.88138 -0.80189,18.01552 -2.574,24.13072 -3.62739,12.51737 -13.26239,26.41658 -24.90132,35.92206 -14.5982,11.92229 -39.46912,21.43902 -64.67689,24.74828 -17.19046,2.25675 -49.0219,3.27248 -71.50954,2.28184 z" />
    <path
       style="fill:#808080;fill-opacity:1;fill-rule:evenodd;stroke:#808080;stroke-width:23.0466;stroke-dasharray:none;stroke-opacity:1"
       d="m 458.22493,68.65205 c -20.82074,0.135997 -41.36946,-0.177909 -61.94559,0.933821 -13.16098,0.865971 -24.7132,9.351196 -32.59513,19.487457 -6.55624,8.476468 -10.67396,18.939302 -10.62681,29.732092 -0.81995,24.92702 -0.43116,50.02023 -0.42564,75.05482 0.23822,12.59819 -0.0897,24.96168 1.1563,37.44467 3.34527,15.48441 14.49274,28.62892 28.13399,36.27122 6.0024,3.30581 12.80665,4.47472 19.4259,5.87819 3.04007,3.59353 7.4172,6.70826 8.50156,11.43805 0.31038,13.58189 -0.14352,27.20014 0.79604,40.75765 0.89752,8.93969 8.7272,15.35304 16.97443,17.56638 7.00898,2.23236 15.01601,0.73495 20.50625,-4.24948 11.92665,-9.98143 22.43834,-21.07843 33.64235,-31.87313 10.60893,-10.3492 21.01832,-20.96779 31.74342,-31.15676 3.51472,-2.33637 7.60575,-3.4344 11.81784,-3.02475 13.36826,-0.18882 27.0133,-0.15639 40.13585,-0.57854 7.94622,0.0204 16.37276,-2.25337 23.2062,-6.73789 14.97705,-8.53506 25.08673,-25.1505 25.10161,-42.4661 0.42218,-35.38796 0.45809,-70.78574 -0.033,-106.17298 -0.37658,-12.96511 -6.51881,-25.52705 -15.83875,-34.426522 -6.95838,-5.948773 -15.2978,-10.501545 -24.18088,-12.772847 -7.08213,-1.11108 -14.30767,-0.483426 -21.40252,-0.786094 -31.36348,-0.280769 -62.72883,-0.339705 -94.09342,-0.319257 z m 82.86317,35.73934 c 5.83678,0.39895 12.36518,-1.06787 17.57509,2.24405 6.30256,3.70643 6.72318,13.77749 0.72119,17.97843 -4.93241,3.88915 -11.6726,2.47468 -17.50361,2.94425 -45.25867,0.36288 -90.51965,0.92269 -135.78008,0.74801 -5.08199,0.0339 -10.92981,-0.009 -14.41596,-4.36765 -4.30578,-5.08167 -2.73456,-13.64027 3.19335,-16.73872 5.37227,-2.71956 11.67334,-1.44673 17.4708,-1.91407 42.91173,-0.42177 85.82592,-0.69465 128.73922,-0.8943 z m 7.4454,32.02761 c 5.03021,-0.27839 11.01462,0.27407 13.93342,4.98864 4.70206,5.90649 1.02194,15.6767 -6.26148,17.35647 -8.14873,1.44662 -16.51986,0.82242 -24.76249,1.20828 -42.40372,0.55192 -84.80717,1.25085 -127.21146,1.68888 -5.9561,0.55442 -12.45895,-3.34428 -13.17794,-9.59107 -1.63311,-7.19618 5.13669,-14.19381 12.32685,-13.61151 48.31411,-0.61364 96.78747,-1.40567 145.1531,-2.03969 z m -157.65571,12.69184 c 0.0198,-0.54341 0.14638,-1.01907 0,0 z m 173.66545,-0.30694 c -0.11493,0.98024 0.0334,-0.38563 0,0 z m -173.69387,0.56273 c -0.001,-0.08 0.0526,-0.39231 0,0 z m 173.63135,0.0154 c -0.10425,0.78161 0.0448,-0.56411 0,0 z m -17.35851,16.54323 c 5.35868,-0.25608 11.87849,0.31944 14.7917,5.55637 4.21141,5.92288 0.52147,15.0817 -6.48882,16.7457 -8.10651,1.4635 -16.44124,0.80699 -24.64457,1.17696 -41.4315,0.48269 -82.86105,0.9915 -124.26402,1.36905 -5.34639,0.39592 -11.34056,-1.75208 -13.46626,-7.04111 -2.98923,-6.3246 1.47781,-14.45145 8.36673,-15.47891 10.71547,-1.17176 21.5507,-0.69966 32.31638,-1.03556 37.81283,-0.42824 75.58696,-0.84883 113.38886,-1.2925 z m -80.10962,35.75559 c 5.25797,-0.30599 11.55643,0.57052 14.33538,5.67701 4.15826,6.06577 0.24202,15.22161 -6.86401,16.77203 -7.88111,1.34508 -15.96519,0.66626 -23.92824,1.05807 -14.89799,0.10987 -29.81344,0.83208 -44.70432,0.24603 -7.20017,-0.16516 -12.99125,-8.21956 -10.11153,-14.98435 1.6861,-5.57622 7.81478,-8.07887 13.24757,-7.8013 19.33609,-0.52228 38.68339,-0.74444 58.02515,-0.96749 z"
       id="path37"
       transform="matrix(7.5,0,0,-7.5,0,5120)" />
    <path
       style="fill:#808080;fill-opacity:1;fill-rule:evenodd;stroke:#808080;stroke-width:415.75;stroke-dasharray:none;stroke-opacity:1"
       d="m 3002.7771,3980.3166 c -1.3074,1.5704 -39.6446,-2.2267 -40.5359,-3.1181 -0.3675,-0.3675 0.3675,-1.1916 0,-1.559 -1.0578,-1.0579 -4.8095,0.7133 -6.2363,0 -1.5641,-0.7821 -3.4046,-1.8455 -4.6773,-3.1182"
       id="path38" />
    <path
       style="fill:#808080;fill-opacity:1;fill-rule:evenodd;stroke:#808080;stroke-width:415.75;stroke-dasharray:none;stroke-opacity:1"
       d="m 2937.2959,3991.2302 c 4.928,-10.4386 5.7511,-21.9304 9.3545,-32.7406"
       id="path39" />
    <path
       style="fill:#808080;fill-opacity:1;fill-rule:evenodd;stroke:#808080;stroke-width:415.75;stroke-dasharray:none;stroke-opacity:1"
       d="m 2926.3825,4013.0572 c 1.4525,-14.5256 1.7944,-20.7242 4.6772,-35.8587 3.2442,-17.0319 3.1181,-7.6953 3.1181,-14.0316"
       id="path40" />
    <path
       style="fill:#808080;fill-opacity:1;fill-rule:evenodd;stroke:#808080;stroke-width:415.75;stroke-dasharray:none;stroke-opacity:1"
       d="m 2977.832,3964.726 c -4.2585,-5.919 -13.9762,-26.5043 -21.8271,-26.5043"
       id="path41" />
    <path
       style="fill:#808080;fill-opacity:1;fill-rule:evenodd;stroke:#808080;stroke-width:415.75;stroke-dasharray:none;stroke-opacity:1"
       d="m 2923.2644,3981.8758 c 6.7559,-8.3151 13.5119,-16.6302 20.2679,-24.9452 3.6379,-3.6379 7.5257,-7.0417 10.9135,-10.9135 0.342,-0.3916 -0.3675,-1.1916 0,-1.5591 0.3675,-0.3675 1.1916,0.3675 1.5591,0 2.2241,-2.2241 4.5288,-8.3524 6.2363,-10.9135"
       id="path42" />
    <path
       style="fill:none;fill-rule:evenodd;stroke:#000000;stroke-width:8.85112px;stroke-linecap:butt;stroke-linejoin:miter;stroke-opacity:1"
       d="m 3072.9808,4245.2201 1042.93,6.5148"
       id="path44"
       inkscape:connector-type="polyline"
       inkscape:connector-curvature="0" />
    <path
       style="fill:none;fill-rule:evenodd;stroke:#000000;stroke-width:7.5px;stroke-linecap:butt;stroke-linejoin:miter;stroke-opacity:1"
       d="m 3069.8173,3994.3483 1060.1705,15.5908"
       id="path45"
       inkscape:connector-type="polyline"
       inkscape:connector-curvature="0" />
    <path
       style="fill:none;fill-rule:evenodd;stroke:#000000;stroke-width:7.5px;stroke-linecap:butt;stroke-linejoin:miter;stroke-opacity:1"
       d="m 3080.7308,3776.0779 1043.0208,12.4727"
       id="path46"
       inkscape:connector-type="polyline"
       inkscape:connector-curvature="0" />
    <path
       style="fill:none;fill-rule:evenodd;stroke:#000000;stroke-width:7.5px;stroke-linecap:butt;stroke-linejoin:miter;stroke-opacity:1"
       d="m 3085.4081,3515.7126 434.9817,3.1181"
       id="path47"
       inkscape:connector-type="polyline"
       inkscape:connector-curvature="0" />
    <path
       style="fill:#808080;fill-opacity:1;fill-rule:evenodd;stroke:#808080;stroke-width:46.0932;stroke-dasharray:none;stroke-opacity:1"
       d="m 210.83557,222.65692 c -17.05981,-0.63372 -32.73332,11.18916 -40.40601,25.85303 -10.97161,20.04651 -4.07685,47.01556 14.44656,60.09778 6.07418,4.54694 12.99959,9.22995 20.97523,8.20827 7.983,-0.37038 16.39949,0.79344 24.07332,-0.93354 15.93583,-6.74414 28.96522,-21.64172 30.86136,-39.13865 0.46446,-9.58872 0.51648,-19.66488 -4.72919,-28.11044 -8.01996,-15.29216 -24.21046,-27.30544 -42.08522,-25.98134 -1.04535,-0.0215 -2.09069,-0.002 -3.13605,0.005 z"
       id="path48"
       transform="matrix(7.5,0,0,-7.5,0,5120)" />
    <path
       style="fill:none;fill-rule:evenodd;stroke:#000000;stroke-width:7.5px;stroke-linecap:butt;stroke-linejoin:miter;stroke-opacity:1"
       d="m 3074.4945,4237.5639 1039.9026,6.2364"
       id="path49"
       inkscape:connector-type="polyline"
       inkscape:connector-curvature="0" />
    <path
       style="fill:none;fill-rule:evenodd;stroke:#000000;stroke-width:7.5px;stroke-linecap:butt;stroke-linejoin:miter;stroke-opacity:1"
       d="m 3071.3764,3989.6711 1060.1705,17.1499"
       id="path50"
       inkscape:connector-type="polyline"
       inkscape:connector-curvature="0" />
    <path
       style="fill:none;fill-rule:evenodd;stroke:#000000;stroke-width:7.5px;stroke-linecap:butt;stroke-linejoin:miter;stroke-opacity:1"
       d="m 3082.2899,3771.4007 1039.9026,15.5908"
       id="path51"
       inkscape:connector-type="polyline"
       inkscape:connector-curvature="0" />
    <path
       style="fill:none;fill-rule:evenodd;stroke:#000000;stroke-width:7.5px;stroke-linecap:butt;stroke-linejoin:miter;stroke-opacity:1"
       d="m 3074.4945,3988.1121 1055.4933,17.1498"
       id="path52"
       inkscape:connector-type="polyline"
       inkscape:connector-curvature="0" />
    <path
       style="display:inline;fill:none;fill-rule:evenodd;stroke:#000000;stroke-width:65.78000003;stroke-linecap:butt;stroke-linejoin:miter;stroke-dasharray:none;stroke-opacity:1"
       d="m 3080.7308,3511.0353 441.2181,6.2363"
       id="path53"
       inkscape:connector-type="polyline"
       inkscape:connector-curvature="0" />
    <path
       style="display:inline;fill:none;fill-rule:evenodd;stroke:#000000;stroke-width:65.78000003;stroke-linecap:butt;stroke-linejoin:miter;stroke-dasharray:none;stroke-opacity:1"
       d="m 3071.3764,4236.0049 1050.8161,4.6772"
       id="path54"
       inkscape:connector-type="polyline"
       inkscape:connector-curvature="0" />
    <path
       style="display:inline;fill:none;fill-rule:evenodd;stroke:#000000;stroke-width:65.78000003;stroke-linecap:butt;stroke-linejoin:miter;stroke-dasharray:none;stroke-opacity:1"
       d="m 3068.2582,3983.4348 1063.2887,17.1498"
       id="path55"
       inkscape:connector-type="polyline"
       inkscape:connector-curvature="0" />
    <path
       style="display:inline;fill:none;fill-rule:evenodd;stroke:#000000;stroke-width:65.78000003;stroke-linecap:butt;stroke-linejoin:miter;stroke-dasharray:none;stroke-opacity:1"
       d="m 3077.6127,3766.7235 1052.3751,20.268"
       id="path56"
       inkscape:connector-type="polyline"
       inkscape:connector-curvature="0" />
  </g>
</svg>
