<?xml version="1.0" encoding="UTF-8" standalone="no"?>
<svg
   version="1.0"
   width="512.000000pt"
   height="512.000000pt"
   viewBox="0 0 512.000000 512.000000"
   preserveAspectRatio="xMidYMid meet"
   id="svg3"
   sodipodi:docname="feedback_up.svg"
   inkscape:version="1.3 (0e150ed6c4, 2023-07-21)"
   xmlns:inkscape="http://www.inkscape.org/namespaces/inkscape"
   xmlns:sodipodi="http://sodipodi.sourceforge.net/DTD/sodipodi-0.dtd"
   xmlns="http://www.w3.org/2000/svg"
   xmlns:svg="http://www.w3.org/2000/svg">
  <defs
     id="defs3">
    <linearGradient
       id="swatch32"
       inkscape:swatch="solid">
      <stop
         style="stop-color:#ffffff;stop-opacity:1;"
         offset="0"
         id="stop32" />
    </linearGradient>
  </defs>
  <sodipodi:namedview
     id="namedview3"
     pagecolor="#ffffff"
     bordercolor="#000000"
     borderopacity="0.25"
     inkscape:showpageshadow="2"
     inkscape:pageopacity="0.0"
     inkscape:pagecheckerboard="true"
     inkscape:deskcolor="#d1d1d1"
     inkscape:document-units="pt"
     inkscape:zoom="4.8105468"
     inkscape:cx="483.83273"
     inkscape:cy="146.44905"
     inkscape:window-width="1920"
     inkscape:window-height="1017"
     inkscape:window-x="-8"
     inkscape:window-y="-8"
     inkscape:window-maximized="1"
     inkscape:current-layer="g3"
     showgrid="false" />
  <g
     transform="translate(0.000000,512.000000) scale(0.100000,-0.100000)"
     fill="#000000"
     stroke="none"
     id="g3"
     style="fill:#00080f;fill-opacity:1">
    <path
       d="M2911 4674 c-161 -43 -291 -178 -336 -349 -12 -49 -15 -134 -15 -476 0 -234 4 -440 10 -470 34 -182 188 -342 365 -379 l55 -11 0 -158 c0 -175 10 -222 60 -283 45 -54 129 -92 204 -92 107 1 130 17 404 288 l249 246 190 0 c220 0 277 12 379 78 97 64 159 147 194 261 19 59 20 94 20 511 0 417 -1 452 -20 511 -20 67 -64 144 -109 193 -42 46 -139 105 -209 126 -61 19 -93 20 -726 19 -545 0 -670 -3 -715 -15z m1387 -324 c18 -11 41 -34 52 -52 19 -32 20 -52 20 -458 0 -406 -1 -426 -20 -458 -11 -18 -34 -41 -52 -52 -31 -18 -51 -20 -278 -20 l-245 0 -230 -230 -230 -230 -5 227 -5 228 -165 5 c-185 6 -200 10 -238 79 -22 38 -22 45 -22 451 l0 413 25 42 c45 78 11 75 725 75 616 0 636 -1 668 -20z"
       id="path1"
       style="fill:#000080;fill-opacity:1" />
    <path
       id="path2"
       style="fill:#000080;fill-opacity:1"
       d="m 1460,3826 c -161,-35 -268,-94 -386,-211 -76,-76 -97,-105 -137,-185 -59,-121 -79,-206 -79,-340 1,-332 209,-611 532,-712 63,-19 96,-23 210,-23 114,0 147,4 210,23 323,101 531,380 532,712 0,134 -20,219 -79,340 -39,80 -61,110 -137,186 -77,77 -106,98 -186,137 -52,26 -122,54 -155,63 -84,22 -245,27 -325,10 z m 314,-344 c 132,-62 224,-183 248,-326 29,-178 -70,-365 -239,-448 -65,-32 -72,-33 -183,-33 -111,0 -118,1 -183,33 -124,61 -213,180 -239,319 -31,168 63,358 221,442 79,42 121,51 223,47 71,-3 98,-9 152,-34 z" />
    <path
       d="M768 2111 c-156 -50 -271 -165 -318 -319 -17 -56 -20 -93 -20 -286 0 -218 1 -222 29 -304 38 -110 82 -181 161 -261 187 -191 474 -285 910 -298 397 -12 700 46 913 174 104 63 211 176 260 275 58 117 67 173 67 419 0 188 -3 225 -20 280 -20 67 -64 144 -109 193 -42 46 -139 105 -209 126 -62 19 -93 20 -836 19 -718 0 -775 -1 -828 -18z m1610 -321 c67 -41 72 -62 72 -285 0 -190 -1 -203 -24 -251 -63 -135 -196 -218 -426 -265 -127 -27 -481 -37 -642 -19 -304 33 -503 134 -579 295 -29 59 -29 62 -29 250 0 212 6 235 72 275 32 19 52 20 778 20 726 0 746 -1 778 -20z"
       id="path3"
       style="fill:#000080;fill-opacity:1" />
    <path
       id="path9"
       style="fill:#000080;fill-opacity:1"
       d="m 1460,3826 c -161,-35 -268,-94 -386,-211 -76,-76 -97,-105 -137,-185 -59,-121 -79,-206 -79,-340 1,-332 209,-611 532,-712 63,-19 96,-23 210,-23 114,0 147,4 210,23 323,101 531,380 532,712 0,134 -20,219 -79,340 -39,80 -61,110 -137,186 -77,77 -106,98 -186,137 -52,26 -122,54 -155,63 -84,22 -245,27 -325,10 z m 314,-344 c 132,-62 224,-183 248,-326 29,-178 -70,-365 -239,-448 -65,-32 -72,-33 -183,-33 -111,0 -118,1 -183,33 -124,61 -213,180 -239,319 -31,168 63,358 221,442 79,42 121,51 223,47 71,-3 98,-9 152,-34 z" />
    <path
       style="fill:#000080;fill-opacity:1;fill-rule:evenodd;stroke:#000080;stroke-width:39.1976;stroke-opacity:1"
       d="m 211.84437,235.51508 c -4.10103,-0.0116 -8.36295,0.10838 -12.00043,2.25711 -8.47229,3.64743 -15.32275,10.63887 -18.89225,19.13373 -4.08251,8.71713 -3.72631,19.16004 0.60947,27.71275 4.11063,9.0296 12.10021,16.14102 21.42069,19.44241 6.92614,0.18991 13.88396,0.33455 20.79864,-0.0735 9.81275,-3.44598 18.0634,-11.1264 22.01774,-20.77122 2.52692,-5.63585 3.06629,-12.00103 2.32362,-18.07745 -1.54563,-8.71481 -6.2427,-16.7952 -13.20392,-22.2898 -4.93599,-3.98447 -10.89364,-7.10486 -17.3725,-7.17155 -1.89707,-0.13406 -3.79961,-0.17592 -5.70106,-0.16249 z"
       id="path10"
       transform="matrix(7.5,0,0,-7.5,0,5120)" />
    <path
       d="m 1601.8359,3499.9707 c -8.5161,0.108 -17.0243,0.09 -25.3271,-0.059 -8.3028,-0.1481 -16.3984,-0.4256 -24.082,-0.835 -7.6836,-0.4093 -14.9479,-0.9502 -21.6065,-1.6259 -6.6585,-0.6757 -12.7021,-1.4845 -17.9297,-2.4317 -6.0988,-1.105 -12.3842,-2.5199 -18.8086,-4.2187 -6.4243,-1.6988 -12.9976,-3.6821 -19.6582,-5.9326 -6.6605,-2.2506 -13.4074,-4.7691 -20.2148,-7.5293 -6.8074,-2.7603 -13.6722,-5.7662 -20.5371,-8.9942 -6.865,-3.2279 -13.7333,-6.6735 -20.5664,-10.3271 -6.8331,-3.6537 -13.6348,-7.5057 -20.3467,-11.543 -6.7119,-4.0373 -13.3327,-8.2626 -19.834,-12.6416 -6.5013,-4.3789 -12.8709,-8.9152 -19.0723,-13.5937 -4.9858,-3.7616 -9.8931,-7.6602 -14.707,-11.6748 -4.8139,-4.0147 -9.5458,-8.1526 -14.1797,-12.4073 -4.6338,-4.2547 -9.1773,-8.6139 -13.623,-13.0957 -4.4457,-4.4818 -8.7877,-9.0736 -13.0371,-13.7695 -4.2495,-4.6959 -8.4062,-9.5024 -12.4512,-14.3994 -4.0451,-4.897 -7.9741,-9.8856 -11.8066,-14.9707 -3.8326,-5.0851 -7.5648,-10.2671 -11.1768,-15.5274 -3.612,-5.2602 -7.105,-10.603 -10.4883,-16.0254 -3.3833,-5.4223 -6.6533,-10.9226 -9.7998,-16.4941 -3.1465,-5.5715 -6.1804,-11.2113 -9.082,-16.9189 -2.9016,-5.7077 -5.6717,-11.4837 -8.3203,-17.3145 -2.6486,-5.8308 -5.1712,-11.725 -7.5586,-17.666 -2.3875,-5.941 -4.6347,-11.9354 -6.753,-17.9736 -2.1182,-6.0383 -4.1063,-12.1149 -5.9472,-18.2374 -1.841,-6.1224 -3.5422,-12.278 -5.0977,-18.4716 -1.5555,-6.1936 -2.9714,-12.425 -4.2334,-18.6768 -1.0457,-5.1806 -1.8621,-9.7438 -2.5195,-14.2969 -0.6574,-4.553 -1.1551,-9.0935 -1.5088,-14.2529 -0.3537,-5.1593 -0.5686,-10.9301 -0.7031,-17.9297 -0.1346,-6.9995 -0.1758,-15.2242 -0.1758,-25.2978 0,-13.3793 0.2134,-24.8935 0.7617,-35.3174 0.2742,-5.212 0.6297,-10.1604 1.084,-14.9268 0.4543,-4.7663 1.0068,-9.3558 1.6699,-13.872 0.6631,-4.5163 1.4285,-8.9564 2.3291,-13.418 0.9006,-4.4616 1.9387,-8.9474 3.1055,-13.5498 2.3337,-9.205 5.2183,-18.883 8.7891,-29.8242 1.9711,-6.0397 4.9,-13.7117 8.3789,-22.1338 3.4788,-8.4221 7.5092,-17.5907 11.6748,-26.6162 4.1655,-9.0255 8.4786,-17.9169 12.5097,-25.7666 4.0311,-7.8498 7.7789,-14.6607 10.8545,-19.5557 3.1713,-5.0473 6.4267,-10.0156 9.7705,-14.8975 3.3439,-4.8818 6.7829,-9.6841 10.2979,-14.3994 3.515,-4.7152 7.111,-9.3391 10.7959,-13.8867 3.6848,-4.5476 7.4553,-9.0099 11.3086,-13.3887 3.8533,-4.3787 7.7862,-8.6817 11.8066,-12.8906 4.0204,-4.2089 8.1332,-8.3254 12.3193,-12.3633 4.1862,-4.0378 8.4522,-7.9849 12.8028,-11.8506 4.3505,-3.8657 8.7872,-7.6454 13.3008,-11.3379 4.5136,-3.6924 9.1089,-7.307 13.7841,-10.8251 4.6753,-3.5182 9.432,-6.9406 14.2676,-10.2832 4.8356,-3.3427 9.7418,-6.6045 14.7364,-9.7706 4.9945,-3.166 10.0675,-6.2401 15.2197,-9.2285 5.1521,-2.9883 10.3801,-5.8916 15.6885,-8.7011 5.3084,-2.8096 10.6939,-5.5296 16.1572,-8.1592 5.4633,-2.6297 11.0091,-5.1686 16.626,-7.6172 5.6168,-2.4487 11.311,-4.8087 17.08,-7.0752 3.3378,-1.3113 6.502,-2.4681 9.6973,-3.501 3.1953,-1.0329 6.4156,-1.9412 9.873,-2.7246 3.4575,-0.7834 7.1554,-1.4441 11.2793,-2.0068 4.124,-0.5628 8.6771,-1.0207 13.8721,-1.3916 5.195,-0.371 11.0248,-0.6562 17.6953,-0.8643 6.6706,-0.2081 14.1839,-0.336 22.7344,-0.4101 17.1011,-0.1483 38.372,-0.068 65.4199,0.1464 l 83.7744,0.6739 17.6514,6.0498 c 8.4718,2.9098 16.7337,6.0053 24.8145,9.2871 8.0808,3.2818 15.9811,6.7567 23.7011,10.4297 7.72,3.6729 15.2571,7.5475 22.6465,11.6308 7.3894,4.0834 14.62,8.3777 21.709,12.8907 7.089,4.5129 14.0406,9.2471 20.8594,14.2089 6.8187,4.9618 13.5042,10.1415 20.083,15.5713 6.5787,5.4299 13.0549,11.1044 19.4238,17.0215 6.3689,5.9171 12.634,12.0774 18.8233,18.501 4.7972,4.9788 9.3804,9.9004 13.7548,14.7803 4.3745,4.8798 8.5418,9.727 12.5391,14.5752 3.9973,4.8481 7.8186,9.6914 11.4844,14.5752 3.6658,4.8837 7.1816,9.8082 10.5615,14.7949 3.3799,4.9867 6.6162,10.0334 9.7559,15.1904 3.1396,5.157 6.1809,10.4258 9.1259,15.8203 2.9451,5.3946 5.8026,10.9119 8.5987,16.6113 2.796,5.6995 5.525,11.5797 8.2177,17.6514 3.1162,7.0265 6.0166,14.044 8.6866,21.0938 2.6699,7.0497 5.109,14.1202 7.3388,21.2255 2.2298,7.1053 4.2395,14.2523 6.0352,21.4454 1.7957,7.193 3.3785,14.4398 4.7461,21.7529 1.3676,7.3131 2.5261,14.6978 3.4717,22.1631 0.9455,7.4653 1.6824,15.0114 2.2119,22.6611 0.5295,7.6498 0.8473,15.3953 0.9668,23.2617 0.1194,7.8665 0.036,15.8495 -0.2491,23.9649 -0.1938,5.5292 -0.5025,11.047 -0.9375,16.5527 -0.4349,5.5057 -0.9959,11.0023 -1.6699,16.4795 -0.674,5.4772 -1.4619,10.9332 -2.373,16.377 -0.9111,5.4437 -1.9446,10.8691 -3.0908,16.2744 -1.1463,5.4052 -2.4146,10.7955 -3.794,16.1572 -1.3793,5.3617 -2.8719,10.6975 -4.4824,16.0107 -1.6105,5.3132 -3.3313,10.6046 -5.1709,15.8643 -1.8396,5.2596 -3.7926,10.4874 -5.8594,15.6885 -2.0667,5.2011 -4.2413,10.3751 -6.5332,15.5127 -2.2919,5.1375 -4.7066,10.2386 -7.2217,15.3076 -2.515,5.069 -5.1446,10.1071 -7.8808,15.1025 -2.7363,4.9954 -5.57,9.9514 -8.5254,14.8682 -2.9554,4.9168 -6.0266,9.7859 -9.1992,14.6191 -3.1727,4.8332 -6.456,9.6256 -9.8438,14.3701 -3.3878,4.7446 -6.8726,9.4555 -10.4736,14.1065 -3.601,4.651 -7.3206,9.2465 -11.1328,13.7988 -3.522,4.2058 -7.1504,8.3548 -10.8838,12.4365 -3.7334,4.0818 -7.5708,8.0934 -11.499,12.0411 -3.9283,3.9476 -7.949,7.8275 -12.0557,11.6308 -4.1067,3.8033 -8.2998,7.5279 -12.5684,11.1768 -4.2685,3.6488 -8.6084,7.2238 -13.0224,10.708 -4.414,3.4842 -8.8897,6.8859 -13.4326,10.1953 -4.543,3.3094 -9.1581,6.5289 -13.8135,9.6533 -4.6554,3.1245 -9.3551,6.1527 -14.1065,9.082 -4.7514,2.9294 -9.5538,5.7574 -14.3847,8.4815 -4.8309,2.724 -9.696,5.3429 -14.5899,7.8516 -4.8939,2.5086 -9.8105,4.9093 -14.751,7.1923 -4.9404,2.283 -9.8976,4.4421 -14.8681,6.4893 -4.9705,2.0472 -9.9574,3.9848 -14.9414,5.7861 -4.9841,1.8013 -9.9749,3.4793 -14.9561,5.0244 -4.9811,1.5452 -9.9504,2.9545 -14.9121,4.2334 -4.9617,1.279 -9.913,2.4253 -14.8389,3.4278 -5.3104,1.0808 -11.4287,2.0404 -18.1494,2.8857 -6.7207,0.8453 -14.0425,1.578 -21.7675,2.1826 -7.7251,0.6047 -15.8465,1.0767 -24.17,1.4356 -8.3235,0.3589 -16.855,0.5952 -25.3711,0.7031 z"
       style="fill:#000080;fill-rule:evenodd;stroke:#000080;stroke-width:39.1976"
       id="path13" />
    <path
       d="m 1599.1113,3515.7324 c -8.883,0.01 -18.1718,-0.1128 -27.9345,-0.3515 -8.2112,-0.2008 -15.9009,-0.49 -23.1592,-0.9082 -7.2583,-0.4183 -14.0917,-0.964 -20.625,-1.6553 -6.5334,-0.6913 -12.7576,-1.5291 -18.794,-2.5488 -6.0363,-1.0198 -11.8841,-2.2145 -17.6513,-3.6182 -5.7673,-1.4037 -11.4565,-3.0202 -17.1827,-4.8633 -5.7261,-1.8431 -11.4893,-3.9169 -17.4023,-6.2549 -5.913,-2.338 -11.9827,-4.9339 -18.3105,-7.8222 -6.3279,-2.8884 -12.9221,-6.0712 -19.8926,-9.5655 -6.5255,-3.2711 -12.7344,-6.503 -18.6914,-9.7265 -5.9571,-3.2236 -11.6548,-6.4376 -17.1387,-9.6826 -5.4839,-3.2451 -10.7582,-6.5228 -15.8643,-9.8584 -5.106,-3.3356 -10.0446,-6.7294 -14.8681,-10.2247 -4.8235,-3.4952 -9.5288,-7.0866 -14.1651,-10.8105 -4.6362,-3.7239 -9.1959,-7.58 -13.7402,-11.6016 -4.5443,-4.0216 -9.0754,-8.2092 -13.623,-12.5976 -4.5477,-4.3884 -9.1232,-8.9746 -13.7696,-13.7989 -4.4712,-4.6423 -8.8255,-9.3531 -13.0664,-14.1357 -4.2409,-4.7826 -8.3692,-9.6419 -12.3779,-14.5605 -4.0087,-4.9187 -7.9003,-9.9058 -11.6748,-14.9561 -3.7745,-5.0503 -7.4334,-10.1592 -10.9717,-15.3369 -3.5383,-5.1777 -6.9537,-10.417 -10.2539,-15.7178 -3.3002,-5.3008 -6.476,-10.6643 -9.5361,-16.084 -3.0602,-5.4196 -6.0002,-10.9014 -8.8184,-16.4355 -2.8182,-5.5342 -5.5117,-11.1281 -8.0859,-16.7725 -2.5742,-5.6444 -5.0253,-11.3297 -7.3535,-17.0801 -2.3283,-5.7503 -4.5408,-11.565 -6.6211,-17.4169 -2.0804,-5.852 -4.0289,-11.746 -5.8594,-17.6954 -1.8305,-5.9493 -3.5482,-11.9458 -5.127,-17.9882 -1.5787,-6.0425 -3.0256,-12.1354 -4.3506,-18.2666 -1.3249,-6.1312 -2.5196,-12.3 -3.5888,-18.5157 -1.0693,-6.2157 -2.0156,-12.4687 -2.8272,-18.7646 -0.8116,-6.2959 -1.4841,-12.6419 -2.0361,-19.0137 -0.46,-5.3102 -0.7912,-10.6622 -0.9814,-16.0693 -0.1903,-5.4072 -0.2509,-10.8596 -0.1758,-16.3477 0.075,-5.488 0.294,-11.0145 0.6299,-16.5674 0.3358,-5.5528 0.7993,-11.1414 1.3916,-16.7431 0.5922,-5.6017 1.3092,-11.2259 2.1533,-16.8604 0.8441,-5.6344 1.8088,-11.2824 2.9004,-16.9336 1.0915,-5.6512 2.313,-11.2963 3.6474,-16.9482 1.3345,-5.6519 2.7777,-11.3117 4.3506,-16.9483 1.5729,-5.6365 3.2761,-11.2551 5.083,-16.8603 1.8069,-5.6052 3.7205,-11.1853 5.7569,-16.7432 2.0364,-5.5578 4.1838,-11.0876 6.4453,-16.582 2.2614,-5.4944 4.6371,-10.962 7.1191,-16.377 2.482,-5.4149 5.0803,-10.7791 7.7783,-16.0986 2.6981,-5.3194 5.4986,-10.5831 8.4082,-15.791 2.9097,-5.2079 5.9213,-10.3591 9.0381,-15.4395 3.1168,-5.0803 6.3339,-10.0925 9.6533,-15.0293 5.7388,-8.5347 11.6368,-16.7681 17.71,-24.6972 6.0732,-7.9291 12.3316,-15.5522 18.7793,-22.9102 6.4477,-7.3579 13.0891,-14.4482 19.9512,-21.2695 6.862,-6.8213 13.9385,-13.383 21.2549,-19.7022 7.3163,-6.3191 14.8651,-12.3857 22.6757,-18.2373 7.8107,-5.8515 15.8837,-11.4858 24.2286,-16.9043 8.3448,-5.4184 16.9647,-10.6247 25.8837,-15.6445 8.9191,-5.0198 18.1378,-9.8463 27.6709,-14.5019 8.7887,-4.2922 16.5663,-7.9241 23.6426,-11.001 7.0764,-3.0769 13.4577,-5.6051 19.4238,-7.6758 5.9661,-2.0707 11.5196,-3.6924 16.9776,-4.9658 5.4579,-1.2735 10.8104,-2.2006 16.3623,-2.8858 2.7561,-0.3402 7.483,-0.6346 13.6963,-0.8935 6.2133,-0.2589 13.9138,-0.4825 22.6025,-0.6592 17.3774,-0.3535 38.7288,-0.5372 60.1172,-0.5566 21.3885,-0.019 42.8207,0.1323 60.3662,0.4541 8.7727,0.1608 16.5708,0.3531 22.9102,0.6006 6.3393,0.2474 11.2115,0.5439 14.1357,0.8789 6.2447,0.7153 12.2396,1.6835 18.2666,3.0175 6.0271,1.3341 12.0949,3.0421 18.5156,5.2002 6.4208,2.1582 13.1845,4.7663 20.6104,7.9541 7.4259,3.1879 15.5084,6.9443 24.5508,11.3672 9.2489,4.524 18.26,9.2899 27.0263,14.2822 8.7664,4.9923 17.2968,10.219 25.5909,15.6885 8.294,5.4695 16.3527,11.1832 24.1845,17.1387 7.8319,5.9555 15.4279,12.153 22.8076,18.6035 7.3798,6.4505 14.5368,13.1434 21.4747,20.0977 6.9378,6.9543 13.6647,14.1687 20.1709,21.6357 6.5061,7.467 12.7972,15.1853 18.8818,23.1738 6.0846,7.9886 11.9635,16.2516 17.6367,24.7705 3.1944,4.7968 6.2878,9.6652 9.2871,14.6192 2.9993,4.954 5.9014,9.9928 8.7012,15.0879 2.7998,5.0951 5.4899,10.2487 8.0859,15.4687 2.596,5.22 5.0975,10.5062 7.4854,15.835 2.3878,5.3288 4.6655,10.7065 6.8408,16.1279 2.1753,5.4215 4.2378,10.879 6.1963,16.377 1.9584,5.4979 3.8145,11.0383 5.5517,16.5967 1.7373,5.5583 3.3664,11.1406 4.878,16.7431 1.5116,5.6026 2.9078,11.2151 4.1894,16.8457 1.2817,5.6306 2.439,11.2764 3.4864,16.919 1.0473,5.6425 1.9891,11.2806 2.7978,16.9189 0.8087,5.6383 1.4851,11.2717 2.0508,16.8897 0.5657,5.6179 1.0147,11.2202 1.333,16.8017 0.3183,5.5815 0.5047,11.1411 0.5713,16.6699 0.067,5.5289 0.014,11.0341 -0.1758,16.4942 -0.1895,5.46 -0.5022,10.8846 -0.9521,16.2597 -0.8795,10.507 -2.1421,20.9283 -3.7647,31.2452 -1.6226,10.3168 -3.6054,20.5197 -5.9473,30.6152 -2.3419,10.0954 -5.0485,20.0841 -8.0859,29.9268 -3.0374,9.8426 -6.413,19.5479 -10.1221,29.1064 -3.709,9.5585 -7.7426,18.9698 -12.0996,28.2129 -4.3569,9.243 -9.0375,18.3206 -14.0185,27.2168 -4.981,8.8962 -10.2684,17.6002 -15.8496,26.1181 -5.5813,8.518 -11.4498,16.8379 -17.6075,24.9463 -6.1576,8.1084 -12.5963,16.0044 -19.3066,23.6719 -6.7103,7.6675 -13.6935,15.1144 -20.9326,22.3096 -7.2391,7.1952 -14.7413,14.1385 -22.4854,20.8301 -7.744,6.6915 -15.7396,13.1354 -23.9648,19.292 -8.2252,6.1565 -16.6739,12.0319 -25.3565,17.622 -8.6825,5.5902 -17.5879,10.8865 -26.7041,15.8789 -9.1161,4.9925 -18.4526,9.6845 -27.9785,14.0479 -9.5258,4.3633 -19.2533,8.3967 -29.165,12.0996 -5.5486,2.0729 -11.1526,3.9859 -16.875,5.7275 -5.7224,1.7417 -11.5517,3.3236 -17.5488,4.7461 -5.9971,1.4225 -12.1577,2.6785 -18.5303,3.794 -6.3726,1.1154 -12.9557,2.0799 -19.8047,2.9004 -6.849,0.8204 -13.9606,1.4986 -21.3867,2.0361 -7.4262,0.5375 -15.1722,0.9345 -23.2764,1.2012 -8.1042,0.2667 -16.5759,0.4022 -25.459,0.4101 z m 2.7246,-15.7617 c 8.5161,-0.1079 17.0476,-0.3442 25.3711,-0.7031 8.3235,-0.3589 16.4449,-0.8309 24.17,-1.4356 7.725,-0.6046 15.0468,-1.3373 21.7675,-2.1826 6.7207,-0.8453 12.839,-1.8049 18.1494,-2.8857 4.9259,-1.0025 9.8772,-2.1488 14.8389,-3.4278 4.9617,-1.2789 9.931,-2.6882 14.9121,-4.2334 4.9812,-1.5451 9.972,-3.2231 14.9561,-5.0244 4.984,-1.8013 9.9709,-3.7389 14.9414,-5.7861 4.9705,-2.0472 9.9277,-4.2063 14.8681,-6.4893 4.9405,-2.283 9.8571,-4.6837 14.751,-7.1923 4.8939,-2.5087 9.759,-5.1276 14.5899,-7.8516 4.8309,-2.7241 9.6333,-5.5521 14.3847,-8.4815 4.7514,-2.9293 9.4511,-5.9575 14.1065,-9.082 4.6554,-3.1244 9.2705,-6.3439 13.8135,-9.6533 4.5429,-3.3094 9.0186,-6.7111 13.4326,-10.1953 4.414,-3.4842 8.7539,-7.0592 13.0224,-10.708 4.2686,-3.6489 8.4617,-7.3735 12.5684,-11.1768 4.1067,-3.8033 8.1274,-7.6832 12.0557,-11.6308 3.9282,-3.9477 7.7656,-7.9593 11.499,-12.0411 3.7334,-4.0817 7.3618,-8.2307 10.8838,-12.4365 3.8122,-4.5523 7.5318,-9.1478 11.1328,-13.7988 3.601,-4.651 7.0858,-9.3619 10.4736,-14.1065 3.3878,-4.7445 6.6711,-9.5369 9.8438,-14.3701 3.1726,-4.8332 6.2438,-9.7023 9.1992,-14.6191 2.9554,-4.9168 5.7891,-9.8728 8.5254,-14.8682 2.7362,-4.9954 5.3658,-10.0335 7.8808,-15.1025 2.5151,-5.069 4.9298,-10.1701 7.2217,-15.3076 2.2919,-5.1376 4.4665,-10.3116 6.5332,-15.5127 2.0668,-5.2011 4.0198,-10.4289 5.8594,-15.6885 1.8396,-5.2597 3.5604,-10.5511 5.1709,-15.8643 1.6105,-5.3132 3.1031,-10.649 4.4824,-16.0107 1.3794,-5.3617 2.6477,-10.752 3.794,-16.1572 1.1462,-5.4053 2.1797,-10.8307 3.0908,-16.2744 0.9111,-5.4438 1.699,-10.8998 2.373,-16.377 0.674,-5.4772 1.235,-10.9738 1.6699,-16.4795 0.435,-5.5057 0.7437,-11.0235 0.9375,-16.5527 0.2846,-8.1154 0.3685,-16.0984 0.2491,-23.9649 -0.1195,-7.8664 -0.4373,-15.6119 -0.9668,-23.2617 -0.5295,-7.6497 -1.2664,-15.1958 -2.2119,-22.6611 -0.9456,-7.4653 -2.1041,-14.85 -3.4717,-22.1631 -1.3676,-7.3131 -2.9504,-14.5599 -4.7461,-21.7529 -1.7957,-7.1931 -3.8054,-14.3401 -6.0352,-21.4454 -2.2298,-7.1053 -4.6689,-14.1758 -7.3388,-21.2255 -2.67,-7.0498 -5.5704,-14.0673 -8.6866,-21.0938 -2.6927,-6.0717 -5.4217,-11.9519 -8.2177,-17.6514 -2.7961,-5.6994 -5.6536,-11.2167 -8.5987,-16.6113 -2.945,-5.3945 -5.9863,-10.6633 -9.1259,-15.8203 -3.1397,-5.157 -6.376,-10.2037 -9.7559,-15.1904 -3.3799,-4.9867 -6.8957,-9.9112 -10.5615,-14.7949 -3.6658,-4.8838 -7.4871,-9.7271 -11.4844,-14.5752 -3.9973,-4.8482 -8.1646,-9.6954 -12.5391,-14.5752 -4.3744,-4.8799 -8.9576,-9.8015 -13.7548,-14.7803 -6.1893,-6.4236 -12.4544,-12.5839 -18.8233,-18.501 -6.3689,-5.9171 -12.8451,-11.5916 -19.4238,-17.0215 -6.5788,-5.4298 -13.2643,-10.6095 -20.083,-15.5713 -6.8188,-4.9618 -13.7704,-9.696 -20.8594,-14.2089 -7.089,-4.513 -14.3196,-8.8073 -21.709,-12.8907 -7.3894,-4.0833 -14.9265,-7.9579 -22.6465,-11.6308 -7.72,-3.673 -15.6203,-7.1479 -23.7011,-10.4297 -8.0808,-3.2818 -16.3427,-6.3773 -24.8145,-9.2871 l -17.6514,-6.0498 -83.7744,-0.6739 c -27.0479,-0.2144 -48.3188,-0.2947 -65.4199,-0.1464 -8.5505,0.074 -16.0638,0.202 -22.7344,0.4101 -6.6705,0.2081 -12.5003,0.4933 -17.6953,0.8643 -5.195,0.3709 -9.7481,0.8288 -13.8721,1.3916 -4.1239,0.5627 -7.8218,1.2234 -11.2793,2.0068 -3.4574,0.7834 -6.6777,1.6917 -9.873,2.7246 -3.1953,1.0329 -6.3595,2.1897 -9.6973,3.501 -5.769,2.2665 -11.4632,4.6265 -17.08,7.0752 -5.6169,2.4486 -11.1627,4.9875 -16.626,7.6172 -5.4633,2.6296 -10.8488,5.3496 -16.1572,8.1592 -5.3084,2.8095 -10.5364,5.7128 -15.6885,8.7011 -5.1522,2.9884 -10.2252,6.0625 -15.2197,9.2285 -4.9946,3.1661 -9.9008,6.4279 -14.7364,9.7706 -4.8356,3.3426 -9.5923,6.765 -14.2676,10.2832 -4.6752,3.5181 -9.2705,7.1327 -13.7841,10.8251 -4.5136,3.6925 -8.9503,7.4722 -13.3008,11.3379 -4.3506,3.8657 -8.6166,7.8128 -12.8028,11.8506 -4.1861,4.0379 -8.2989,8.1544 -12.3193,12.3633 -4.0204,4.2089 -7.9533,8.5119 -11.8066,12.8906 -3.8533,4.3788 -7.6238,8.8411 -11.3086,13.3887 -3.6849,4.5476 -7.2809,9.1715 -10.7959,13.8867 -3.515,4.7153 -6.954,9.5176 -10.2979,14.3994 -3.3438,4.8819 -6.5992,9.8502 -9.7705,14.8975 -3.0756,4.895 -6.8234,11.7059 -10.8545,19.5557 -4.0311,7.8497 -8.3442,16.7411 -12.5097,25.7666 -4.1656,9.0255 -8.196,18.1941 -11.6748,26.6162 -3.4789,8.4221 -6.4078,16.0941 -8.3789,22.1338 -3.5708,10.9412 -6.4554,20.6192 -8.7891,29.8242 -1.1668,4.6024 -2.2049,9.0882 -3.1055,13.5498 -0.9006,4.4616 -1.666,8.9017 -2.3291,13.418 -0.6631,4.5162 -1.2156,9.1057 -1.6699,13.872 -0.4543,4.7664 -0.8098,9.7148 -1.084,14.9268 -0.5483,10.4239 -0.7617,21.9381 -0.7617,35.3174 0,10.0736 0.041,18.2983 0.1758,25.2978 0.1345,6.9996 0.3494,12.7704 0.7031,17.9297 0.3537,5.1594 0.8514,9.6999 1.5088,14.2529 0.6574,4.5531 1.4738,9.1163 2.5195,14.2969 1.262,6.2518 2.6779,12.4832 4.2334,18.6768 1.5555,6.1936 3.2567,12.3492 5.0977,18.4716 1.8409,6.1225 3.829,12.1991 5.9472,18.2374 2.1183,6.0382 4.3655,12.0326 6.753,17.9736 2.3874,5.941 4.91,11.8352 7.5586,17.666 2.6486,5.8308 5.4187,11.6068 8.3203,17.3145 2.9016,5.7076 5.9355,11.3474 9.082,16.9189 3.1465,5.5715 6.4165,11.0718 9.7998,16.4941 3.3833,5.4224 6.8763,10.7652 10.4883,16.0254 3.612,5.2603 7.3442,10.4423 11.1768,15.5274 3.8325,5.0851 7.7615,10.0737 11.8066,14.9707 4.045,4.897 8.2017,9.7035 12.4512,14.3994 4.2494,4.6959 8.5914,9.2877 13.0371,13.7695 4.4457,4.4818 8.9892,8.841 13.623,13.0957 4.6339,4.2547 9.3658,8.3926 14.1797,12.4073 4.8139,4.0146 9.7212,7.9132 14.707,11.6748 6.2014,4.6785 12.571,9.2148 19.0723,13.5937 6.5013,4.379 13.1221,8.6043 19.834,12.6416 6.7119,4.0373 13.5136,7.8893 20.3467,11.543 6.8331,3.6536 13.7014,7.0992 20.5664,10.3271 6.8649,3.228 13.7297,6.2339 20.5371,8.9942 6.8074,2.7602 13.5543,5.2787 20.2148,7.5293 6.6606,2.2505 13.2339,4.2338 19.6582,5.9326 6.4244,1.6988 12.7098,3.1137 18.8086,4.2187 5.2276,0.9472 11.2712,1.756 17.9297,2.4317 6.6586,0.6757 13.9229,1.2166 21.6065,1.6259 7.6836,0.4094 15.7792,0.6869 24.082,0.835 8.3028,0.1481 16.811,0.1666 25.3271,0.059 z"
       style="fill:#000080;fill-rule:evenodd;stroke:#000080;stroke-width:39.1976"
       id="path12" />
    <path
       d="M2911 4674 c-161 -43 -291 -178 -336 -349 -12 -49 -15 -134 -15 -476 0 -234 4 -440 10 -470 34 -182 188 -342 365 -379 l55 -11 0 -158 c0 -175 10 -222 60 -283 45 -54 129 -92 204 -92 107 1 130 17 404 288 l249 246 190 0 c220 0 277 12 379 78 97 64 159 147 194 261 19 59 20 94 20 511 0 417 -1 452 -20 511 -20 67 -64 144 -109 193 -42 46 -139 105 -209 126 -61 19 -93 20 -726 19 -545 0 -670 -3 -715 -15z m1387 -324 c18 -11 41 -34 52 -52 19 -32 20 -52 20 -458 0 -406 -1 -426 -20 -458 -11 -18 -34 -41 -52 -52 -31 -18 -51 -20 -278 -20 l-245 0 -230 -230 -230 -230 -5 227 -5 228 -165 5 c-185 6 -200 10 -238 79 -22 38 -22 45 -22 451 l0 413 25 42 c45 78 11 75 725 75 616 0 636 -1 668 -20z"
       id="path14"
       style="fill:#000080;fill-opacity:1" />
    <path
       style="fill:#000080;fill-opacity:1;fill-rule:evenodd;stroke:#000080;stroke-width:39.1976;stroke-opacity:1"
       d="m 442.00623,300.37598 c 0.01,-3.6111 -1.21933,-57.85915 -1.31762,-58.16392 -0.0695,-0.21558 -2.48357,-0.38911 -7.25954,-0.52185 -3.93545,-0.10938 -10.92568,-0.32919 -15.53384,-0.48846 -22.96561,-0.79376 -25.65666,-1.60957 -30.13037,-9.13423 -1.90743,-3.20825 -2.67379,-5.55396 -3.1113,-9.52324 -0.26044,-2.36286 -0.39046,-17.17906 -0.48277,-55.01241 l -0.12634,-51.7786 2.7178,-4.66591 c 1.49479,-2.56626 3.04095,-5.0628 3.43591,-5.54787 2.51091,-3.08375 6.67233,-4.11767 19.75956,-4.90933 8.99522,-0.54413 143.29114,-0.55324 151.69464,-0.0103 6.18023,0.39931 8.98789,0.86489 10.77267,1.78638 2.50176,1.29168 6.57801,5.42269 7.87811,7.98394 1.93705,3.81608 1.97599,4.80164 2.13124,53.94568 0.17299,54.76483 -0.0578,62.52933 -1.97097,66.31134 -1.5086,2.9822 -5.49308,6.98087 -8.44192,8.47195 -3.61223,1.82654 -8.89527,2.0869 -42.41368,2.0903 l -26.31191,0.003 -30.42606,30.42713 c -16.73434,16.73492 -30.52552,30.42712 -30.64708,30.42712 -0.12156,0 -0.219,-0.76068 -0.21653,-1.69039 z"
       id="path15"
       transform="matrix(7.5,0,0,-7.5,0,5120)" />
    <path
       style="fill:#ffffff;fill-rule:evenodd;stroke:#ffffff;stroke-width:7.5px;stroke-linecap:butt;stroke-linejoin:miter;stroke-opacity:1"
       d="m 3002.7771,4243.8003 1141.2424,6.2362"
       id="path24"
       inkscape:connector-type="polyline"
       inkscape:connector-curvature="0" />
    <path
       style="fill:none;fill-rule:evenodd;stroke:#ffffff;stroke-width:7.5px;stroke-linecap:butt;stroke-linejoin:miter;stroke-opacity:1"
       d="m 3015.2497,3994.3483 1135.0061,15.5908"
       id="path25"
       inkscape:connector-type="polyline"
       inkscape:connector-curvature="0" />
    <path
       style="fill:#ffffff;fill-rule:evenodd;stroke:#ffffff;stroke-width:7.5px;stroke-linecap:butt;stroke-linejoin:miter;stroke-opacity:1"
       d="m 3024.6041,3776.0779 1119.4154,12.4727"
       id="path26"
       inkscape:connector-type="polyline"
       inkscape:connector-curvature="0" />
    <path
       style="fill:none;fill-rule:evenodd;stroke:#ffffff;stroke-width:7.5px;stroke-linecap:butt;stroke-linejoin:miter;stroke-opacity:1"
       d="m 3046.4311,3514.1535 492.6676,6.2363"
       id="path27"
       inkscape:connector-type="polyline"
       inkscape:connector-curvature="0" />
    <path
       style="fill:#ffffff;fill-opacity:1;fill-rule:evenodd;stroke:#000080;stroke-width:55.4338;stroke-opacity:1"
       d="m 189.58343,553.93678 c -17.6353,-1.05676 -36.88463,-4.97322 -50.09825,-10.19297 -17.67961,-6.98394 -29.78081,-17.38465 -36.22373,-31.1335 -2.98127,-6.36186 -3.03692,-6.91783 -3.03669,-30.33666 2.2e-4,-21.26986 0.2148,-24.98189 1.70638,-29.51847 0.37591,-1.14332 1.15688,-2.79606 1.73547,-3.67274 1.24276,-1.88303 5.47073,-5.01022 7.96237,-5.88932 3.8222,-1.34855 11.97285,-1.51836 83.15137,-1.73233 70.40453,-0.21164 112.50181,0.19128 117.84394,1.12791 4.64921,0.81514 9.76431,4.58381 11.47718,8.4561 1.87354,4.2355 2.11573,7.15777 2.34701,28.31858 0.29965,27.41651 -0.005,30.25335 -4.0994,38.12254 -3.71848,7.14737 -9.99925,14.01942 -17.17764,18.79474 -8.10022,5.38856 -20.34291,10.24855 -33.50004,13.29856 -10.29185,2.3858 -20.69286,3.55212 -39.26539,4.40307 -10.60911,0.48608 -34.37284,0.46083 -42.82258,-0.0455 z"
       id="path28"
       transform="matrix(7.5,0,0,-7.5,0,5120)" />
    <path
       style="fill:#ffffff;fill-opacity:1;fill-rule:evenodd;stroke:#000080;stroke-width:55.4338;stroke-opacity:1"
       d="m 192.90946,526.27115 c -13.2045,-0.65102 -29.86663,-3.7013 -40.50084,-7.41434 -11.18124,-3.90404 -19.53983,-9.84795 -23.07621,-16.4098 l -1.21409,-2.25277 -0.0332,-15.0566 c -0.0182,-8.28113 0.0936,-15.18404 0.24861,-15.3398 0.42221,-0.42432 137.93075,-0.71807 155.20989,-0.33157 l 14.96711,0.33479 v 16.63012 16.63013 l -1.22056,2.20322 c -1.93205,3.4875 -6.45102,7.47013 -11.27032,9.93267 -16.49483,8.42846 -37.18527,11.4889 -76.22943,11.27555 -7.91256,-0.0432 -15.509,-0.13396 -16.88099,-0.2016 z"
       id="path29"
       transform="matrix(7.5,0,0,-7.5,0,5120)" />
    <path
       style="fill:#ffffff;fill-opacity:1;fill-rule:evenodd;stroke:#000080;stroke-width:55.4338;stroke-opacity:1"
       d="m 191.27903,498.31067 c -1.74959,-0.14494 -2.94479,-0.44213 -3.04885,-0.75809 -0.13583,-0.41239 5.60902,-0.51708 27.82287,-0.50705 16.1889,0.007 27.73106,0.16596 27.37042,0.37621 -1.67145,0.97443 -42.67476,1.67343 -52.14444,0.88893 z"
       id="path30"
       transform="matrix(7.5,0,0,-7.5,0,5120)" />
    <path
       style="fill:#ffffff;fill-rule:evenodd;stroke:#ffffff;stroke-width:7.5px;stroke-linecap:butt;stroke-linejoin:miter;stroke-opacity:1"
       d="m 3012.1316,4237.5639 1138.1243,6.2363"
       id="path4"
       inkscape:connector-type="polyline"
       inkscape:connector-curvature="0" />
    <path
       style="fill:none;fill-rule:evenodd;stroke:#ffffff;stroke-width:7.5px;stroke-linecap:butt;stroke-linejoin:miter;stroke-opacity:1"
       d="m 3021.4861,3991.2302 1135.006,15.5907"
       id="path5"
       inkscape:connector-type="polyline"
       inkscape:connector-curvature="0" />
    <path
       style="fill:none;fill-rule:evenodd;stroke:#ffffff;stroke-width:7.5px;stroke-linecap:butt;stroke-linejoin:miter;stroke-opacity:1"
       d="m 3027.7223,3772.9598 1116.2972,9.3545"
       id="path6"
       inkscape:connector-type="polyline"
       inkscape:connector-curvature="0" />
    <path
       style="fill:none;fill-rule:evenodd;stroke:#ffffff;stroke-width:7.5px;stroke-linecap:butt;stroke-linejoin:miter;stroke-opacity:1"
       d="m 3047.9903,3507.9172 487.9903,4.6772"
       id="path7"
       inkscape:connector-type="polyline"
       inkscape:connector-curvature="0" />
    <path
       style="fill:none;fill-rule:evenodd;stroke:#ffffff;stroke-width:7.5px;stroke-linecap:butt;stroke-linejoin:miter;stroke-opacity:1"
       d="m 3002.7772,4231.3276 1149.0377,6.2363"
       id="path8"
       inkscape:connector-type="polyline"
       inkscape:connector-curvature="0" />
    <path
       style="fill:none;fill-rule:evenodd;stroke:#ffffff;stroke-width:7.5px;stroke-linecap:butt;stroke-linejoin:miter;stroke-opacity:1"
       d="m 3016.8088,3984.9939 1141.2424,15.5907"
       id="path11"
       inkscape:connector-type="polyline"
       inkscape:connector-curvature="0" />
    <path
       style="fill:none;fill-rule:evenodd;stroke:#ffffff;stroke-width:78.7464567;stroke-linecap:butt;stroke-linejoin:miter;stroke-opacity:1;stroke-dasharray:none"
       d="m 3024.6042,3768.2826 1120.9744,9.3544"
       id="path16"
       inkscape:connector-type="polyline"
       inkscape:connector-curvature="0" />
    <path
       style="fill:none;fill-rule:evenodd;stroke:#ffffff;stroke-width:7.5px;stroke-linecap:butt;stroke-linejoin:miter;stroke-opacity:1"
       d="m 3046.4312,3503.2399 492.6675,4.6773"
       id="path17"
       inkscape:connector-type="polyline"
       inkscape:connector-curvature="0" />
    <path
       style="fill:none;fill-rule:evenodd;stroke:#ffffff;stroke-width:78.7464567;stroke-linecap:butt;stroke-linejoin:miter;stroke-opacity:1;stroke-dasharray:none"
       d="m 3046.4312,3511.0353 492.6675,1.5591"
       id="path18"
       inkscape:connector-type="polyline"
       inkscape:connector-curvature="0" />
    <path
       style="fill:none;fill-rule:evenodd;stroke:#ffffff;stroke-width:7.5px;stroke-linecap:butt;stroke-linejoin:miter;stroke-opacity:1"
       d="m 3002.7772,4239.123 1144.3605,9.3544"
       id="path19"
       inkscape:connector-type="polyline"
       inkscape:connector-curvature="0" />
    <path
       style="fill:none;fill-rule:evenodd;stroke:#ffffff;stroke-width:7.5px;stroke-linecap:butt;stroke-linejoin:miter;stroke-opacity:1"
       d="m 3016.8088,3991.2302 1138.1243,18.7089"
       id="path20"
       inkscape:connector-type="polyline"
       inkscape:connector-curvature="0" />
    <path
       style="fill:none;fill-rule:evenodd;stroke:#ffffff;stroke-width:7.5px;stroke-linecap:butt;stroke-linejoin:miter;stroke-opacity:1"
       d="m 3004.3362,4237.5639 h 49.8904"
       id="path21"
       inkscape:connector-type="polyline"
       inkscape:connector-curvature="0" />
    <path
       style="fill:#ffffff;fill-rule:evenodd;stroke:#ffffff;stroke-width:7.5px;stroke-linecap:butt;stroke-linejoin:miter;stroke-opacity:1"
       d="m 3005.8953,4223.5323 1145.9196,6.2362"
       id="path22"
       inkscape:connector-type="polyline"
       inkscape:connector-curvature="0" />
    <path
       id="path23"
       style="fill:none;fill-rule:evenodd;stroke:#ffffff;stroke-width:7.5px;stroke-linecap:butt;stroke-linejoin:miter;stroke-opacity:1"
       d="m 3019.927,3975.6394 1139.6833,15.5908" />
    <path
       id="path31"
       style="fill:none;fill-rule:evenodd;stroke:#ffffff;stroke-width:78.7394;stroke-linecap:butt;stroke-linejoin:miter;stroke-dasharray:none;stroke-opacity:1"
       d="m 3002.7664,4229.7692 1156.8547,4.6758" />
    <path
       style="fill:none;fill-rule:evenodd;stroke:#ffffff;stroke-width:78.7464567;stroke-linecap:butt;stroke-linejoin:miter;stroke-dasharray:none;stroke-opacity:1"
       d="m 3010.5546,3980.3204 1156.8689,15.5832"
       id="path32"
       inkscape:connector-type="polyline"
       inkscape:connector-curvature="0" />
  </g>
</svg>
