<?xml version="1.0" encoding="UTF-8" standalone="no"?>
<svg
   version="1.1"
   id="Layer_1"
   x="0px"
   y="0px"
   width="100%"
   viewBox="0 0 512 512"
   enable-background="new 0 0 512 512"
   xml:space="preserve"
   sodipodi:docname="flashcard.svg"
   inkscape:version="1.4 (86a8ad7, 2024-10-11)"
   xmlns:inkscape="http://www.inkscape.org/namespaces/inkscape"
   xmlns:sodipodi="http://sodipodi.sourceforge.net/DTD/sodipodi-0.dtd"
   xmlns="http://www.w3.org/2000/svg"
   xmlns:svg="http://www.w3.org/2000/svg"><defs
   id="defs6" /><sodipodi:namedview
   id="namedview6"
   pagecolor="#ffffff"
   bordercolor="#000000"
   borderopacity="0.25"
   inkscape:showpageshadow="2"
   inkscape:pageopacity="0.0"
   inkscape:pagecheckerboard="true"
   inkscape:deskcolor="#d1d1d1"
   inkscape:zoom="1.5917969"
   inkscape:cx="313.4822"
   inkscape:cy="256"
   inkscape:window-width="1920"
   inkscape:window-height="1017"
   inkscape:window-x="-8"
   inkscape:window-y="-8"
   inkscape:window-maximized="1"
   inkscape:current-layer="Layer_1" />

<path
   fill="none"
   opacity="1.000000"
   stroke="none"
   d=" M257.000000,513.000000   C171.704056,513.000000 86.408104,513.000000 1.056076,513.000000   C1.056076,342.445496 1.056076,171.890976 1.056076,1.000000   C75.021675,1.000000 149.043854,1.000000 223.710403,1.380571   C224.010574,2.105533 223.720871,2.658177 223.314377,2.764560   C198.342514,9.299901 173.337585,15.709924 148.386475,22.323095   C116.359245,30.811760 84.417870,39.627270 52.354198,47.974258   C35.052517,52.478321 25.410076,68.139648 29.897905,85.732224   C32.845547,97.287178 35.934937,108.805969 38.958355,120.341599   C48.069427,155.104202 57.121700,189.882355 66.305801,224.625641   C75.487251,259.358978 84.709114,294.082275 94.118851,328.754150   C96.493454,337.503815 97.620384,346.799011 103.970032,354.099579   C106.207108,356.671661 108.671928,359.477814 109.659767,362.610077   C111.454475,368.300751 114.350464,372.953522 118.553154,377.112183   C159.958649,418.084137 201.255768,459.165649 242.710632,500.087433   C246.888870,504.211945 251.919327,507.469330 256.495667,511.201019   C256.890320,511.522858 256.842346,512.387512 257.000000,513.000000  z"
   id="path2" />
<path
   fill="#1B75B9"
   opacity="1.000000"
   stroke="none"
   d=" M257.468567,513.000000   C256.842346,512.387512 256.890320,511.522858 256.495667,511.201019   C251.919327,507.469330 246.888870,504.211945 242.710632,500.087433   C201.255768,459.165649 159.958649,418.084137 118.553154,377.112183   C114.350464,372.953522 111.454475,368.300751 109.659767,362.610077   C108.671928,359.477814 106.207108,356.671661 103.970032,354.099579   C97.620384,346.799011 96.493454,337.503815 94.118851,328.754150   C84.709114,294.082275 75.487251,259.358978 66.305801,224.625641   C57.121700,189.882355 48.069427,155.104202 38.958355,120.341599   C35.934937,108.805969 32.845547,97.287178 29.897905,85.732224   C25.410076,68.139648 35.052517,52.478321 52.354198,47.974258   C84.417870,39.627270 116.359245,30.811760 148.386475,22.323095   C173.337585,15.709924 198.342514,9.299901 223.314377,2.764560   C223.720871,2.658177 224.010574,2.105533 224.177383,1.380571   C231.354248,1.000000 238.708496,1.000000 246.531372,1.000000   C247.038742,1.497348 246.924057,2.348731 247.138153,2.441516   C261.638611,8.725951 265.680420,21.825699 268.985657,35.531990   C271.857361,47.440468 274.898315,59.314201 278.235962,71.098061   C278.770294,72.984497 280.996063,75.256546 282.872345,75.770058   C317.980133,85.378525 353.164581,94.706207 388.307953,104.185387   C405.377411,108.789497 414.656860,125.139931 410.128235,142.548447   C406.015839,158.356949 401.653534,174.101456 397.696075,189.947769   C397.262054,191.685608 398.171234,194.495270 399.467194,195.819931   C424.722137,221.634354 450.100647,247.328217 475.512512,272.988739   C488.927460,286.534912 489.042725,305.454285 475.627106,318.871918   C414.148773,380.359131 352.694275,441.870331 291.101562,503.242798   C287.452393,506.878967 282.671692,509.379578 278.708771,512.704285   C271.979034,513.000000 264.958099,513.000000 257.468567,513.000000  M309.260925,244.199600   C290.181610,172.320999 271.134796,100.433746 251.988373,28.573030   C249.074341,17.636049 240.755707,12.994512 229.797852,15.896132   C172.545303,31.056511 115.301414,46.249729 58.064339,61.468445   C45.128571,64.907921 40.917080,72.409058 44.371620,85.391701   C66.488525,168.510117 88.802231,251.577438 110.442398,334.819855   C113.191582,345.395020 122.859764,351.947845 134.568283,348.591858   C163.347031,340.343079 192.404541,333.067139 221.347916,325.392303   C249.326782,317.973206 277.310333,310.571564 305.277222,303.107483   C317.332520,299.890076 321.944672,291.822968 318.754974,279.706482   C315.705505,268.122589 312.599091,256.553711 309.260925,244.199600  M347.478546,319.999481   C347.823547,318.714081 348.166962,317.428223 348.513824,316.143311   C364.257568,257.821136 379.849762,199.457275 395.872345,141.211807   C399.122772,129.395706 392.381653,120.017639 382.573578,117.530022   C351.125824,109.553978 319.911560,100.657959 288.599396,92.145493   C286.970184,91.702576 285.269043,91.524254 282.968292,91.108292   C283.640472,93.807236 284.055176,95.570663 284.519196,97.321014   C300.424164,157.318436 316.368073,217.305618 332.164917,277.331482   C333.203064,281.276428 333.924194,285.617126 333.420288,289.600128   C331.485321,304.894562 321.851074,313.167297 307.440399,316.959900   C256.748016,330.301147 206.085922,343.757385 155.418121,357.191864   C152.041214,358.087250 148.712555,359.164612 144.028122,360.552338   C146.902115,361.429932 148.304352,361.897247 149.727829,362.286957   C171.879044,368.350616 194.030518,374.413300 216.186890,380.458130   C246.527817,388.735931 276.855804,397.062042 307.226349,405.229919   C316.714233,407.781586 325.001587,403.140472 327.479095,394.049286   C334.129883,369.643829 340.653778,345.203827 347.478546,319.999481  M419.007690,354.507690   C434.555664,338.957733 450.139221,323.443146 465.636292,307.842651   C473.158051,300.270660 473.174377,291.665009 465.726959,284.103607   C442.231720,260.248688 418.691284,236.438278 395.152557,212.626266   C394.180145,211.642563 393.048523,210.816269 391.653168,209.629196   C389.989044,215.679535 388.478485,221.076355 387.020416,226.487320   C371.677643,283.425507 356.200287,340.328064 341.086060,397.326874   C335.974854,416.602386 317.093658,422.216278 304.371979,418.759644   C252.898361,404.773743 201.455917,390.673187 150.000412,376.620605   C145.378922,375.358490 140.746094,374.137848 136.118530,372.897949   C135.791290,373.406372 135.464035,373.914795 135.136795,374.423218   C136.489456,375.385498 138.007858,376.180725 139.170761,377.334320   C177.607483,415.462769 216.011749,453.623932 254.416794,491.784302   C264.285400,501.590088 271.910583,501.601410 281.747101,491.766327   C327.337067,446.183228 372.921356,400.594421 419.007690,354.507690  z"
   id="path3"
   style="fill:#0000f0;fill-opacity:1" />



</svg>
