<?xml version="1.0" encoding="UTF-8" standalone="no"?>
<!-- Generator: Adobe Illustrator 14.0.0, SVG Export Plug-In  -->

<svg
   version="1.1"
   x="0px"
   y="0px"
   width="80px"
   height="80px"
   viewBox="6130.942 3417.547 80 80"
   enable-background="new 6130.942 3417.547 80 80"
   xml:space="preserve"
   id="svg270"
   sodipodi:docname="flip.svg"
   inkscape:version="1.2.2 (732a01da63, 2022-12-09)"
   xmlns:inkscape="http://www.inkscape.org/namespaces/inkscape"
   xmlns:sodipodi="http://sodipodi.sourceforge.net/DTD/sodipodi-0.dtd"
   xmlns="http://www.w3.org/2000/svg"
   xmlns:svg="http://www.w3.org/2000/svg"><sodipodi:namedview
   id="namedview272"
   pagecolor="#ffffff"
   bordercolor="#000000"
   borderopacity="0.25"
   inkscape:showpageshadow="2"
   inkscape:pageopacity="0.0"
   inkscape:pagecheckerboard="true"
   inkscape:deskcolor="#d1d1d1"
   showgrid="false"
   inkscape:zoom="10.4625"
   inkscape:cx="35.890084"
   inkscape:cy="40.04779"
   inkscape:window-width="1920"
   inkscape:window-height="1017"
   inkscape:window-x="-8"
   inkscape:window-y="-8"
   inkscape:window-maximized="1"
   inkscape:current-layer="svg270" />
<defs
   id="defs264">
</defs>
<rect
   display="none"
   fill="#171D23"
   width="10796.642"
   height="8336.548"
   id="rect266" />
<path
   d="M6198.618,3426.909h-33.351c-3.402,0-6.174,2.774-6.174,6.175v9.417c-17.379,0.698-22.002,8.757-22.002,12.95  c0,3.455,3.136,12.202,22.002,15.774v10.786c0,3.406,2.771,6.175,6.174,6.175h33.351c3.403,0,6.175-2.769,6.175-6.175v-48.926  C6204.793,3429.684,6202.021,3426.909,6198.618,3426.909z M6151.351,3451.171c0-3.66,4.653-4.708,7.743-5.231v10.236  C6153.859,3455.398,6151.351,3453.92,6151.351,3451.171z M6201.655,3482.01c0,1.679-1.362,3.037-3.037,3.037h-33.351  c-1.675,0-3.036-1.358-3.036-3.037v-10.267c3.644,0.53,7.785,0.887,12.528,0.999v5.424c0,0.863,0.578,1.164,1.285,0.669  l19.336-13.527c0.707-0.494,0.707-1.303,0-1.798l-19.336-13.521c-0.707-0.495-1.285-0.193-1.285,0.669v6.319  c-5.007-0.032-9.167-0.151-12.528-0.443v-23.451c0-1.672,1.361-3.037,3.036-3.037h33.351c1.675,0,3.037,1.365,3.037,3.037V3482.01z"
   id="path268" />
</svg>
