<?xml version="1.0" encoding="UTF-8" standalone="no"?>
<!-- Generator: Adobe Illustrator 14.0.0, SVG Export Plug-In  -->

<svg
   version="1.1"
   x="0px"
   y="0px"
   width="80px"
   height="80px"
   viewBox="6231.442 3417.547 80 80"
   enable-background="new 6231.442 3417.547 80 80"
   xml:space="preserve"
   id="svg18"
   sodipodi:docname="flip-darkmode.svg"
   inkscape:version="1.2.2 (732a01da63, 2022-12-09)"
   xmlns:inkscape="http://www.inkscape.org/namespaces/inkscape"
   xmlns:sodipodi="http://sodipodi.sourceforge.net/DTD/sodipodi-0.dtd"
   xmlns="http://www.w3.org/2000/svg"
   xmlns:svg="http://www.w3.org/2000/svg"><sodipodi:namedview
   id="namedview20"
   pagecolor="#ffffff"
   bordercolor="#000000"
   borderopacity="0.25"
   inkscape:showpageshadow="2"
   inkscape:pageopacity="0.0"
   inkscape:pagecheckerboard="true"
   inkscape:deskcolor="#d1d1d1"
   showgrid="false"
   inkscape:zoom="10.4625"
   inkscape:cx="35.890084"
   inkscape:cy="40.04779"
   inkscape:window-width="1920"
   inkscape:window-height="1017"
   inkscape:window-x="-8"
   inkscape:window-y="-8"
   inkscape:window-maximized="1"
   inkscape:current-layer="svg18" />
<defs
   id="defs12">
</defs>
<rect
   display="none"
   fill="#171D23"
   width="10796.642"
   height="8336.548"
   id="rect14" />
<path
   fill="#FFFFFF"
   d="M6300.118,3428.909h-33.351c-2.302,0-4.174,1.873-4.174,4.175v7.413l-0.052,0.001  c-18.451,0.487-26.751,9.053-26.751,14.979c0,1.642,0.874,14.447,26.803,18.257v8.275c0,2.302,1.872,4.175,4.174,4.175h33.351  c2.302,0,4.175-1.873,4.175-4.175v-48.926C6304.293,3430.782,6302.42,3428.909,6300.118,3428.909z M6254.05,3451.198  c0-1.338,2.758-2.443,8.197-3.284l0.347-0.054v6.663C6257.226,3454.022,6254.05,3453.048,6254.05,3451.198z M6237.791,3455.477  c0-4.257,6.76-12.503,24.804-12.979v3.337h-0.001l0,0c-3.002,0.484-10.544,1.368-10.544,5.363c0,3.353,3.745,4.813,11.608,5.419  c0.207,0.016,0.419,0.031,0.633,0.046c0.527,0.037,1.074,0.07,1.638,0.1c0.333,0.018,0.665,0.036,1.011,0.051  c0.335,0.015,0.68,0.028,1.026,0.042c0.436,0.017,0.883,0.031,1.337,0.045c0.264,0.008,0.521,0.017,0.791,0.023  c0.693,0.018,1.415,0.032,2.151,0.044c0.23,0.003,0.464,0.007,0.698,0.01c0.816,0.011,1.648,0.021,2.516,0.026v-6.319  c0-0.131,0.018-0.245,0.043-0.349c0.007-0.03,0.017-0.057,0.025-0.085c0.024-0.072,0.055-0.136,0.09-0.192  c0.014-0.021,0.025-0.043,0.04-0.062c0.054-0.066,0.113-0.121,0.185-0.157c0.006-0.003,0.015-0.003,0.021-0.007  c0.065-0.03,0.138-0.045,0.215-0.049c0.026-0.001,0.055,0.001,0.082,0.003c0.063,0.004,0.127,0.018,0.194,0.038  c0.029,0.009,0.058,0.016,0.088,0.028c0.097,0.039,0.197,0.089,0.302,0.162l19.336,13.521c0.707,0.494,0.707,1.303,0,1.798  l-19.336,13.526c-0.104,0.073-0.205,0.124-0.303,0.163c-0.029,0.012-0.057,0.019-0.086,0.027c-0.068,0.021-0.135,0.034-0.197,0.038  c-0.027,0.002-0.055,0.004-0.08,0.003c-0.078-0.004-0.15-0.019-0.217-0.049c-0.007-0.003-0.014-0.003-0.021-0.006  c-0.07-0.036-0.13-0.091-0.183-0.157c-0.016-0.019-0.028-0.042-0.042-0.063c-0.035-0.056-0.064-0.119-0.088-0.19  c-0.01-0.028-0.02-0.056-0.027-0.086c-0.024-0.104-0.042-0.218-0.042-0.348v-5.424c-0.91-0.021-1.791-0.055-2.659-0.094  c-0.192-0.009-0.387-0.017-0.577-0.026c-0.777-0.039-1.534-0.084-2.277-0.136c-0.283-0.02-0.562-0.042-0.84-0.063  c-0.518-0.04-1.023-0.084-1.524-0.13c-0.511-0.048-1.013-0.098-1.507-0.152c-0.306-0.033-0.609-0.067-0.909-0.103  c-0.845-0.101-1.667-0.209-2.462-0.327C6241.248,3468.553,6237.791,3459.102,6237.791,3455.477z"
   id="path16" />
</svg>
