<?xml version="1.0" encoding="UTF-8" standalone="no"?>
<!-- Created with Inkscape (http://www.inkscape.org/) -->

<svg
   width="478"
   height="320"
   viewBox="0 0 126.47083 84.666661"
   version="1.1"
   id="svg1"
   inkscape:version="1.3.2 (091e20e, 2023-11-25, custom)"
   sodipodi:docname="gotit_navy.svg"
   xmlns:inkscape="http://www.inkscape.org/namespaces/inkscape"
   xmlns:sodipodi="http://sodipodi.sourceforge.net/DTD/sodipodi-0.dtd"
   xmlns="http://www.w3.org/2000/svg"
   xmlns:svg="http://www.w3.org/2000/svg">
  <sodipodi:namedview
     id="namedview1"
     pagecolor="#ffffff"
     bordercolor="#000000"
     borderopacity="0.25"
     inkscape:showpageshadow="2"
     inkscape:pageopacity="0.0"
     inkscape:pagecheckerboard="true"
     inkscape:deskcolor="#d1d1d1"
     inkscape:document-units="mm"
     inkscape:zoom="1.4627806"
     inkscape:cx="303.53151"
     inkscape:cy="168.51468"
     inkscape:window-width="1920"
     inkscape:window-height="1017"
     inkscape:window-x="-8"
     inkscape:window-y="-8"
     inkscape:window-maximized="1"
     inkscape:current-layer="layer1" />
  <defs
     id="defs1">
    <filter
       color-interpolation-filters="sRGB"
       inkscape:collect="always"
       id="filter3721"
       x="-0.10992937"
       width="1.2198587"
       y="-0.13210191"
       height="1.2642038">
      <feGaussianBlur
         inkscape:collect="always"
         stdDeviation="1.5830058"
         id="feGaussianBlur3723" />
    </filter>
  </defs>
  <g
     inkscape:label="Layer 1"
     inkscape:groupmode="layer"
     id="layer1">
    <g
       id="g3746"
       transform="matrix(3.557577,0,0,2.7443256,-1260.9656,-1396.2633)"
       style="fill:#000080;fill-opacity:1">
      <path
         sodipodi:nodetypes="ccccssccsc"
         d="m 360.87694,531.87833 c -1.4496,3.55536 -4.0544,5.87349 -6.10995,8.68262 2.90852,-2.07384 6.20927,-4.08576 9.04885,-7.30233 m -2.94591,-1.37985 c -3.41784,-2.0992 -5.6521,-5.23895 -5.6521,-8.5986 0,-6.33965 7.63571,-11.47894 17.05483,-11.47894 9.41912,0 17.05483,5.13929 17.05483,11.47894 v 0 c 0,6.33965 -7.63571,11.47894 -17.05483,11.47894 -3.07787,0 -5.96532,-0.54876 -8.45814,-1.50885"
         style="fill:#000080;fill-opacity:1;stroke:none;filter:url(#filter3721)"
         id="path2892-8-3" />
      <path
         sodipodi:nodetypes="ccccssccsc"
         d="m 360.87694,529.87833 c -1.4496,3.55536 -4.0544,5.87349 -6.10995,8.68262 2.90852,-2.07384 6.20927,-4.08576 9.04885,-7.30233 m -2.94591,-1.37985 c -3.41784,-2.0992 -5.6521,-5.23895 -5.6521,-8.5986 0,-6.33965 7.63571,-11.47894 17.05483,-11.47894 9.41913,0 17.05484,5.13929 17.05484,11.47894 v 0 c 0,6.33965 -7.63571,11.47894 -17.05484,11.47894 -3.07787,0 -5.96532,-0.54876 -8.45814,-1.50885"
         style="fill:#000080;fill-opacity:1;stroke:#000080;stroke-width:0.30193;stroke-linecap:round;stroke-linejoin:round;stroke-miterlimit:4;stroke-dasharray:none;stroke-opacity:1"
         id="path2892-8" />
    </g>
    <text
       xml:space="preserve"
       style="font-style:normal;font-variant:normal;font-weight:normal;font-stretch:normal;font-size:14.1111px;font-family:Arial;-inkscape-font-specification:'Arial, Normal';font-variant-ligatures:normal;font-variant-caps:normal;font-variant-numeric:normal;font-variant-east-asian:normal;fill:#ffffff;fill-rule:evenodd;stroke:#ffffff;stroke-width:11.0232"
       x="66.122841"
       y="44.637222"
       id="text2"
       transform="scale(0.81275602,1.2303815)"><tspan
         sodipodi:role="line"
         id="tspan2"
         x="66.122841"
         y="44.637222" /></text>
    <text
       xml:space="preserve"
       style="font-style:normal;font-variant:normal;font-weight:bold;font-stretch:normal;font-size:40.8038px;font-family:Sans;-inkscape-font-specification:'Sans, Bold';font-variant-ligatures:normal;font-variant-caps:normal;font-variant-numeric:normal;font-variant-east-asian:normal;fill:#ffffff;fill-rule:evenodd;stroke:#ffffff;stroke-width:9.586;stroke-opacity:0"
       x="7.1593747"
       y="42.690659"
       id="text1"
       transform="scale(0.85213412,1.1735242)"><tspan
         sodipodi:role="line"
         id="tspan1"
         style="font-style:normal;font-variant:normal;font-weight:bold;font-stretch:normal;font-size:40.8038px;font-family:Sans;-inkscape-font-specification:'Sans, Bold';font-variant-ligatures:normal;font-variant-caps:normal;font-variant-numeric:normal;font-variant-east-asian:normal;stroke-width:9.586"
         x="7.1593747"
         y="42.690659">Got it!</tspan></text>
  </g>
</svg>
