<?xml version="1.0" encoding="utf-8"?>
<!-- Generator: Adobe Illustrator 14.0.0, SVG Export Plug-In  -->
<!DOCTYPE svg PUBLIC "-//W3C//DTD SVG 1.1//EN" "http://www.w3.org/Graphics/SVG/1.1/DTD/svg11.dtd" [
	<!ENTITY ns_flows "http://ns.adobe.com/Flows/1.0/">
]>
<svg version="1.1"
	 xmlns="http://www.w3.org/2000/svg" xmlns:xlink="http://www.w3.org/1999/xlink" xmlns:a="http://ns.adobe.com/AdobeSVGViewerExtensions/3.0/"
	 x="0px" y="0px" width="80px" height="80px" viewBox="5908.141 3417.547 80 80" enable-background="new 5908.141 3417.547 80 80"
	 xml:space="preserve">
<defs>
</defs>
<rect display="none" fill="#171D23" width="10796.642" height="8336.548"/>
<path fill="#666666" d="M5984.15,3455.396c-2.688-4.082-6.462-7.541-10.966-10.256l-4.42,4.422c3.683,2.002,6.838,4.527,9.18,7.484
	c-3.314,4.186-8.232,7.525-14.01,9.703c1.744-2.828,2.769-6.145,2.769-9.703c0-1.656-0.229-3.254-0.642-4.779l-5.387,5.387
	c-0.301,6.217-5.127,11.266-11.256,11.887c-0.215,0.006-0.43,0.01-0.645,0.016l-5.738,5.74c1.236,0.117,2.482,0.209,3.745,0.24
	c0.452,0.033,0.902,0.068,1.362,0.068s0.91-0.035,1.362-0.068c14.805-0.371,27.995-6.742,34.645-16.842l1.086-1.648
	L5984.15,3455.396z"/>
<path fill="#666666" d="M5926.752,3483.1l47.028-47.039l-4.066-4.066l-8.234,8.236c-3.719-0.982-7.664-1.547-11.733-1.668
	c-0.529-0.045-1.062-0.08-1.603-0.08s-1.073,0.035-1.603,0.08c-14.708,0.434-27.794,6.789-34.41,16.834l-1.086,1.65l1.086,1.65
	c3.896,5.914,10.037,10.551,17.429,13.457l-6.876,6.877L5926.752,3483.1z M5946.816,3444.553c0.442-0.012,0.883-0.031,1.327-0.031
	s0.885,0.02,1.326,0.031c2.071,0.219,3.992,0.943,5.641,2.047l-17.414,17.416c-1.338-1.996-2.12-4.393-2.12-6.969
	C5935.576,3450.566,5940.509,3445.219,5946.816,3444.553z M5918.337,3457.047c3.313-4.182,8.229-7.521,14.005-9.699
	c-1.742,2.826-2.766,6.143-2.766,9.699s1.024,6.873,2.769,9.699C5926.568,3464.568,5921.651,3461.23,5918.337,3457.047z"/>
</svg>
