<?xml version="1.0" encoding="UTF-8" standalone="no"?>
<!-- Uploaded to: SVG Repo, www.svgrepo.com, Generator: SVG Repo Mixer Tools -->

<svg
   width="800px"
   height="800px"
   viewBox="0 0 24 24"
   mirror-in-rtl="true"
   version="1.1"
   id="svg4"
   sodipodi:docname="practice.svg"
   inkscape:version="1.4 (86a8ad7, 2024-10-11)"
   xmlns:inkscape="http://www.inkscape.org/namespaces/inkscape"
   xmlns:sodipodi="http://sodipodi.sourceforge.net/DTD/sodipodi-0.dtd"
   xmlns="http://www.w3.org/2000/svg"
   xmlns:svg="http://www.w3.org/2000/svg">
  <defs
     id="defs4" />
  <sodipodi:namedview
     id="namedview4"
     pagecolor="#ffffff"
     bordercolor="#000000"
     borderopacity="0.25"
     inkscape:showpageshadow="2"
     inkscape:pageopacity="0.0"
     inkscape:pagecheckerboard="true"
     inkscape:deskcolor="#d1d1d1"
     inkscape:zoom="1.01875"
     inkscape:cx="400.4908"
     inkscape:cy="400"
     inkscape:window-width="1920"
     inkscape:window-height="1017"
     inkscape:window-x="-8"
     inkscape:window-y="-8"
     inkscape:window-maximized="1"
     inkscape:current-layer="svg4" />
  <circle
     fill="#494c4e"
     cx="6.029448"
     cy="11.528834"
     r="2"
     id="circle1"
     style="fill:#22b573;fill-opacity:1" />
  <path
     fill="#494c4e"
     d="m 20.029448,6.5288344 c 0,0.55 -0.45,1 -1,1 h -8.01 c -0.55,-0.01 -0.99,-0.45 -0.99,-1 0,-0.55 0.44,-0.99 0.99,-1 h 8.01 c 0.55,0 1,0.45 1,1 z"
     id="path2"
     style="fill:#000080;fill-opacity:1" />
  <circle
     fill="#494c4e"
     cx="6.029448"
     cy="17.528835"
     r="2"
     id="circle2"
     style="fill:#22b573;fill-opacity:1" />
  <path
     fill="#494c4e"
     d="m 20.029448,12.528834 c 0,0.55 -0.45,1 -1,1 h -8.01 c -0.55,-0.01 -0.99,-0.45 -0.99,-1 0,-0.55 0.44,-0.99 0.99,-1 h 8.01 c 0.55,0 1,0.45 1,1 z m 0,6 c 0,0.55 -0.45,1 -1,1 h -8.01 c -0.55,-0.01 -0.99,-0.45 -0.99,-1 0,-0.55 0.44,-0.99 0.99,-1 h 8.01 c 0.55,0 1,0.45 1,1 z"
     id="path3"
     style="fill:#000080;fill-opacity:1" />
  <path
     fill="#494c4e"
     d="M 21.477302,1.1484663 H 2.7288344 c -1.0311656,0 -1.87484667,0.8293251 -1.87484667,1.8429448 V 21.420858 c 0,1.01362 0.84368107,1.842945 1.87484667,1.842945 H 21.477302 c 1.031165,0 1.874846,-0.829325 1.874846,-1.842945 V 2.9914111 c 0,-1.0136197 -0.843681,-1.8429448 -1.874846,-1.8429448 z m 0,19.8116557 c 0,0.254326 -0.209983,0.460736 -0.468713,0.460736 H 3.1975461 c -0.2587288,0 -0.4687117,-0.20641 -0.4687117,-0.460736 V 3.4521473 c 0,-0.2543264 0.2099829,-0.4607362 0.4687117,-0.4607362 H 21.008589 c 0.25873,0 0.468713,0.2064098 0.468713,0.4607362 z"
     id="path4"
     style="fill:#000080;fill-opacity:1;stroke-width:0.943826;stroke-dasharray:none" />
  <circle
     fill="#494c4e"
     cx="6.0415335"
     cy="6.4243555"
     r="2"
     id="circle0"
     style="display:inline;fill:#ff0000;fill-opacity:1" />
</svg>
