<?xml version="1.0" encoding="UTF-8" standalone="no"?>
<svg
   version="1.1"
   id="Layer_1"
   x="0px"
   y="0px"
   width="100%"
   viewBox="0 0 512 512"
   enable-background="new 0 0 512 512"
   xml:space="preserve"
   sodipodi:docname="quiz.svg"
   inkscape:version="1.4 (86a8ad7, 2024-10-11)"
   xmlns:inkscape="http://www.inkscape.org/namespaces/inkscape"
   xmlns:sodipodi="http://sodipodi.sourceforge.net/DTD/sodipodi-0.dtd"
   xmlns="http://www.w3.org/2000/svg"
   xmlns:svg="http://www.w3.org/2000/svg"><defs
   id="defs22" /><sodipodi:namedview
   id="namedview22"
   pagecolor="#ffffff"
   bordercolor="#000000"
   borderopacity="0.25"
   inkscape:showpageshadow="2"
   inkscape:pageopacity="0.0"
   inkscape:pagecheckerboard="true"
   inkscape:deskcolor="#d1d1d1"
   inkscape:zoom="1.5917969"
   inkscape:cx="256"
   inkscape:cy="256"
   inkscape:window-width="1920"
   inkscape:window-height="1017"
   inkscape:window-x="-8"
   inkscape:window-y="-8"
   inkscape:window-maximized="1"
   inkscape:current-layer="Layer_1" />
<path
   fill="none"
   opacity="1.000000"
   stroke="none"
   d=" M345.000000,1.000000   C400.972015,1.000000 456.944000,1.000000 512.958008,1.000000   C512.958008,171.553314 512.958008,342.106659 512.958008,513.000000   C448.312836,513.000000 383.625092,513.000000 318.507324,512.623047   C318.911041,511.828949 319.702240,511.208710 320.584564,511.024323   C346.107819,505.690857 364.993378,482.460480 364.993591,456.339447   C364.993896,416.351593 365.018250,376.363708 364.950500,336.375946   C364.944519,332.844330 365.473572,330.866608 369.654236,329.776886   C398.849548,322.167145 424.372314,307.729126 445.812805,286.535278   C460.198059,272.315491 471.370514,255.721420 479.950775,237.307816   C489.053070,217.773972 494.077820,197.197830 494.720581,175.870010   C495.127319,162.374969 494.224274,148.542389 491.623199,135.310455   C483.691986,94.963486 462.879700,61.898884 430.684662,36.535721   C408.447021,19.016972 382.966461,8.018698 354.729340,3.868727   C351.417206,3.381949 348.239838,1.978498 345.000000,1.000000  z"
   id="path1" />
<path
   fill="none"
   opacity="1.000000"
   stroke="none"
   d=" M66.000000,513.000000   C44.344021,513.000000 22.688042,513.000000 1.016032,513.000000   C1.016032,342.428223 1.016032,171.856415 1.016032,1.000000   C104.020721,1.000000 207.041702,1.000000 310.476807,1.394767   C310.213501,2.178057 309.575348,2.795434 308.852539,2.919437   C302.173370,4.065294 295.332825,4.572895 288.814423,6.303007   C252.238312,16.011021 221.770584,35.287167 198.268036,65.164230   C191.354065,73.953461 191.421555,74.006554 179.982437,74.006554   C146.168686,74.006546 112.354889,73.977150 78.541290,74.047508   C74.749870,74.055389 70.930672,74.427971 67.173462,74.971138   C39.739067,78.937271 19.012857,102.858780 19.010477,130.509003   C19.001150,238.779602 18.988838,347.050201 19.071695,455.320740   C19.074961,459.586731 19.597057,463.961761 20.627317,468.099243   C26.114300,490.134491 39.985943,504.149841 61.772572,510.464111   C63.298527,510.906372 64.596184,512.136292 66.000000,513.000000  z"
   id="path2" />
<path
   fill="#272A50"
   opacity="1.000000"
   stroke="none"
   d=" M66.468658,513.000000   C64.596184,512.136292 63.298527,510.906372 61.772572,510.464111   C39.985943,504.149841 26.114300,490.134491 20.627317,468.099243   C19.597057,463.961761 19.074961,459.586731 19.071695,455.320740   C18.988838,347.050201 19.001150,238.779602 19.010477,130.509003   C19.012857,102.858780 39.739067,78.937271 67.173462,74.971138   C70.930672,74.427971 74.749870,74.055389 78.541290,74.047508   C112.354889,73.977150 146.168686,74.006546 179.982437,74.006554   C191.421555,74.006554 191.354065,73.953461 198.268036,65.164230   C221.770584,35.287167 252.238312,16.011021 288.814423,6.303007   C295.332825,4.572895 302.173370,4.065294 308.852539,2.919437   C309.575348,2.795434 310.213501,2.178057 310.945465,1.394767   C322.020905,1.000000 333.041779,1.000000 344.531342,1.000000   C348.239838,1.978498 351.417206,3.381949 354.729340,3.868727   C382.966461,8.018698 408.447021,19.016972 430.684662,36.535721   C462.879700,61.898884 483.691986,94.963486 491.623199,135.310455   C494.224274,148.542389 495.127319,162.374969 494.720581,175.870010   C494.077820,197.197830 489.053070,217.773972 479.950775,237.307816   C471.370514,255.721420 460.198059,272.315491 445.812805,286.535278   C424.372314,307.729126 398.849548,322.167145 369.654236,329.776886   C365.473572,330.866608 364.944519,332.844330 364.950500,336.375946   C365.018250,376.363708 364.993896,416.351593 364.993591,456.339447   C364.993378,482.460480 346.107819,505.690857 320.584564,511.024323   C319.702240,511.208710 318.911041,511.828949 318.038696,512.623047   C234.312439,513.000000 150.624878,513.000000 66.468658,513.000000  M354.049133,342.110168   C354.049133,339.046661 354.049133,335.983154 354.049133,332.815216   C352.242096,332.903656 351.248535,332.990051 350.254578,332.995209   C336.140137,333.068634 322.023499,333.023499 307.913361,333.305542   C305.651001,333.350800 303.090057,334.393738 301.221863,335.743347   C283.413788,348.607849 265.695984,361.598145 248.021591,374.646240   C243.091797,378.285675 237.917114,379.723785 232.148499,377.203705   C226.271393,374.636139 224.134460,369.676117 223.771591,363.574707   C222.516510,342.470795 221.090332,321.376587 219.946625,300.266907   C219.714783,295.987823 218.331116,292.870117 215.144699,289.898895   C159.373352,237.893570 146.033768,156.842026 182.052704,89.676079   C182.770981,88.336662 183.421066,86.960663 184.286362,85.236298   C179.599640,85.236298 175.779678,85.236298 171.036102,85.102585   C139.881302,85.095276 108.726334,85.036118 77.571922,85.143028   C73.446953,85.157181 69.219078,85.582870 65.219124,86.557648   C43.765156,91.785896 30.149967,110.017624 30.140848,133.386887   C30.110550,211.024033 30.128853,288.661163 30.128914,366.298309   C30.128937,395.620483 30.016045,424.943268 30.164236,454.264679   C30.299316,480.992401 49.849426,501.041412 76.357979,501.103455   C153.661469,501.284424 230.965988,501.298157 308.269379,501.095764   C334.363098,501.027466 353.775665,481.106232 354.056580,454.965027   C354.180084,443.470703 354.102203,431.973969 354.078369,420.478363   C354.024902,394.659668 353.948120,368.841064 354.049133,342.110168  M255.008301,31.460676   C190.581207,67.532104 159.311829,139.295563 177.951584,208.646637   C185.664291,237.342529 200.431000,261.901215 222.325439,282.043091   C227.077667,286.414917 230.043625,291.076324 230.347504,297.908966   C231.287231,319.037933 232.762939,340.144409 234.206863,361.247559   C234.351639,363.363312 235.170914,366.394196 236.642838,367.171326   C237.957153,367.865295 240.921844,366.464264 242.620438,365.240906   C260.601318,352.290405 278.498413,339.222961 296.358337,326.105713   C300.183777,323.296143 304.166443,322.124695 308.964661,322.716949   C324.946198,324.689636 340.841553,323.970673 356.718048,321.147919   C448.892273,304.759766 506.114380,207.334732 475.612885,118.488159   C443.880676,26.056692 338.619446,-13.531832 255.008301,31.460676  z"
   id="path3" />


<path
   fill="#B6C8D8"
   opacity="1.000000"
   stroke="none"
   d=" M212.993607,367.958771   C212.028168,351.907166 211.061035,335.855621 210.098145,319.803864   C209.730713,313.678497 209.467499,307.544434 208.944550,301.432495   C208.813583,299.901886 208.281311,297.983246 207.225311,297.016418   C185.281143,276.924835 170.175842,252.383957 160.465866,224.495926   C155.431717,210.037384 152.987167,195.030060 151.815903,179.664093   C149.789398,153.078079 154.451370,127.786743 164.142075,103.223213   C166.456650,97.356354 169.254791,91.680275 171.895111,85.576370   C175.779678,85.236298 179.599640,85.236298 184.286362,85.236298   C183.421066,86.960663 182.770981,88.336662 182.052704,89.676079   C146.033768,156.842026 159.373352,237.893570 215.144699,289.898895   C218.331116,292.870117 219.714783,295.987823 219.946625,300.266907   C221.090332,321.376587 222.516510,342.470795 223.771591,363.574707   C224.134460,369.676117 226.271393,374.636139 232.148499,377.203705   C237.917114,379.723785 243.091797,378.285675 248.021591,374.646240   C265.695984,361.598145 283.413788,348.607849 301.221863,335.743347   C303.090057,334.393738 305.651001,333.350800 307.913361,333.305542   C322.023499,333.023499 336.140137,333.068634 350.254578,332.995209   C351.248535,332.990051 352.242096,332.903656 354.049133,332.815216   C354.049133,335.983154 354.049133,339.046661 353.964966,342.566284   C340.481812,343.482239 327.076477,343.816956 313.688324,344.491547   C310.413452,344.656555 306.570190,345.055145 304.051758,346.843811   C288.067078,358.196289 272.081360,369.589050 256.689117,381.721039   C243.941391,391.768677 227.419479,392.465485 216.031357,376.614868   C217.817703,372.363281 216.064728,369.930786 212.993607,367.958771  z"
   id="path6" />


<path
   fill="#282E52"
   opacity="1.000000"
   stroke="none"
   d=" M125.226311,479.462036   C114.319077,479.543182 103.841415,479.656342 93.365639,479.560944   C82.446991,479.461517 75.986748,472.955505 75.932663,462.158844   C75.882668,452.180664 75.862846,442.201569 75.940804,432.223694   C76.018639,422.261688 82.407967,415.588196 92.405281,415.370941   C102.711479,415.146942 113.029335,415.163666 123.336494,415.363556   C133.481949,415.560303 139.938965,422.360382 139.998276,432.579773   C140.056183,442.557892 140.059219,452.536896 139.996262,462.514954   C139.937698,471.798767 134.985046,477.563812 125.226311,479.462036  M88.127892,427.769012   C87.663757,429.487610 86.821396,431.201080 86.798187,432.925629   C86.668228,442.579620 86.673653,452.236877 86.760788,461.891876   C86.809738,467.315735 88.499084,468.910065 94.081367,468.947144   C103.403786,469.009094 112.727348,469.017914 122.049576,468.943268   C127.485847,468.899750 129.127716,467.219360 129.167389,461.687561   C129.235458,452.198761 129.237030,442.708710 129.166367,433.219940   C129.125366,427.717010 127.474930,426.069305 122.000504,426.030914   C112.678139,425.965515 103.354233,425.952393 94.032799,426.066437   C92.278442,426.087891 90.532600,426.805023 88.127892,427.769012  z"
   id="path9" />
<path
   fill="#2D3155"
   opacity="1.000000"
   stroke="none"
   d=" M78.297081,329.540222   C82.307884,323.910736 87.465218,321.730743 93.988625,321.885712   C103.471367,322.110901 112.963547,321.915894 122.451500,321.951660   C133.306976,321.992584 139.953476,328.522552 140.009491,339.237000   C140.060837,349.057739 140.057007,358.879120 140.010529,368.699890   C139.960648,379.240631 133.428391,385.970367 123.025612,386.072937   C112.872719,386.173035 102.716873,386.186523 92.564461,386.062714   C82.603302,385.941223 76.020615,379.318451 75.933281,369.404327   C75.843849,359.251190 75.748344,349.092407 76.012192,338.945343   C76.091362,335.900513 77.365379,332.886749 78.297081,329.540222  M124.087807,375.344147   C128.053909,374.920258 129.312256,372.401947 129.299744,368.772278   C129.265900,358.962708 129.358521,349.152191 129.260788,339.343475   C129.208527,334.098602 127.696617,332.674133 122.191391,332.621887   C112.715065,332.531952 103.236671,332.532684 93.760307,332.620850   C88.089966,332.673584 86.617195,334.134918 86.563026,339.778503   C86.472076,349.254791 86.472237,358.733246 86.562943,368.209534   C86.617264,373.884033 88.082466,375.337738 93.730301,375.381470   C103.539391,375.457458 113.349525,375.398010 124.087807,375.344147  z"
   id="path10" />
<path
   fill="#2A2E52"
   opacity="1.000000"
   stroke="none"
   d=" M140.002594,244.376541   C140.010254,255.000381 140.053131,265.166229 140.000031,275.331604   C139.945419,285.782043 133.413010,292.529327 122.891510,292.721436   C112.895859,292.903931 102.891296,292.912933 92.896095,292.718353   C82.415283,292.514343 75.981949,285.759247 75.931046,275.227509   C75.882721,265.228760 75.859047,255.229065 75.941063,245.230743   C76.020988,235.486755 82.265724,228.788696 92.041870,228.505829   C102.531876,228.202332 113.042175,228.240555 123.534813,228.493973   C133.036835,228.723465 138.610916,234.187912 140.002594,244.376541  M104.508743,239.043610   C100.684517,239.045456 96.860245,239.036423 93.036079,239.052170   C89.069717,239.068497 86.644722,240.938782 86.608101,245.022049   C86.515656,255.329803 86.519150,265.639343 86.599220,275.947266   C86.630470,279.970612 88.844986,282.000671 92.910728,281.994873   C102.886932,281.980652 112.863205,281.974060 122.839378,281.998322   C127.170235,282.008850 129.278992,279.860199 129.281738,275.578186   C129.288162,265.601990 129.271423,255.625778 129.290878,245.649643   C129.299835,241.055771 126.933838,239.012833 122.465027,239.038727   C116.812035,239.071487 111.158684,239.044693 104.508743,239.043610  z"
   id="path11" />
<path
   fill="#292A50"
   opacity="1.000000"
   stroke="none"
   d=" M88.004852,135.540680   C100.861427,135.296478 113.335472,134.818420 125.780220,135.228958   C133.676392,135.489426 139.806335,142.604187 139.946609,150.669601   C140.137466,161.642776 140.159378,172.625244 139.936356,183.597275   C139.760483,192.250107 132.919418,198.920792 124.192719,199.063522   C113.385437,199.240280 102.570992,199.239441 91.763580,199.067642   C82.739204,198.924210 76.096161,192.207092 75.967865,183.176834   C75.821404,172.867523 75.894180,162.554413 75.940262,152.243271   C75.978447,143.699158 79.528549,138.728897 88.004852,135.540680  M121.982338,188.725235   C128.224411,187.882767 129.205795,186.902435 129.240280,180.965637   C129.294357,171.658325 129.302948,162.350128 129.237259,153.042969   C129.195297,147.096939 127.851830,145.795700 121.756248,145.755615   C112.615227,145.695511 103.473320,145.702179 94.332191,145.752686   C88.176460,145.786682 86.509163,147.286423 86.421364,153.309647   C86.288132,162.449051 86.289993,171.593231 86.421150,180.732697   C86.509369,186.880676 88.406593,188.656342 94.655014,188.711090   C103.463341,188.788269 112.272842,188.730606 121.982338,188.725235  z"
   id="path12" />
<path
   fill="#2C3156"
   opacity="1.000000"
   stroke="none"
   d=" M240.000000,422.942474   C260.499207,422.942688 280.498474,422.972565 300.497528,422.917908   C304.458618,422.907074 308.285492,423.180603 308.247467,428.302643   C308.212250,433.049896 304.550293,433.606293 300.786926,433.606049   C261.121857,433.603424 221.456787,433.598450 181.791718,433.611420   C177.910843,433.612701 174.392792,432.691132 174.489243,428.100677   C174.585571,423.515686 178.106140,422.887238 182.002502,422.904449   C201.168030,422.989014 220.334106,422.942596 240.000000,422.942474  z"
   id="path13" />
<path
   fill="#2B3055"
   opacity="1.000000"
   stroke="none"
   d=" M228.000122,461.301544   C245.326996,461.301758 262.153900,461.290894 278.980682,461.319763   C280.632507,461.322601 282.682678,461.010498 283.840912,461.836273   C285.523499,463.035950 287.631226,465.171173 287.579620,466.846558   C287.526520,468.571014 285.230011,470.362427 283.643066,471.830475   C283.081146,472.350342 281.718079,472.047089 280.720795,472.047302   C247.733475,472.055145 214.746170,472.054749 181.758850,472.051971   C180.926285,472.051880 179.811020,472.348755 179.312241,471.929962   C177.559708,470.458374 174.631775,468.632660 174.741837,467.131378   C174.886353,465.160065 177.142868,462.635162 179.127533,461.702362   C181.196106,460.730072 184.021347,461.313904 186.515884,461.310455   C200.177277,461.291687 213.838699,461.301483 228.000122,461.301544  z"
   id="path14" />
<path
   fill="#2C3156"
   opacity="1.000000"
   stroke="none"
   d=" M212.525635,367.977478   C216.064728,369.930786 217.817703,372.363281 215.714996,376.435852   C213.585419,377.413544 211.589279,378.566345 209.569458,378.609467   C200.257706,378.808105 190.939346,378.687531 181.623398,378.702637   C177.698074,378.709015 174.337952,377.570526 174.492935,373.022461   C174.636917,368.797760 177.865265,367.877838 181.615311,367.915253   C191.762009,368.016479 201.910110,367.978790 212.525635,367.977478  z"
   id="path15" />
<path
   fill="#2C3156"
   opacity="1.000000"
   stroke="none"
   d=" M174.382660,334.972534   C174.916809,330.719513 177.427780,329.381409 181.041351,329.393311   C187.857956,329.415771 194.674789,329.375854 201.491302,329.408661   C205.245667,329.426727 208.250900,330.652802 208.043304,335.048676   C207.852066,339.098602 204.974472,340.100922 201.406311,340.072144   C194.590073,340.017151 187.772125,339.987885 180.956787,340.083466   C177.492340,340.132050 175.189468,338.865082 174.382660,334.972534  z"
   id="path16" />


<path
   fill="#3EB455"
   opacity="1.000000"
   stroke="none"
   d=" M88.455360,427.485077   C90.532600,426.805023 92.278442,426.087891 94.032799,426.066437   C103.354233,425.952393 112.678139,425.965515 122.000504,426.030914   C127.474930,426.069305 129.125366,427.717010 129.166367,433.219940   C129.237030,442.708710 129.235458,452.198761 129.167389,461.687561   C129.127716,467.219360 127.485847,468.899750 122.049576,468.943268   C112.727348,469.017914 103.403786,469.009094 94.081367,468.947144   C88.499084,468.910065 86.809738,467.315735 86.760788,461.891876   C86.673653,452.236877 86.668228,442.579620 86.798187,432.925629   C86.821396,431.201080 87.663757,429.487610 88.455360,427.485077  z"
   id="path19" />
<path
   fill="#FFFFFF"
   opacity="1.000000"
   stroke="none"
   d=" M123.623520,375.369751   C113.349525,375.398010 103.539391,375.457458 93.730301,375.381470   C88.082466,375.337738 86.617264,373.884033 86.562943,368.209534   C86.472237,358.733246 86.472076,349.254791 86.563026,339.778503   C86.617195,334.134918 88.089966,332.673584 93.760307,332.620850   C103.236671,332.532684 112.715065,332.531952 122.191391,332.621887   C127.696617,332.674133 129.208527,334.098602 129.260788,339.343475   C129.358521,349.152191 129.265900,358.962708 129.299744,368.772278   C129.312256,372.401947 128.053909,374.920258 123.623520,375.369751  z"
   id="path20" />
<path
   fill="#F8A529"
   opacity="1.000000"
   stroke="none"
   d=" M105.007118,239.043610   C111.158684,239.044693 116.812035,239.071487 122.465027,239.038727   C126.933838,239.012833 129.299835,241.055771 129.290878,245.649643   C129.271423,255.625778 129.288162,265.601990 129.281738,275.578186   C129.278992,279.860199 127.170235,282.008850 122.839378,281.998322   C112.863205,281.974060 102.886932,281.980652 92.910728,281.994873   C88.844986,282.000671 86.630470,279.970612 86.599220,275.947266   C86.519150,265.639343 86.515656,255.329803 86.608101,245.022049   C86.644722,240.938782 89.069717,239.068497 93.036079,239.052170   C96.860245,239.036423 100.684517,239.045456 105.007118,239.043610  z"
   id="path21" />
<path
   fill="#D51A60"
   opacity="1.000000"
   stroke="none"
   d=" M121.532089,188.727905   C112.272842,188.730606 103.463341,188.788269 94.655014,188.711090   C88.406593,188.656342 86.509369,186.880676 86.421150,180.732697   C86.289993,171.593231 86.288132,162.449051 86.421364,153.309647   C86.509163,147.286423 88.176460,145.786682 94.332191,145.752686   C103.473320,145.702179 112.615227,145.695511 121.756248,145.755615   C127.851830,145.795700 129.195297,147.096939 129.237259,153.042969   C129.302948,162.350128 129.294357,171.658325 129.240280,180.965637   C129.205795,186.902435 128.224411,187.882767 121.532089,188.727905  z"
   id="path22" />
<text
   xml:space="preserve"
   style="font-size:176.757px;text-align:start;writing-mode:lr-tb;direction:ltr;text-anchor:start;fill:#22b573;stroke-width:14.7297"
   x="296.96121"
   y="179.19897"
   id="text22"
   transform="scale(0.70570382,1.4170251)"><tspan
     sodipodi:role="line"
     id="tspan22"
     x="296.96121"
     y="179.19897"
     style="stroke-width:14.7297">90%</tspan></text></svg>
