<?xml version="1.0" encoding="UTF-8" standalone="no"?>
<svg
   viewBox="0 0 4209 3817"
   height="3817"
   width="4209"
   xml:space="preserve"
   id="svg2"
   version="1.1"
   sodipodi:docname="rate-icon.svg"
   inkscape:version="1.4 (86a8ad7, 2024-10-11)"
   xmlns:inkscape="http://www.inkscape.org/namespaces/inkscape"
   xmlns:sodipodi="http://sodipodi.sourceforge.net/DTD/sodipodi-0.dtd"
   xmlns="http://www.w3.org/2000/svg"
   xmlns:svg="http://www.w3.org/2000/svg"
   xmlns:rdf="http://www.w3.org/1999/02/22-rdf-syntax-ns#"
   xmlns:cc="http://creativecommons.org/ns#"
   xmlns:dc="http://purl.org/dc/elements/1.1/"><sodipodi:namedview
     id="namedview1"
     pagecolor="#ffffff"
     bordercolor="#000000"
     borderopacity="0.25"
     inkscape:showpageshadow="2"
     inkscape:pageopacity="0.0"
     inkscape:pagecheckerboard="true"
     inkscape:deskcolor="#d1d1d1"
     inkscape:zoom="0.1528125"
     inkscape:cx="2666.6667"
     inkscape:cy="2143.1493"
     inkscape:window-width="1920"
     inkscape:window-height="1017"
     inkscape:window-x="-8"
     inkscape:window-y="-8"
     inkscape:window-maximized="1"
     inkscape:current-layer="g12" /><metadata
     id="metadata8"><rdf:RDF><cc:Work
         rdf:about=""><dc:format>image/svg+xml</dc:format><dc:type
           rdf:resource="http://purl.org/dc/dcmitype/StillImage" /></cc:Work></rdf:RDF></metadata><defs
     id="defs6" /><g
     transform="matrix(1.3333333,0,0,-1.3333333,0,5333.3333)"
     id="g10"><g
       transform="scale(0.1)"
       id="g12"><g
         transform="scale(2.45399)"
         id="g14"><path
           id="path16"
           style="fill:none;fill-opacity:1;fill-rule:nonzero;stroke:none"
           d="M 16300,0 H 0 V 16300 H 16300 V 0" /></g><g
         transform="matrix(2.07031,0,0,2.07031,-4319.0186,5595.0923)"
         id="g18"><g
           id="g144"><g
             id="g143"><g
               id="g142"><g
                 id="g141"><g
                   id="g140"><g
                     id="g139"><g
                       id="g138"><g
                         id="g137"><g
                           id="g136"><g
                             id="g135"><g
                               id="g134"><g
                                 id="g133"><g
                                   id="g132"><g
                                   id="g131"><g
                                   id="g129"><g
                                   id="g128"><g
                                   id="g127"><g
                                   id="g125"><g
                                   id="g124"><g
                                   id="g123"><g
                                   id="g121"><g
                                   id="g120"><g
                                   id="g119"><g
                                   id="g117"><g
                                   id="g116"><g
                                   id="g115"><g
                                   id="g113"><g
                                   id="g112"><g
                                   id="g111"><g
                                   id="g109"><g
                                   id="g108"><g
                                   id="g107"><g
                                   id="g106"><g
                                   id="g105"><g
                                   id="g104"><g
                                   id="g103"><g
                                   id="g101"><g
                                   id="g100"><g
                                   id="g99"><g
                                   id="g97"><g
                                   id="g96"><g
                                   id="g95"><g
                                   id="g93"><g
                                   id="g92"><path
                                   id="path20"
                                   style="fill:#ecbd00;fill-opacity:1;fill-rule:nonzero;stroke:none"
                                   d="m 9660.4,16300 788.3,-1599.8 1767.8,-257.9 -1278,-1243.3 301.4,-1759.1 -1579.5,828.8 -1579.47,-828.8 301.4,1759.1 -1278.07,1243.3 1767.86,257.9 788.28,1599.8" /></g></g></g></g></g></g></g></g></g></g></g></g></g></g></g></g></g></g></g></g></g></g></g></g></g></g></g></g></g></g></g></g></g></g></g></g></g></g></g></g></g></g></g></g></g><g
         transform="matrix(2.07031,0,0,2.07031,-4319.0186,5595.0923)"
         id="g22"><g
           id="g91"><g
             id="g89"><g
               id="g88"><g
                 id="g87"><g
                   id="g85"><g
                     id="g84"><g
                       id="g83"><g
                         id="g81"><g
                           id="g80"><g
                             id="g79"><g
                               id="g77"><g
                                 id="g76"><g
                                   id="g75"><g
                                   id="g73"><g
                                   id="g72"><g
                                   id="g71"><g
                                   id="g69"><g
                                   id="g68"><g
                                   id="g67"><g
                                   id="g65"><g
                                   id="g64"><g
                                   id="g63"><g
                                   id="g61"><g
                                   id="g60"><g
                                   id="g59"><g
                                   id="g57"><g
                                   id="g56"><g
                                   id="g55"><g
                                   id="g53"><g
                                   id="g194"><g
                                   id="g193"><g
                                   id="g209"><g
                                   id="g208"><g
                                   id="g207"><g
                                   id="g206"><g
                                   id="g205"><g
                                   id="g204"><g
                                   id="g203"><g
                                   id="g202"><g
                                   id="g201"><g
                                   id="g200"><g
                                   id="g199"><g
                                   id="g198"><g
                                   id="g197"><g
                                   id="g196"><g
                                   id="g195"><path
                                   id="path24"
                                   style="fill:#cc9900;fill-opacity:1;fill-rule:nonzero;stroke:none"
                                   d="m 9660.4,16300 v -2431.5 l 788.3,831.7 -788.3,1599.8" /></g></g></g></g></g></g></g></g></g></g></g></g></g></g></g></g></g></g></g></g></g></g></g></g></g></g></g></g></g></g></g></g></g></g></g></g></g></g></g></g></g></g></g></g></g></g></g><g
         transform="matrix(1.83436,0,0,1.83436,-4319.0186,5595.0923)"
         id="g26"><path
           id="path28"
           style="fill:#cc9900;fill-opacity:1;fill-rule:nonzero;stroke:none"
           d="m 13787.9,16300 -2884.9,-647.6 1442.5,-755.6 1442.4,1403.2" /></g><g
         transform="matrix(1.76147,0,0,1.76147,-4319.0186,5595.0923)"
         id="g30"><g
           id="g52"><g
             id="g51"><g
               id="g49"><g
                 id="g48"><g
                   id="g47"><g
                     id="g45"><g
                       id="g44"><g
                         id="g43"><g
                           id="g41"><g
                             id="g40"><g
                               id="g39"><g
                                 id="g37"><g
                                   id="g36"><g
                                   id="g35"><g
                                   id="g33"><g
                                   id="g32"><g
                                   id="g31"><g
                                   id="g29"><g
                                   id="g28"><g
                                   id="g27"><g
                                   id="g25"><g
                                   id="g24"><g
                                   id="g23"><g
                                   id="g21"><g
                                   id="g20"><g
                                   id="g19"><g
                                   id="g17"><g
                                   id="g16"><g
                                   id="g15"><g
                                   id="g13"><g
                                   id="g11"><g
                                   id="g9"><g
                                   id="g165"><g
                                   id="g164"><g
                                   id="g163"><g
                                   id="g162"><g
                                   id="g161"><g
                                   id="g160"><g
                                   id="g159"><g
                                   id="g158"><g
                                   id="g157"><g
                                   id="g156"><g
                                   id="g155"><g
                                   id="g154"><g
                                   id="g153"><g
                                   id="g152"><g
                                   id="g151"><g
                                   id="g150"><g
                                   id="g149"><g
                                   id="g148"><g
                                   id="g147"><g
                                   id="g146"><g
                                   id="g145"><path
                                   id="path32"
                                   style="fill:#cc9900;fill-opacity:1;fill-rule:nonzero;stroke:none"
                                   d="m 11354.1,16300 1856.4,-2854.4 -1856.4,974.2 V 16300" /></g></g></g></g></g></g></g></g></g></g></g></g></g></g></g></g></g></g></g></g></g></g></g></g></g></g></g></g></g></g></g></g></g></g></g></g></g></g></g></g></g></g></g></g></g></g></g></g></g></g></g></g></g></g><g
         transform="matrix(1.76147,0,0,1.76147,-4319.0186,5595.0923)"
         id="g34"><g
           id="g170"><g
             id="g169"><g
               id="g168"><g
                 id="g167"><g
                   id="g166"><g
                     id="g176"><g
                       id="g175"><g
                         id="g174"><g
                           id="g173"><g
                             id="g172"><g
                               id="g171"><g
                                 id="g192"><g
                                   id="g191"><g
                                   id="g190"><g
                                   id="g189"><g
                                   id="g188"><g
                                   id="g187"><g
                                   id="g186"><g
                                   id="g185"><g
                                   id="g184"><g
                                   id="g183"><g
                                   id="g182"><g
                                   id="g181"><g
                                   id="g180"><g
                                   id="g179"><g
                                   id="g178"><g
                                   id="g177"><path
                                   id="path36"
                                   style="fill:#cc9900;fill-opacity:1;fill-rule:nonzero;stroke:none"
                                   d="M 9497.74,13445.6 11354.1,16300 9851.99,15513.2 9497.74,13445.6" /></g></g></g></g></g></g></g></g></g></g></g></g></g></g></g></g></g></g></g></g></g></g></g></g></g></g></g></g><g
         transform="matrix(1.86712,0,0,1.86712,-4319.0186,5595.0923)"
         id="g38"><g
           id="g8"><g
             id="g7"><g
               id="g6"><g
                 id="g5"><g
                   id="g4"><g
                     id="g3"><g
                       id="g2"><g
                         id="g1"><path
                           id="path40"
                           style="fill:#cc9900;fill-opacity:1;fill-rule:nonzero;stroke:none"
                           d="m 7877.39,16014 2834.31,-636.3 -874.07,922.3 -1960.24,-286" /></g></g></g></g></g></g></g></g></g><g
         transform="matrix(2.14724,0,0,2.14724,-4319.0186,5595.0923)"
         id="g42"><path
           id="path44"
           style="fill:#ecbd00;fill-opacity:1;fill-rule:nonzero;stroke:none"
           d="m 13835.4,12821.1 762.9,-1545.2 1701.7,-245.9 -1232.3,-1201.57 290.6,-1693.33 -1522.9,799.16 -1522.8,-799.16 290.6,1693.33 -1229.5,1201.57 1701.7,245.9 760,1545.2" /></g><g
         transform="matrix(1.92307,0,0,1.92307,-4319.0186,5595.0923)"
         id="g46"><path
           id="path48"
           style="fill:#cc9900;fill-opacity:1;fill-rule:nonzero;stroke:none"
           d="M 15448.2,14315.7 V 11698 l 851.8,892.3 -851.8,1725.4" /></g><g
         transform="matrix(2.14724,0,0,2.14724,-4319.0186,5595.0923)"
         id="g50"><path
           id="path52"
           style="fill:#cc9900;fill-opacity:1;fill-rule:nonzero;stroke:none"
           d="M 16300,11030 13835.4,10476.7 15067.7,9828.43 16300,11030" /></g><g
         transform="matrix(2.02319,0,0,2.02319,-4319.0186,5595.0923)"
         id="g54"><path
           id="path56"
           style="fill:#cc9900;fill-opacity:1;fill-rule:nonzero;stroke:none"
           d="M 14683.7,11119.1 16300,8633.89 14683.7,9482.05 v 1637.05" /></g><g
         transform="matrix(1.82258,0,0,1.82258,-4319.0186,5595.0923)"
         id="g58"><path
           id="path60"
           style="fill:#cc9900;fill-opacity:1;fill-rule:nonzero;stroke:none"
           d="M 14505.8,9584.23 16300,12343 14848.2,11579.2 14505.8,9584.23" /></g><g
         transform="matrix(1.82258,0,0,1.82258,-4319.0186,5595.0923)"
         id="g62"><path
           id="path64"
           style="fill:#cc9900;fill-opacity:1;fill-rule:nonzero;stroke:none"
           d="m 13399.7,12994.8 2900.3,-651.8 -895.4,941.5 -2004.9,-289.7" /></g><g
         transform="matrix(1.68896,0,0,1.68896,-4319.0186,5595.0923)"
         id="g66"><path
           id="path68"
           style="fill:#ecbd00;fill-opacity:1;fill-rule:nonzero;stroke:none"
           d="m 6093.7,16300 966.28,-1964.5 2163.46,-312.6 -1563.09,-1527.6 369.46,-2152.8 -1936.11,1016 -1936.1,-1016 369.45,2152.8 -1566.64,1527.6 2163.46,312.6 969.83,1964.5" /></g><g
         transform="matrix(1.68896,0,0,1.68896,-4319.0186,5595.0923)"
         id="g70"><path
           id="path72"
           style="fill:#cc9900;fill-opacity:1;fill-rule:nonzero;stroke:none"
           d="m 6093.7,16300 v -2980.5 l 966.28,1016 -966.28,1964.5" /></g><g
         transform="matrix(1.45301,0,0,1.45301,-4319.0186,5595.0923)"
         id="g74"><path
           id="path76"
           style="fill:#cc9900;fill-opacity:1;fill-rule:nonzero;stroke:none"
           d="m 10721.2,16300 -3637.95,-817.6 1821.05,-958 1816.9,1775.6" /></g><g
         transform="matrix(1.38012,0,0,1.38012,-4319.0186,5595.0923)"
         id="g78"><path
           id="path80"
           style="fill:#cc9900;fill-opacity:1;fill-rule:nonzero;stroke:none"
           d="M 7457.31,16300 9826.66,12656.8 7457.31,13900.2 V 16300" /></g><g
         transform="matrix(1.38012,0,0,1.38012,-4319.0186,5595.0923)"
         id="g82"><path
           id="path84"
           style="fill:#cc9900;fill-opacity:1;fill-rule:nonzero;stroke:none"
           d="M 5087.95,12656.8 7457.31,16300 5540.09,15291.4 5087.95,12656.8" /></g><g
         transform="matrix(1.4854,0,0,1.4854,-4319.0186,5595.0923)"
         id="g86"><path
           id="path88"
           style="fill:#cc9900;fill-opacity:1;fill-rule:nonzero;stroke:none"
           d="M 3366.1,15944.5 6928.78,15144.8 5826.04,16300 3366.1,15944.5" /></g><g
         transform="matrix(1.20344,0,0,1.20344,-4319.0186,5595.0923)"
         id="g90"><path
           id="path92"
           style="fill:#ecbd00;fill-opacity:1;fill-rule:nonzero;stroke:none"
           d="M 11902.6,13557.9 13263.7,10805.7 16300,10362 14101.3,8218.14 14619.8,5196.79 11902.6,6622.71 9190.36,5196.79 9708.87,8218.14 7510.17,10362 l 3036.33,443.7 1356.1,2752.2" /></g><g
         transform="matrix(1.00098,0,0,1.00098,-4319.0186,5595.0923)"
         id="g94"><path
           id="path96"
           style="fill:#cc9900;fill-opacity:1;fill-rule:nonzero;stroke:none"
           d="M 14310,16300 V 11270.9 L 15946.3,12991.2 14310,16300" /></g><g
         transform="matrix(1.20344,0,0,1.20344,-4319.0186,5595.0923)"
         id="g98"><path
           id="path100"
           style="fill:#cc9900;fill-opacity:1;fill-rule:nonzero;stroke:none"
           d="M 16300,10362 11902.6,9374.83 14101.3,8218.14 16300,10362" /></g><g
         transform="matrix(1.07939,0,0,1.07939,-4319.0186,5595.0923)"
         id="g102"><path
           id="path104"
           style="fill:#cc9900;fill-opacity:1;fill-rule:nonzero;stroke:none"
           d="M 13270.5,10452.2 16300,5794.03 13270.5,7383.82 v 3068.38" /></g><path
         id="path106"
         style="fill:#cc9900;fill-opacity:1;fill-rule:nonzero;stroke:none"
         d="m 6740.9814,11849.092 3263.9996,5028 -2639.9996,-1392 z" /><path
         id="path108"
         style="fill:#cc9900;fill-opacity:1;fill-rule:nonzero;stroke:none"
         d="m 4718.9814,18065.092 5285.9996,-1188 -1631.9996,1722 z" /><g
         transform="matrix(1.92307,0,0,1.92307,-4319.0186,5595.0923)"
         id="g110"><path
           id="path112"
           style="fill:#ecbd00;fill-opacity:1;fill-rule:nonzero;stroke:none"
           d="m 13548.1,8484.36 851.8,-1722.25 1900.1,-277.68 -1375.9,-1341.6 324.5,-1890.73 -1700.5,892.32 -1697.2,-892.32 324.4,1890.73 -1375.9,1341.6 1900.1,277.68 848.6,1722.25" /></g><g
         transform="matrix(1.6989,0,0,1.6989,-4319.0186,5595.0923)"
         id="g114"><path
           id="path116"
           style="fill:#cc9900;fill-opacity:1;fill-rule:nonzero;stroke:none"
           d="M 15335.8,9603.89 V 6640.78 l 964.2,1013.6 -964.2,1949.51" /></g><g
         transform="matrix(1.92307,0,0,1.92307,-4319.0186,5595.0923)"
         id="g118"><path
           id="path120"
           style="fill:#cc9900;fill-opacity:1;fill-rule:nonzero;stroke:none"
           d="m 16300,6484.43 -2751.9,-617.76 1376,-723.84 1375.9,1341.6" /></g><g
         transform="matrix(1.79902,0,0,1.79902,-4319.0186,5595.0923)"
         id="g122"><path
           id="path124"
           style="fill:#cc9900;fill-opacity:1;fill-rule:nonzero;stroke:none"
           d="M 14482.3,6271.2 16300,3476.34 14482.3,4430.19 V 6271.2" /></g><g
         transform="matrix(1.5984,0,0,1.5984,-4319.0186,5595.0923)"
         id="g126"><path
           id="path128"
           style="fill:#cc9900;fill-opacity:1;fill-rule:nonzero;stroke:none"
           d="M 14258,3912.65 16300,7058.29 14648.4,6187.42 14258,3912.65" /></g><g
         transform="matrix(1.5984,0,0,1.5984,-4319.0186,5595.0923)"
         id="g130"><path
           id="path132"
           style="fill:#cc9900;fill-opacity:1;fill-rule:nonzero;stroke:none"
           d="m 12993,7801.53 3307,-743.24 -1021,1077.32 -2286,-334.08" /></g></g></g></svg>
