<?xml version="1.0" encoding="UTF-8" standalone="no"?>
<!-- Uploaded to: SVG Repo, www.svgrepo.com, Generator: SVG Repo Mixer Tools -->

<svg
   fill="#000000"
   height="800px"
   width="800px"
   version="1.1"
   viewBox="0 0 512 512"
   enable-background="new 0 0 512 512"
   id="svg1"
   sodipodi:docname="unbig_eye_on.svg"
   inkscape:version="1.4 (86a8ad7, 2024-10-11)"
   xmlns:inkscape="http://www.inkscape.org/namespaces/inkscape"
   xmlns:sodipodi="http://sodipodi.sourceforge.net/DTD/sodipodi-0.dtd"
   xmlns="http://www.w3.org/2000/svg"
   xmlns:svg="http://www.w3.org/2000/svg">
  <defs
     id="defs1" />
  <sodipodi:namedview
     id="namedview1"
     pagecolor="#ffffff"
     bordercolor="#000000"
     borderopacity="0.25"
     inkscape:showpageshadow="2"
     inkscape:pageopacity="0.0"
     inkscape:pagecheckerboard="0"
     inkscape:deskcolor="#d1d1d1"
     inkscape:zoom="1.01875"
     inkscape:cx="400.4908"
     inkscape:cy="400"
     inkscape:window-width="1920"
     inkscape:window-height="1017"
     inkscape:window-x="-8"
     inkscape:window-y="-8"
     inkscape:window-maximized="1"
     inkscape:current-layer="svg1" />
  <g
     id="g1"
     style="fill:#c1272d;fill-opacity:1"
     transform="matrix(1.0294923,0,0,1.328041,-5.3525404,-90.888908)">
    <path
       d="M 494.8,241.4 444.2,192 C 394.1,143.1 327.3,116.2 256,116.2 184.7,116.2 117.9,143.1 67.8,192 l -50.6,49.4 c -11.3,12.3 -4.3,25.4 0,29.2 L 67.8,320 c 50.1,48.9 116.9,75.8 188.2,75.8 71.3,0 138.1,-26.9 188.2,-75.8 l 50.6,-49.4 c 4,-3.8 11.7,-16.4 0,-29.2 z M 256,325.8 c -38.5,0 -69.8,-31.3 -69.8,-69.8 0,-38.5 31.3,-69.8 69.8,-69.8 38.5,0 69.8,31.3 69.8,69.8 0,38.5 -31.3,69.8 -69.8,69.8 z M 60.7,256 96.4,221.2 c 27,-26.4 59.8,-45.2 95.7,-55.4 -28.2,20.1 -46.6,53 -46.6,90.1 0,37.1 18.4,70.1 46.6,90.1 -35.9,-10.2 -68.7,-29 -95.7,-55.3 z m 355,34.8 c -27,26.3 -59.8,45.1 -95.7,55.3 28.2,-20.1 46.6,-53 46.6,-90.1 0,-37.2 -18.4,-70.1 -46.6,-90.1 35.9,10.2 68.7,29 95.7,55.4 l 35.6,34.8 z"
       id="path1"
       style="fill:#c1272d;fill-opacity:1" />
  </g>
  <rect
     style="fill:#c1272d;stroke:#c1272d;stroke-width:19.8449;stroke-dasharray:none;stroke-opacity:1"
     id="rect1"
     width="35.01458"
     height="504.40927"
     x="349.58032"
     y="-130.64499"
     transform="matrix(0.89317466,0.44970993,-0.71529228,0.69882541,0,0)" />
</svg>
