<?xml version="1.0" encoding="UTF-8" standalone="no"?>
<!-- Generator: Adobe Illustrator 16.0.0, SVG Export Plug-In . SVG Version: 6.00 Build 0)  -->

<svg
   version="1.1"
   id="Layer_1"
   x="0px"
   y="0px"
   width="512px"
   height="512px"
   viewBox="0 0 512 512"
   enable-background="new 0 0 512 512"
   xml:space="preserve"
   sodipodi:docname="unflag.svg"
   inkscape:version="1.4 (86a8ad7, 2024-10-11)"
   xmlns:inkscape="http://www.inkscape.org/namespaces/inkscape"
   xmlns:sodipodi="http://sodipodi.sourceforge.net/DTD/sodipodi-0.dtd"
   xmlns="http://www.w3.org/2000/svg"
   xmlns:svg="http://www.w3.org/2000/svg"><defs
   id="defs2" /><sodipodi:namedview
   id="namedview2"
   pagecolor="#ffffff"
   bordercolor="#000000"
   borderopacity="0.25"
   inkscape:showpageshadow="2"
   inkscape:pageopacity="0.0"
   inkscape:pagecheckerboard="true"
   inkscape:deskcolor="#d1d1d1"
   inkscape:zoom="1.6035156"
   inkscape:cx="223.88307"
   inkscape:cy="205.486"
   inkscape:window-width="1904"
   inkscape:window-height="1001"
   inkscape:window-x="2123"
   inkscape:window-y="73"
   inkscape:window-maximized="0"
   inkscape:current-layer="Layer_1" />
<g
   id="g2"
   style="fill:#000080;fill-opacity:1">
	<path
   d="M483.932,47.29c-26.72,21.71-55.73,42.46-89.55,51.16c-20.05,5.17-41.561,4.15-61.05-2.83   c-32.49-11.5-59.341-34.58-91.771-46.22c-19.03-7.16-39.91-9.12-59.95-5.83c-29.68,4.86-56.739,19.26-81.62,35.58   c-0.1,86.75-0.039,173.51-0.029,260.27c25.46-16.641,53.189-31.38,83.63-35.891c21.93-3.389,44.66,0.061,64.97,8.871   c27.48,11.369,51.18,30.14,78.811,41.209c19.33,7.971,41,10.641,61.529,6.311c36.04-7.58,66.9-29.439,94.97-52.29   C484.092,220.859,483.972,134.07,483.932,47.29z"
   id="path1"
   style="fill:#000080;fill-opacity:1" />
	<path
   d="M73.5,426.784V73.216c9.064-6.325,15-16.824,15-28.716c0-19.33-15.67-35-35-35s-35,15.67-35,35   c0,11.892,5.936,22.391,15,28.716v353.568c-9.064,6.325-15,16.824-15,28.716c0,19.33,15.67,35,35,35s35-15.67,35-35   C88.5,443.608,82.565,433.109,73.5,426.784z"
   id="path2"
   style="fill:#000080;fill-opacity:1" />
</g><path
   d="M 248.6712,0.2130675 C 247.03702,0.39228547 241.46445,0.92473521 236.30898,1.3964571 176.33154,6.9119032 115.01542,37.328118 72.668263,82.60129 25.840653,132.6685 0.72195248,195.0556 0.44050034,261.72831 -0.01331396,376.87887 75.46734,474.96549 186.50178,503.58265 c 65.11537,16.78126 137.77029,5.73583 196.30218,-29.81848 58.40311,-35.52334 100.36792,-90.61683 118.69644,-155.90261 6.29081,-22.36811 7.97589,-33.77133 8.92512,-60.27404 0.94921,-26.5027 0.0816,-37.9257 -4.60382,-60.37882 C 484.25485,93.59167 401.9776,16.845944 296.70017,2.1519813 287.68071,0.89892834 254.75771,-0.41134054 248.6712,0.2130675 m 41.62212,49.8248635 c 22.07287,3.049002 42.58967,9.443682 62.71723,19.576815 21.88235,11.042117 36.86574,22.222674 54.30824,40.489494 17.4425,18.26681 27.9307,33.76162 37.98015,56.16034 13.15127,29.36206 18.55369,57.64078 17.36059,90.95301 -1.20686,33.69583 -8.65756,61.71513 -24.34193,91.49344 -5.89006,11.17878 -17.60671,29.09185 -22.99447,35.15799 l -1.82934,2.06443 L 273.12431,238.89708 132.7218,91.892418 l 2.13699,-1.742259 c 6.27988,-5.131855 24.64129,-16.08614 36.03789,-21.498155 38.0532,-18.060864 78.17267,-24.30571 119.39664,-18.614073 m -51.79134,222.520049 140.27716,146.93971 -2.1985,1.67784 c -7.84353,6.01513 -25.02992,16.24301 -36.06865,21.46593 -20.38963,9.65944 -41.29603,15.92517 -64.10614,19.20218 -13.60335,1.97324 -42.70327,1.74786 -56.15775,-0.43492 C 158.43062,451.46435 107.19134,417.07452 76.037727,364.58059 69.595325,353.754 61.33441,334.88674 57.33334,321.84054 46.151258,285.6184 45.509669,245.60851 55.406511,207.21518 c 6.628659,-25.56333 21.044578,-54.67989 37.705266,-76.07229 2.342322,-3.01981 4.441821,-5.49787 4.697083,-5.49589 0.223357,0.002 63.54004,66.1117 140.69312,146.91098"
   stroke="none"
   fill-rule="evenodd"
   fill="#000000"
   id="path1-0"
   style="fill:#ff0000;fill-opacity:1;stroke-width:31.943" />
</svg>
