<?xml version="1.0" encoding="UTF-8" standalone="no"?>
<!-- Generator: Adobe Illustrator 14.0.0, SVG Export Plug-In  -->

<svg
   version="1.1"
   x="0px"
   y="0px"
   width="80px"
   height="80px"
   viewBox="5908.141 3505.547 80 80"
   enable-background="new 5908.141 3505.547 80 80"
   xml:space="preserve"
   id="svg2"
   sodipodi:docname="unhide_menu.svg"
   inkscape:version="1.4 (86a8ad7, 2024-10-11)"
   xmlns:inkscape="http://www.inkscape.org/namespaces/inkscape"
   xmlns:sodipodi="http://sodipodi.sourceforge.net/DTD/sodipodi-0.dtd"
   xmlns="http://www.w3.org/2000/svg"
   xmlns:svg="http://www.w3.org/2000/svg"><sodipodi:namedview
   id="namedview2"
   pagecolor="#ffffff"
   bordercolor="#000000"
   borderopacity="0.25"
   inkscape:showpageshadow="2"
   inkscape:pageopacity="0.0"
   inkscape:pagecheckerboard="0"
   inkscape:deskcolor="#d1d1d1"
   inkscape:zoom="7.2036503"
   inkscape:cx="32.344713"
   inkscape:cy="43.241966"
   inkscape:window-width="1920"
   inkscape:window-height="1017"
   inkscape:window-x="-8"
   inkscape:window-y="-8"
   inkscape:window-maximized="1"
   inkscape:current-layer="svg2" />
<defs
   id="defs1">
</defs>
<rect
   display="none"
   fill="#171D23"
   width="10796.642"
   height="8336.548"
   id="rect1" />
<path
   fill="#c1272d"
   d="m 5986.4456,3541.8638 c -2.8375,-6.0578 -6.8211,-11.1911 -11.5754,-15.2201 l -4.6657,6.5624 c 3.8877,2.971 7.218,6.718 9.6902,11.1063 -3.4982,6.2123 -8.6895,11.1672 -14.7886,14.3995 1.8409,-4.1968 2.923,-9.1193 2.923,-14.3995 0,-2.4575 -0.2418,-4.829 -0.6777,-7.0921 l -5.6864,7.9944 c -0.3177,9.2263 -5.4119,16.719 -11.8815,17.6407 -0.2269,0.012 -0.4539,0.015 -0.6809,0.024 l -6.0568,8.5183 c 1.3047,0.1736 2.6199,0.31 3.9531,0.3562 0.4771,0.049 0.9522,0.1005 1.4377,0.1005 0.4856,0 0.9606,-0.052 1.4376,-0.1005 15.6277,-0.5506 29.5508,-10.0055 36.5702,-24.9941 l 1.1464,-2.4456 z"
   id="path1"
   style="stroke-width:1.2516" />
<path
   fill="#c1272d"
   d="m 5925.858,3582.9773 49.6413,-69.8071 -4.2919,-6.0341 -8.6916,12.2224 c -3.9257,-1.4572 -8.09,-2.2958 -12.3851,-2.4754 -0.5584,-0.067 -1.121,-0.1185 -1.692,-0.1185 -0.571,0 -1.1326,0.052 -1.6921,0.1185 -15.5253,0.6443 -29.3384,10.0751 -36.3221,24.9823 l -1.1464,2.4487 1.1464,2.4485 c 4.1125,8.7765 10.5947,15.6579 18.3975,19.9706 l -7.2581,10.2057 z m 21.1789,-57.2048 c 0.4666,-0.018 0.9321,-0.047 1.4007,-0.047 0.4687,0 0.9342,0.03 1.3997,0.047 2.1861,0.3251 4.2139,1.3993 5.9545,3.0378 l -18.3817,25.8459 c -1.4123,-2.9621 -2.2378,-6.5194 -2.2378,-10.3421 0,-9.6183 5.2071,-17.5532 11.8646,-18.5416 z m -30.0615,18.5416 c 3.4971,-6.2064 8.6863,-11.1616 14.7832,-14.3938 -1.8389,4.194 -2.9197,9.1165 -2.9197,14.3938 0,5.277 1.0808,10.1996 2.9229,14.3934 -6.0981,-3.2321 -11.2883,-8.1859 -14.7864,-14.3934 z"
   id="path2"
   style="stroke-width:1.2516" /><path
   d="m 5947.1086,3506.233 c -0.2547,0.028 -1.123,0.1108 -1.9261,0.1842 -9.3447,0.8599 -18.8979,5.6013 -25.4957,12.6586 -7.2959,7.8045 -11.2095,17.5295 -11.2534,27.9226 -0.07,17.9499 11.6894,33.2399 28.989,37.7007 10.1451,2.616 21.465,0.8942 30.5845,-4.648 9.0993,-5.5375 15.6376,-14.1256 18.4933,-24.3025 0.98,-3.4869 1.2426,-5.2644 1.3904,-9.3957 0.148,-4.1313 0.013,-5.912 -0.7172,-9.412 -3.3602,-16.152 -16.1791,-28.1152 -32.5817,-30.4058 -1.4053,-0.1953 -6.5349,-0.3995 -7.4831,-0.3021 m 6.4849,7.7667 c 3.4389,0.4752 6.6355,1.472 9.7715,3.0517 3.4094,1.7211 5.7438,3.4641 8.4613,6.3115 2.7177,2.8476 4.3517,5.2629 5.9175,8.7544 2.0489,4.577 2.8907,8.9851 2.7048,14.178 -0.1879,5.2525 -1.3489,9.6203 -3.7926,14.2622 -0.9177,1.7426 -2.7432,4.5349 -3.5825,5.4804 l -0.285,0.3219 -21.8701,-22.9204 -21.8751,-22.9154 0.3329,-0.2716 c 0.9784,-0.7999 3.8393,-2.5075 5.6149,-3.3511 5.9288,-2.8154 12.1795,-3.7888 18.6024,-2.9016 m -8.0694,34.6868 21.8557,22.9054 -0.3426,0.2615 c -1.222,0.9376 -3.8997,2.5319 -5.6196,3.3462 -3.1767,1.5057 -6.434,2.4824 -9.9879,2.9932 -2.1194,0.3076 -6.6533,0.2724 -8.7495,-0.068 -9.6314,-1.5501 -17.6147,-6.9108 -22.4684,-15.0937 -1.0038,-1.6876 -2.2909,-4.6287 -2.9143,-6.6623 -1.7421,-5.6464 -1.8421,-11.8833 -0.3002,-17.8681 1.0327,-3.9848 3.2788,-8.5236 5.8746,-11.8583 0.365,-0.4707 0.692,-0.8569 0.7318,-0.8567 0.035,0 9.8998,10.3057 21.9204,22.9007"
   stroke="none"
   fill-rule="evenodd"
   fill="#000000"
   id="path1-0"
   style="fill:#ff0000;fill-opacity:1;stroke-width:4.97807" />
</svg>
