<?xml version="1.0" encoding="UTF-8" standalone="no"?>
<svg
   version="1.1"
   id="Layer_1"
   x="0px"
   y="0px"
   width="100%"
   viewBox="0 0 512 512"
   enable-background="new 0 0 512 512"
   xml:space="preserve"
   sodipodi:docname="unreview.svg"
   inkscape:version="1.4 (86a8ad7, 2024-10-11)"
   xmlns:inkscape="http://www.inkscape.org/namespaces/inkscape"
   xmlns:sodipodi="http://sodipodi.sourceforge.net/DTD/sodipodi-0.dtd"
   xmlns="http://www.w3.org/2000/svg"
   xmlns:svg="http://www.w3.org/2000/svg"><defs
   id="defs8" /><sodipodi:namedview
   id="namedview8"
   pagecolor="#ffffff"
   bordercolor="#000000"
   borderopacity="0.25"
   inkscape:showpageshadow="2"
   inkscape:pageopacity="0.0"
   inkscape:pagecheckerboard="0"
   inkscape:deskcolor="#d1d1d1"
   inkscape:zoom="1.5917969"
   inkscape:cx="255.68589"
   inkscape:cy="258.51288"
   inkscape:window-width="1920"
   inkscape:window-height="1017"
   inkscape:window-x="-8"
   inkscape:window-y="-8"
   inkscape:window-maximized="1"
   inkscape:current-layer="Layer_1" />
<path
   fill="#000080"
   opacity="1.000000"
   stroke="none"
   d=" M1.000000,104.468658   C3.663818,102.798050 5.443126,100.538261 7.431965,98.549744   C26.634615,79.350273 45.846169,60.159439 64.963638,40.875393   C67.246727,38.572407 69.588142,37.585320 72.852951,37.588783   C147.991058,37.668480 223.129349,37.695827 298.267273,37.558006   C303.104218,37.549137 304.470184,38.967587 304.443024,43.759850   C304.254120,77.079483 304.397156,110.400894 304.270020,143.721115   C304.253448,148.052811 305.208008,149.969543 310.044403,150.936340   C343.875244,157.699310 369.034912,176.325439 384.607910,207.297195   C392.828766,223.646988 396.420959,241.222244 395.186493,259.388763   C393.729004,280.836700 386.688477,300.519745 373.383728,317.691803   C372.166840,319.262421 370.235138,320.764160 372.300629,322.799530   C382.356110,332.708466 392.493958,342.533752 403.584412,353.345764   C408.022797,347.986237 412.573761,342.490814 417.124725,336.995392   C420.271851,338.660858 421.373779,340.224060 422.632385,341.480988   C450.568542,369.379425 478.452332,397.330383 506.409821,425.207397   C509.595978,428.384399 511.332001,432.238922 512.897461,436.663025   C513.000000,442.688049 513.000000,448.376068 513.000000,454.532043   C508.578064,464.824585 501.981812,472.265167 491.174011,475.248474   C478.686401,478.695496 468.053131,474.892334 459.273041,466.222595   C432.118011,439.408844 405.260986,412.293427 378.216370,385.367340   C375.323975,382.487549 375.179413,380.298889 378.318176,377.543854   C381.566864,374.692322 384.402435,371.375427 387.566986,368.420868   C389.556519,366.563354 389.808990,365.001007 387.800842,363.002930   C378.705078,353.952972 369.651154,344.860809 360.617035,335.749268   C358.939972,334.057831 357.605713,333.824615 355.535370,335.456329   C332.994904,353.220581 307.028198,359.986450 278.903137,357.107300   C256.051422,354.767975 236.059479,345.184418 219.111130,329.261047   C203.560989,314.651276 193.489014,296.876556 189.072571,276.351074   C182.292038,244.838593 188.301331,215.592911 208.160782,189.793594   C225.718567,166.984390 249.097778,153.946350 277.484772,149.721466   C277.649017,149.696991 277.817230,149.700745 277.982941,149.684616   C288.678223,148.643997 288.668915,148.643936 288.665710,137.707993   C288.658173,111.875763 288.550110,86.042641 288.758972,60.212120   C288.797150,55.492203 287.208618,54.282578 282.719086,54.290539   C217.055450,54.407009 151.391495,54.405323 85.727791,54.306282   C81.646965,54.300129 80.208694,55.460213 80.257072,59.669147   C80.454369,76.832817 80.345261,94.000061 80.338310,111.165993   C80.335396,118.366684 80.323265,118.369087 72.859459,118.370407   C56.026848,118.373390 39.192825,118.493393 22.362576,118.294647   C17.918179,118.242165 16.244471,119.414925 16.249750,124.180832   C16.369383,232.176071 16.358961,340.171478 16.276121,448.166779   C16.273024,452.204407 17.408304,453.719452 21.637486,453.714966   C108.966980,453.622650 196.296616,453.626526 283.626129,453.716736   C287.668915,453.720917 288.738495,452.205078 288.715271,448.415344   C288.589569,427.917023 288.781006,407.416229 288.570557,386.919312   C288.523071,382.295502 289.602081,380.370636 294.620697,380.560791   C305.750000,380.982452 304.287567,379.558746 304.316437,390.130707   C304.384247,414.962799 304.259033,439.795654 304.413788,464.626953   C304.439819,468.804779 303.483063,470.460968 298.893219,470.455139   C200.730972,470.330292 102.568542,470.355835 4.406141,470.346741   C3.575171,470.346680 2.744210,470.273041 1.456622,470.116882   C1.000000,348.312439 1.000000,226.624878 1.000000,104.468658  M320.434540,171.204620   C312.054077,168.495010 303.600830,166.669205 294.681671,166.232971   C271.813354,165.114471 251.448334,171.819489 234.602234,186.770981   C207.473648,210.848495 197.165298,241.143509 206.715775,276.645935   C216.055130,311.363586 245.652939,336.889252 281.700684,340.398560   C313.079773,343.453430 339.546173,332.314240 359.287964,307.353577   C374.826965,287.706818 381.706573,265.075134 377.325867,240.207901   C371.494415,207.105469 352.577454,184.013947 320.434540,171.204620  M417.296844,362.991943   C413.498016,366.718811 409.666473,370.413025 405.907410,374.179596   C398.656860,381.444550 398.679230,381.456085 405.841156,388.629974   C427.116119,409.940491 448.318268,431.324554 469.718536,452.508423   C473.796936,456.545654 478.357666,460.742462 484.924316,459.366425   C490.483795,458.201385 494.590515,454.942749 496.146271,449.240143   C497.615112,443.856171 496.357483,439.380188 492.194611,435.254547   C468.562805,411.834015 445.118225,388.224609 421.591888,364.697510   C420.574341,363.679993 419.685547,362.275299 417.296844,362.991943  M41.796082,88.299477   C37.783054,92.401871 33.770027,96.504257 28.773451,101.612099   C40.670628,101.612099 51.123703,101.618698 61.576756,101.606461   C63.631523,101.604057 64.607735,100.472794 64.608810,98.467361   C64.614502,87.883018 64.611481,77.298668 64.611481,66.714325   C64.234314,66.508141 63.857143,66.301956 63.479973,66.095779   C56.420799,73.331482 49.361629,80.567184 41.796082,88.299477  z"
   id="path1" />
<path
   fill="#000080"
   opacity="1.000000"
   stroke="none"
   d=" M166.972382,166.366272   C134.653503,166.370819 102.828743,166.271988 71.006042,166.482407   C65.945786,166.515869 64.351646,165.027710 64.560455,159.972839   C65.051521,148.084793 63.190742,149.709320 75.044098,149.679108   C107.034592,149.597549 139.026123,149.755905 171.015411,149.544037   C176.092453,149.510422 178.147919,151.032623 177.350662,156.047546   C177.324829,156.210022 177.349991,156.380295 177.347610,156.546875   C177.186111,167.835098 178.607269,166.182205 166.972382,166.366272  z"
   id="path2" />
<path
   fill="#000080"
   opacity="1.000000"
   stroke="none"
   d=" M79.006027,246.400482   C77.674400,246.399490 76.841202,246.399475 76.008011,246.396683   C64.130714,246.356949 62.608974,244.439072 64.697433,232.482101   C65.009270,230.696732 65.721237,229.768890 67.521584,229.722137   C68.021088,229.709152 68.520218,229.664276 69.019524,229.664261   C103.680489,229.663376 138.341507,229.689194 173.002350,229.628174   C176.201614,229.622543 177.437363,230.779236 177.377777,234.013733   C177.101227,249.025070 179.173553,246.233047 165.490112,246.318970   C136.829193,246.498947 108.166451,246.390305 79.006027,246.400482  z"
   id="path3" />
<path
   fill="#000080"
   opacity="1.000000"
   stroke="none"
   d=" M78.008987,309.652405   C109.336571,309.652710 140.165924,309.758636 170.993118,309.548279   C176.030197,309.513947 177.657181,310.945831 177.451385,316.026337   C176.963562,328.070038 178.733749,326.287598 166.984680,326.322266   C134.823181,326.417023 102.661079,326.321838 70.499718,326.438934   C66.471283,326.453613 64.404503,325.695618 64.568794,320.984772   C65.039398,307.491394 62.942535,309.933533 76.010414,309.654205   C76.510071,309.643524 77.010155,309.652679 78.008987,309.652405  z"
   id="path4" />
<path
   fill="#000080"
   opacity="1.000000"
   stroke="none"
   d=" M121.999878,198.370880   C104.504189,198.372391 87.506828,198.243210 70.513916,198.460861   C65.951790,198.519287 64.415802,197.085388 64.573715,192.488464   C65.011192,179.753845 63.081646,181.751923 75.508606,181.685852   C96.835930,181.572449 118.165298,181.763687 139.491409,181.567062   C144.049133,181.525040 145.585983,182.922882 145.430542,187.522629   C144.997589,200.333847 146.872589,198.118713 134.496613,198.352600   C130.499023,198.428146 126.498863,198.368271 121.999878,198.370880  z"
   id="path5" />
<path
   fill="#000080"
   opacity="1.000000"
   stroke="none"
   d=" M103.999886,278.375488   C92.334709,278.376984 81.166740,278.235138 70.005829,278.453705   C65.863205,278.534821 64.474113,277.116943 64.593163,272.994385   C64.981804,259.535675 62.935066,261.763336 76.005920,261.683716   C97.168953,261.554779 118.334389,261.763153 139.496384,261.566895   C144.055298,261.524628 145.588303,262.921021 145.432007,267.520416   C144.997818,280.298248 146.887466,278.187225 134.495544,278.342865   C124.498444,278.468445 114.498550,278.372742 103.999886,278.375488  z"
   id="path6" />
<path
   fill="#000080"
   opacity="1.000000"
   stroke="none"
   d=" M93.000130,341.657257   C103.830994,341.658173 114.163544,341.765900 124.491814,341.602997   C128.153641,341.545258 129.478836,342.826599 129.397522,346.520569   C129.083466,360.788391 131.015625,358.172241 117.992607,358.314301   C102.164871,358.487030 86.331932,358.227356 70.505630,358.457367   C65.947044,358.523590 64.407913,357.091125 64.569244,352.492767   C65.015709,339.766907 63.062210,341.864227 75.504440,341.670807   C81.168365,341.582733 86.834816,341.656830 93.000130,341.657257  z"
   id="path7" />
<path
   fill="#000080"
   opacity="1.000000"
   stroke="none"
   d=" M222.901901,250.940842   C220.583969,248.924179 220.425247,247.286850 222.544006,245.304993   C238.943176,229.965652 257.053375,217.436478 279.732483,213.951859   C294.676727,211.655701 309.234650,213.888626 323.246613,220.490219   C337.744812,227.320908 350.423767,236.228607 361.192810,248.298782   C358.327637,252.523224 354.512543,255.387421 350.682953,258.263000   C348.217224,260.114502 347.036102,258.046692 345.709259,256.728424   C341.262756,252.310745 336.895355,247.814285 330.435516,244.809845   C332.240570,253.016113 331.080200,260.437378 328.608276,267.667755   C323.766083,281.831146 308.090454,293.634521 292.513489,293.534424   C274.677551,293.419739 261.985138,285.894257 254.115128,270.176392   C251.099930,264.154541 250.435562,257.512970 250.587479,250.761078   C250.690735,246.171753 249.463715,245.515564 245.748962,248.152893   C242.248077,250.638367 238.748322,253.289169 235.863815,256.432343   C233.062515,259.484833 230.988968,259.162109 228.462799,256.503174   C226.741974,254.691864 224.928101,252.968948 222.901901,250.940842  M302.994690,233.473206   C291.156036,226.314362 276.232269,231.415436 270.369751,242.164139   C263.993042,253.855484 268.009918,267.076538 280.590302,274.214478   C290.766693,279.988434 304.476624,275.682098 310.846008,265.235535   C317.113068,254.956863 314.934448,242.197037 302.994690,233.473206  z"
   id="path8" />
<path
   d="M 249.7729,0.68125803 C 248.1397,0.86090905 242.57195,1.3921389 237.4223,1.8630674 177.50195,7.3801004 116.24465,37.800453 73.938041,83.079391 27.155062,133.15228 2.0601662,195.54693 1.7786695,262.22802 1.3298133,377.3928 76.733773,475.49194 187.66275,504.11197 c 65.0527,16.78401 137.63849,5.73711 196.11481,-29.82111 58.3468,-35.52805 100.27187,-90.62845 118.58327,-155.92242 6.28399,-22.37161 7.96784,-33.77586 8.91555,-60.28189 0.94902,-26.506 0.0834,-37.9308 -4.59884,-60.38644 C 485.13117,94.070469 402.93346,17.315764 297.75624,2.6195013 288.74512,1.3664773 255.85297,0.05634952 249.7729,0.68125803 M 291.35557,50.511635 c 22.05099,3.048835 42.54833,9.444205 62.65708,19.579404 21.86185,11.042407 36.83055,22.225323 54.25578,40.493961 17.42651,18.26991 27.90408,33.76625 37.94436,56.16736 13.13802,29.36558 18.53583,57.64752 17.3438,90.96464 -1.20485,33.69952 -8.64946,61.72289 -24.31902,91.50486 -5.88449,11.18035 -17.59003,29.09548 -22.97181,35.16171 l -1.82749,2.06528 -140.23608,-147.055 -140.26813,-147.022952 2.13463,-1.742561 c 6.27373,-5.132077 24.61847,-16.087871 36.00402,-21.500323 38.01682,-18.063328 78.09773,-24.308566 119.28286,-18.616379 m -51.74286,222.547075 140.14374,146.95876 -2.19683,1.67777 c -7.83573,6.01555 -25.00577,16.24442 -36.03415,21.46888 -20.36972,9.66042 -41.25628,15.92685 -64.04471,19.20407 -13.59007,1.97355 -42.66247,1.74769 -56.1038,-0.43627 C 159.61825,451.98664 108.42749,417.59292 77.304463,365.09223 70.867868,354.26477 62.614687,335.39496 58.617305,322.34757 47.446563,286.12085 46.805337,246.10551 56.692353,207.70763 c 6.621909,-25.56609 21.024415,-54.68658 37.66928,-76.08168 2.340464,-3.01997 4.437263,-5.49779 4.69246,-5.4965 0.224437,0 63.479787,66.12035 140.558617,146.92862"
   stroke="none"
   fill-rule="evenodd"
   fill="#000000"
   id="path1-0"
   style="fill:#ff0000;fill-opacity:1;stroke-width:31.9296" /></svg>
