<?xml version="1.0" encoding="utf-8"?>
<!-- Generator: Adobe Illustrator 14.0.0, SVG Export Plug-In  -->
<!DOCTYPE svg PUBLIC "-//W3C//DTD SVG 1.1//EN" "http://www.w3.org/Graphics/SVG/1.1/DTD/svg11.dtd" [
	<!ENTITY ns_flows "http://ns.adobe.com/Flows/1.0/">
]>
<svg version="1.1"
	 xmlns="http://www.w3.org/2000/svg" xmlns:xlink="http://www.w3.org/1999/xlink" xmlns:a="http://ns.adobe.com/AdobeSVGViewerExtensions/3.0/"
	 x="0px" y="0px" width="270px" height="90px" viewBox="-7.192 -7.767 270 90" enable-background="new -7.192 -7.767 270 90"
	 xml:space="preserve">
<defs>
</defs>
<path d="M22.473,61.266h2.018L26.59,72.85h0.04l2.099-11.584h2.018l-2.967,14.57h-2.341L22.473,61.266z"/>
<path d="M32.641,65.639h3.842v1.187h-2.43v3.191h2.288v1.187h-2.288v3.446h2.43v1.187h-3.842V65.639z"/>
<path d="M37.5,65.639h4.802v1.187h-1.695v9.011h-1.413v-9.011H37.5V65.639z"/>
<path d="M43.757,65.639h3.841v1.187h-2.429v3.191h2.288v1.187h-2.288v3.446h2.429v1.187h-3.841V65.639z"/>
<path d="M49.054,65.639h2.189c2.062,0,2.274,0.551,2.274,2.782c0,1.37-0.184,1.964-1.342,2.316v0.028
	c0.96,0.099,1.285,0.593,1.285,1.554v2.218c0,0.366,0,0.875,0.085,1.299h-1.328c-0.142-0.254-0.169-0.509-0.169-0.918v-2.303
	c0-0.96-0.169-1.214-1.102-1.214h-0.48v4.435h-1.412V65.639z M50.466,70.215h0.367c1.116,0,1.271-0.212,1.271-1.737
	c0-1.512-0.084-1.652-0.96-1.652h-0.678V70.215z"/>
<path d="M57.274,65.639h1.638l2.076,10.197h-1.412l-0.466-2.599h-2.203l-0.466,2.599h-1.413L57.274,65.639z M57.119,72.051h1.793
	l-0.875-4.915h-0.028L57.119,72.051z"/>
<path d="M62.515,65.639h1.949l1.667,8.474h0.028v-8.474h1.328v10.197h-2.034l-1.667-8.7h-0.028v8.7h-1.243V65.639z"/>
<path d="M69.886,61.266h2.139l-1.13,3.593h-1.453L69.886,61.266z"/>
<path d="M74.188,72.885H75.6v0.832c0,0.679,0.254,1.103,0.819,1.103c0.749,0,0.933-0.509,0.933-1.173
	c0-0.861-0.042-1.144-1.512-2.599c-0.904-0.904-1.652-1.723-1.652-3.107c0-1.667,0.777-2.387,2.316-2.387
	c0.763,0,1.313,0.254,1.652,0.565c0.24,0.226,0.41,0.579,0.41,1.299v0.96h-1.328v-0.805c0-0.579-0.24-0.918-0.791-0.918
	c-0.579,0-0.848,0.325-0.848,1.116c0,0.691,0.142,1.115,1.441,2.472c1.384,1.44,1.639,1.935,1.639,3.164
	c0,1.596-0.622,2.514-2.303,2.514c-1.299,0-2.189-0.551-2.189-1.821V72.885z"/>
<path d="M85.605,61.266h3.249c3.27,0,3.532,1.091,3.532,5.328v4.338c0,3.734-0.666,4.904-3.854,4.904h-2.926V61.266z M87.623,74.141
	h0.968c1.494,0,1.776-0.787,1.776-3.289v-5.005c0-2.159-0.222-2.885-1.937-2.885h-0.807V74.141z"/>
<path d="M94.762,65.639h1.412v10.197h-1.412V65.639z"/>
<path d="M97.87,72.885h1.412v0.832c0,0.679,0.254,1.103,0.819,1.103c0.749,0,0.932-0.509,0.932-1.173
	c0-0.861-0.042-1.144-1.511-2.599c-0.904-0.904-1.652-1.723-1.652-3.107c0-1.667,0.776-2.387,2.316-2.387
	c0.763,0,1.313,0.254,1.652,0.565c0.24,0.226,0.41,0.579,0.41,1.299v0.96h-1.328v-0.805c0-0.579-0.24-0.918-0.791-0.918
	c-0.58,0-0.848,0.325-0.848,1.116c0,0.691,0.141,1.115,1.441,2.472c1.384,1.44,1.638,1.935,1.638,3.164
	c0,1.596-0.622,2.514-2.302,2.514c-1.299,0-2.189-0.551-2.189-1.821V72.885z"/>
<path d="M105.978,65.639h1.638l2.076,10.197h-1.412l-0.466-2.599h-2.203l-0.466,2.599h-1.413L105.978,65.639z M105.822,72.051h1.794
	l-0.875-4.915h-0.028L105.822,72.051z"/>
<path d="M111.218,65.639h2.458c1.737,0,2.034,0.607,2.034,2.472c0,2.005-0.325,2.331-1.285,2.457v0.028
	c1.13,0.212,1.356,0.594,1.356,2.331c0,2.203-0.283,2.909-2.345,2.909h-2.217V65.639z M112.63,70.017h0.819
	c0.848,0,0.932-0.169,0.932-1.836c0-1.158-0.184-1.44-1.087-1.44h-0.664V70.017z M112.63,74.734h0.876
	c0.805,0,0.946-0.24,0.946-1.85c0-1.54-0.127-1.767-0.904-1.767h-0.918V74.734z"/>
<path d="M117.517,65.639h1.413v10.197h-1.413V65.639z"/>
<path d="M120.78,65.639h1.413v9.011h2.373v1.187h-3.785V65.639z"/>
<path d="M126.035,65.639h1.413v10.197h-1.413V65.639z"/>
<path d="M128.859,65.639h4.803v1.187h-1.695v9.011h-1.412v-9.011h-1.695V65.639z"/>
<path d="M134.806,65.639h1.413l1.229,4.293h0.028l1.413-4.293h1.243l-1.963,6.017v4.181h-1.413v-4.181L134.806,65.639z"/>
<path d="M146.679,64.979c0-2.038,0.666-3.834,3.41-3.834c1.998,0,2.926,1.009,2.926,2.644v1.452h-1.896v-1.008
	c0-0.929-0.323-1.514-1.17-1.514c-1.049,0-1.251,0.746-1.251,2.502v7.144c0,1.715,0.545,2.018,1.191,2.018
	c0.747,0,1.231-0.524,1.231-1.734v-1.01h1.896v1.614c0,1.534-0.625,2.704-2.966,2.704c-2.543,0-3.37-1.352-3.37-3.612V64.979z"/>
<path d="M154.991,65.639h1.412v9.011h2.373v1.187h-3.785V65.639z"/>
<path d="M162.166,65.639h1.638l2.076,10.197h-1.412l-0.466-2.599h-2.204l-0.466,2.599h-1.412L162.166,65.639z M162.011,72.051h1.793
	l-0.875-4.915H162.9L162.011,72.051z"/>
<path d="M167.364,65.639h1.412v10.197h-1.412V65.639z"/>
<path d="M170.627,65.639h2.246l1.299,7.769h0.028l1.299-7.769h2.189v10.197h-1.328v-9.181h-0.028l-1.441,9.181h-1.412l-1.582-9.181
	h-0.028v9.181h-1.243V65.639z"/>
<path d="M179.426,72.885h1.413v0.832c0,0.679,0.254,1.103,0.819,1.103c0.749,0,0.933-0.509,0.933-1.173
	c0-0.861-0.042-1.144-1.511-2.599c-0.904-0.904-1.653-1.723-1.653-3.107c0-1.667,0.777-2.387,2.316-2.387
	c0.763,0,1.313,0.254,1.652,0.565c0.24,0.226,0.41,0.579,0.41,1.299v0.96h-1.328v-0.805c0-0.579-0.24-0.918-0.791-0.918
	c-0.579,0-0.847,0.325-0.847,1.116c0,0.691,0.141,1.115,1.44,2.472c1.384,1.44,1.639,1.935,1.639,3.164
	c0,1.596-0.622,2.514-2.302,2.514c-1.299,0-2.189-0.551-2.189-1.821V72.885z"/>
<path d="M192.781,61.266h2.341l2.966,14.57h-2.018l-0.666-3.713h-3.147l-0.666,3.713h-2.018L192.781,61.266z M192.559,70.428h2.563
	l-1.251-7.022h-0.041L192.559,70.428z"/>
<path d="M199.888,72.885h1.412v0.832c0,0.679,0.254,1.103,0.819,1.103c0.749,0,0.932-0.509,0.932-1.173
	c0-0.861-0.042-1.144-1.511-2.599c-0.904-0.904-1.652-1.723-1.652-3.107c0-1.667,0.776-2.387,2.316-2.387
	c0.763,0,1.313,0.254,1.653,0.565c0.24,0.226,0.409,0.579,0.409,1.299v0.96h-1.328v-0.805c0-0.579-0.24-0.918-0.791-0.918
	c-0.579,0-0.848,0.325-0.848,1.116c0,0.691,0.141,1.115,1.441,2.472c1.384,1.44,1.638,1.935,1.638,3.164
	c0,1.596-0.622,2.514-2.302,2.514c-1.299,0-2.189-0.551-2.189-1.821V72.885z"/>
<path d="M205.961,72.885h1.412v0.832c0,0.679,0.254,1.103,0.819,1.103c0.749,0,0.933-0.509,0.933-1.173
	c0-0.861-0.042-1.144-1.512-2.599c-0.903-0.904-1.652-1.723-1.652-3.107c0-1.667,0.777-2.387,2.316-2.387
	c0.763,0,1.313,0.254,1.652,0.565c0.24,0.226,0.41,0.579,0.41,1.299v0.96h-1.328v-0.805c0-0.579-0.24-0.918-0.791-0.918
	c-0.579,0-0.848,0.325-0.848,1.116c0,0.691,0.141,1.115,1.441,2.472c1.384,1.44,1.639,1.935,1.639,3.164
	c0,1.596-0.622,2.514-2.303,2.514c-1.299,0-2.189-0.551-2.189-1.821V72.885z"/>
<path d="M212.148,65.639h1.413v10.197h-1.413V65.639z"/>
<path d="M215.255,72.885h1.413v0.832c0,0.679,0.253,1.103,0.819,1.103c0.749,0,0.932-0.509,0.932-1.173
	c0-0.861-0.042-1.144-1.511-2.599c-0.904-0.904-1.653-1.723-1.653-3.107c0-1.667,0.777-2.387,2.316-2.387
	c0.763,0,1.313,0.254,1.653,0.565c0.24,0.226,0.41,0.579,0.41,1.299v0.96h-1.328v-0.805c0-0.579-0.24-0.918-0.791-0.918
	c-0.58,0-0.847,0.325-0.847,1.116c0,0.691,0.141,1.115,1.44,2.472c1.384,1.44,1.639,1.935,1.639,3.164
	c0,1.596-0.622,2.514-2.303,2.514c-1.299,0-2.189-0.551-2.189-1.821V72.885z"/>
<path d="M221.33,72.885h1.412v0.832c0,0.679,0.255,1.103,0.82,1.103c0.748,0,0.932-0.509,0.932-1.173
	c0-0.861-0.042-1.144-1.511-2.599c-0.905-0.904-1.653-1.723-1.653-3.107c0-1.667,0.776-2.387,2.316-2.387
	c0.763,0,1.313,0.254,1.653,0.565c0.24,0.226,0.409,0.579,0.409,1.299v0.96h-1.328v-0.805c0-0.579-0.24-0.918-0.79-0.918
	c-0.58,0-0.848,0.325-0.848,1.116c0,0.691,0.142,1.115,1.441,2.472c1.384,1.44,1.638,1.935,1.638,3.164
	c0,1.596-0.622,2.514-2.302,2.514c-1.3,0-2.189-0.551-2.189-1.821V72.885z"/>
<path d="M227.121,65.639h4.803v1.187h-1.695v9.011h-1.412v-9.011h-1.695V65.639z"/>
<path d="M234.126,65.639h1.639l2.076,10.197h-1.412l-0.466-2.599h-2.203l-0.466,2.599h-1.413L234.126,65.639z M233.972,72.051h1.793
	l-0.875-4.915h-0.028L233.972,72.051z"/>
<path d="M239.367,65.639h1.949l1.667,8.474h0.027v-8.474h1.328v10.197h-2.034l-1.667-8.7h-0.028v8.7h-1.243V65.639z"/>
<path d="M246.077,68.237c0-1.427,0.466-2.684,2.387-2.684c1.398,0,2.048,0.707,2.048,1.851v1.017h-1.328v-0.706
	c0-0.65-0.227-1.06-0.82-1.06c-0.734,0-0.875,0.522-0.875,1.751v5.001c0,1.2,0.381,1.412,0.833,1.412
	c0.522,0,0.862-0.367,0.862-1.215v-0.706h1.328v1.13c0,1.073-0.438,1.893-2.077,1.893c-1.779,0-2.358-0.946-2.358-2.528V68.237z"/>
<path d="M252.052,65.639h3.841v1.187h-2.429v3.191h2.288v1.187h-2.288v3.446h2.429v1.187h-3.841V65.639z"/>
<path fill="#BCBEC0" d="M99.798,0.063h-0.129H97.8l-0.587,1.774l-2.046,6.187l-4.888,14.778l-0.172,0.521L81.902,1.731l-0.634-1.668
	h-1.785H65.228h-3.784l20.175,50.99l0.647,1.633h1.757h0.129h11.818H96.1h1.798l0.627-1.685l14.997-40.309v13.529v15.951v9.925
	v2.587h2.587h0.129h27.258h0.13c3.953,0,7.558-1.286,10.169-3.622c2.89-2.556,4.479-6.338,4.464-10.638l-0.004-24.11
	c0.019-4.289-1.569-8.071-4.472-10.637c-2.604-2.329-6.215-3.617-10.158-3.617h-0.129l-26.02,0.003l0-0.001h-3.723h-0.129H99.798z
	 M132.119,35.167V17.585h7.291v4.551v13.03H132.119z"/>
<path fill="#BCBEC0" d="M253.858,49.071L233.2,1.62l-0.677-1.555h-1.695h-0.13h-9.165h-0.129h-1.779l-0.635,1.664l-3.854,10.084
	l-6.247,16.345l-5.494,14.373c0.342-1.293,0.52-2.669,0.515-4.104l-0.003-4.964l-0.002-2.585h-2.585h-0.13h-13.416h-0.13h-2.587
	v2.587v1.703h-5.773V17.582l5.773,0.003v2.275v2.587h2.587h0.13h13.416h0.13h2.587v-2.587v-5.543
	c0.018-4.291-1.571-8.072-4.472-10.638c-2.601-2.329-6.213-3.617-10.158-3.617h-0.129l-13.762,0.003
	c-3.721,0.005-7.276,1.252-10.012,3.511c-3.152,2.592-4.953,6.512-4.936,10.75l0.001,4.945l0.002,15.951l0,2.357l-0.004,0.846
	c-0.013,4.299,1.576,8.08,4.474,10.646c1.28,1.144,2.807,2.043,4.53,2.663c1.759,0.635,3.652,0.956,5.628,0.956h0.13h13.948h0.13
	c3.942,0,7.554-1.289,10.169-3.627c1.185-1.048,2.146-2.305,2.873-3.716l-1.465,3.832l-1.341,3.511h3.758h0.13h13.704h0.13h1.839
	l0.604-1.738l0.409-1.179l1.188-3.401l4.341,0.002h1.126h0.066h0.065h1.142l4.448-0.002h0.046l1.932,4.712l0.658,1.606h1.736h0.13
	h14.391h0.13h3.948L253.858,49.071z"/>
<polygon fill="#BCBEC0" points="59.203,1.632 58.555,0 56.799,0 3.811,0 0,0 1.407,3.542 20.277,51.059 20.925,52.691 
	22.681,52.691 75.669,52.691 79.48,52.691 78.073,49.149 "/>
<polygon fill="#BB1D2C" points="90.413,31.235 79.552,2.65 65.409,2.65 66.361,5.052 84.222,50.1 96.169,50.1 113.823,2.65 
	99.867,2.65 "/>
<path fill="#BB1D2C" d="M152.138,5.617c-2.246-2.009-5.258-2.968-8.444-2.968l-27.388,0.003v1.752v45.694h27.388
	c0.006,0,0.014,0,0.019,0c3.179,0,6.185-0.959,8.425-2.963c2.258-1.998,3.614-5.041,3.603-8.701l-0.004-24.118
	C155.752,10.656,154.396,7.613,152.138,5.617z M142.194,37.359c0.003,0.194-0.019,0.316-0.039,0.395h-12.555V14.999h12.572
	c0.012,0.065,0.021,0.154,0.021,0.267V37.359z"/>
<path fill="#BB1D2C" d="M187.842,33.463v3.896c0.002,0.194-0.018,0.315-0.038,0.395h-11.04V14.993l11.053,0.005
	c0.012,0.065,0.024,0.154,0.024,0.267v4.594h13.545v-5.543c0.015-3.66-1.341-6.704-3.599-8.7c-2.244-2.009-5.262-2.968-8.445-2.968
	l-13.761,0.003c-2.968,0.004-5.994,0.961-8.365,2.919c-2.37,1.949-4.011,4.999-3.996,8.746l0.004,24.118h-0.004
	c-0.011,3.66,1.347,6.703,3.602,8.701c2.246,2.007,5.258,2.969,8.443,2.969h14.077c3.183,0,6.201-0.962,8.445-2.969
	c2.258-1.998,3.614-5.041,3.602-8.701l-0.003-4.971H187.842z"/>
<path fill="#BB1D2C" d="M230.896,2.652h-9.294l-18.134,47.453h13.833l0.41-1.18l1.797-5.139c1.596-0.002,4.51,0,7.432,0.002
	c2.959-0.002,5.919-0.004,7.502-0.002l2.59,6.318h14.521L230.896,2.652z M229.671,32.07h-6.027l2.81-7.944L229.671,32.07z"/>
<path fill="#C84E4E" d="M81.041,6.909c-5.167-0.892-10.335-2.076-15.502-3.605l0.693,1.749l6.031,15.214
	c4.963,1.191,9.926,2.083,14.888,2.726L81.041,6.909z"/>
<path fill="#C84E4E" d="M105.635,24.31l5.634-15.142c-4.526,0.047-9.051-0.048-13.578-0.331l-4.888,14.778
	C97.081,24.011,101.358,24.233,105.635,24.31z"/>
<path fill="#C84E4E" d="M129.471,23.43v-8.431h12.572c0.012,0.065,0.021,0.154,0.021,0.267v6.871
	c4.514-0.537,9.029-1.141,13.543-1.78l-0.001-6.04c0.016-3.621-1.313-6.635-3.526-8.632c-11.967,1.642-23.935,2.979-35.902,3.375
	v15.164C120.609,24.076,125.04,23.802,129.471,23.43z"/>
<path fill="#C84E4E" d="M176.635,14.993l11.053,0.005c0.012,0.065,0.024,0.154,0.024,0.267v0.43
	c4.514-0.607,9.027-1.168,13.541-1.646c-0.051-3.541-1.392-6.485-3.594-8.433c-2.244-2.009-5.262-2.968-8.444-2.968l-13.761,0.003
	c-2.968,0.004-5.995,0.961-8.366,2.919c-2.37,1.949-4.011,4.999-3.996,8.746l0.001,4.955c4.515-0.667,9.03-1.348,13.542-2.01V14.993
	z"/>
<path fill="#C84E4E" d="M221.472,2.652l-3.852,10.084c5.815-0.296,11.634-0.379,17.454-0.19l-4.308-9.895H221.472z"/>
<path fill="#C84E4E" d="M96.04,50.1l3.735-10.037c-6.868-0.345-13.736-1.098-20.604-2.378L84.092,50.1H96.04z"/>
<path fill="#C84E4E" d="M116.178,50.099h27.387c0.006,0,0.014,0,0.019,0c3.179,0,6.185-0.959,8.426-2.963
	c2.257-1.998,3.614-5.041,3.602-8.701l0-2.127c-13.145,1.862-26.289,3.432-39.433,3.867V50.099z"/>
<path fill="#C84E4E" d="M201.257,33.463h-13.545v3.896c0.002,0.194-0.018,0.315-0.038,0.395h-11.04v-4.542
	c-4.512,0.662-9.025,1.343-13.54,2.01l0,3.212h-0.004c-0.011,3.66,1.347,6.703,3.602,8.701c1.075,0.961,2.33,1.675,3.691,2.166
	c9.608-1.432,19.22-2.846,28.832-3.914c1.307-1.862,2.053-4.237,2.044-6.953L201.257,33.463z"/>
<path fill="#C84E4E" d="M229.542,32.07h-6.028l1.286-3.635c-4.473,0.088-8.949,0.313-13.426,0.646l-5.99,15.671
	c14.563-1.37,29.121-1.772,43.685-0.062l-6.887-15.819c-4.709-0.347-9.419-0.495-14.128-0.475L229.542,32.07z"/>
<polygon fill="#34346A" points="75.737,50.104 22.75,50.104 3.879,2.587 56.867,2.587 "/>
<polygon fill="#FFFFFF" points="19.542,6.76 23.341,12.254 29.13,12.269 25.703,15.68 29.479,21.184 23.561,17.797 20.104,21.184 
	19.874,15.68 13.963,12.269 19.739,12.254 "/>
<polygon fill="#FFFFFF" points="47.605,6.76 51.404,12.254 57.194,12.269 53.767,15.68 57.542,21.184 51.624,17.797 48.167,21.184 
	47.938,15.68 42.027,12.269 47.802,12.254 "/>
<polygon fill="#FFFFFF" points="29.408,33.288 33.208,38.783 38.996,38.797 35.569,42.209 39.344,47.713 33.427,44.326 
	29.97,47.713 29.74,42.209 23.829,38.797 29.605,38.783 "/>
<polygon fill="#FFFFFF" points="38.695,18.818 42.494,24.313 48.284,24.327 44.856,27.738 48.631,33.242 42.713,29.855 
	39.257,33.242 39.027,27.738 33.116,24.327 38.892,24.313 "/>
<polygon fill="#FFFFFF" points="55.717,32.85 59.517,38.346 65.307,38.358 61.878,41.771 65.654,47.273 59.735,43.888 
	56.279,47.273 56.049,41.771 50.139,38.358 55.915,38.346 "/>
</svg>
