<?xml version="1.0" encoding="UTF-8" standalone="no"?>
<!-- Generator: Adobe Illustrator 14.0.0, SVG Export Plug-In  -->

<svg
   version="1.1"
   x="0px"
   y="0px"
   width="270"
   height="68"
   viewBox="-7.192 -7.767 270 68"
   enable-background="new -7.192 -7.767 270 90"
   xml:space="preserve"
   id="svg55"
   sodipodi:docname="vdca-solid-color-top.svg"
   inkscape:version="1.3 (0e150ed6c4, 2023-07-21)"
   xmlns:inkscape="http://www.inkscape.org/namespaces/inkscape"
   xmlns:sodipodi="http://sodipodi.sourceforge.net/DTD/sodipodi-0.dtd"
   xmlns="http://www.w3.org/2000/svg"
   xmlns:svg="http://www.w3.org/2000/svg"><sodipodi:namedview
   id="namedview55"
   pagecolor="#ffffff"
   bordercolor="#000000"
   borderopacity="0.25"
   inkscape:showpageshadow="2"
   inkscape:pageopacity="0.0"
   inkscape:pagecheckerboard="0"
   inkscape:deskcolor="#d1d1d1"
   showgrid="false"
   inkscape:zoom="3.7888889"
   inkscape:cx="135"
   inkscape:cy="45"
   inkscape:window-width="1920"
   inkscape:window-height="1017"
   inkscape:window-x="-8"
   inkscape:window-y="-8"
   inkscape:window-maximized="1"
   inkscape:current-layer="svg55" />&#10;<defs
   id="defs1">&#10;</defs>&#10;&#10;&#10;&#10;&#10;&#10;&#10;&#10;&#10;&#10;&#10;&#10;&#10;&#10;&#10;&#10;&#10;&#10;&#10;&#10;&#10;&#10;&#10;&#10;&#10;&#10;&#10;&#10;&#10;&#10;&#10;&#10;&#10;&#10;&#10;&#10;&#10;<path
   fill="#bcbec0"
   d="M 99.798,0.063 H 99.669 97.8 L 97.213,1.837 95.167,8.024 90.279,22.802 90.107,23.323 81.902,1.731 81.268,0.063 H 79.483 65.228 61.444 l 20.175,50.99 0.647,1.633 h 1.757 0.129 11.818 0.13 1.798 l 0.627,-1.685 14.997,-40.309 v 13.529 15.951 9.925 2.587 h 2.587 0.129 27.258 0.13 c 3.953,0 7.558,-1.286 10.169,-3.622 2.89,-2.556 4.479,-6.338 4.464,-10.638 l -0.004,-24.11 C 158.274,10.025 156.686,6.243 153.783,3.677 151.179,1.348 147.568,0.06 143.625,0.06 h -0.129 l -26.02,0.003 V 0.062 h -3.723 -0.129 -13.826 z m 32.321,35.104 V 17.585 h 7.291 v 4.551 13.03 h -7.291 z"
   id="path37" />&#10;<path
   fill="#bcbec0"
   d="M 253.858,49.071 233.2,1.62 232.523,0.065 h -1.695 -0.13 -9.165 -0.129 -1.779 l -0.635,1.664 -3.854,10.084 -6.247,16.345 -5.494,14.373 c 0.342,-1.293 0.52,-2.669 0.515,-4.104 l -0.003,-4.964 -0.002,-2.585 h -2.585 -0.13 -13.416 -0.13 -2.587 v 2.587 1.703 h -5.773 V 17.582 l 5.773,0.003 v 2.275 2.587 h 2.587 0.13 13.416 0.13 2.587 V 19.86 14.317 C 203.925,10.026 202.336,6.245 199.435,3.679 196.834,1.35 193.222,0.062 189.277,0.062 h -0.129 l -13.762,0.003 c -3.721,0.005 -7.276,1.252 -10.012,3.511 -3.152,2.592 -4.953,6.512 -4.936,10.75 l 0.001,4.945 0.002,15.951 v 2.357 l -0.004,0.846 c -0.013,4.299 1.576,8.08 4.474,10.646 1.28,1.144 2.807,2.043 4.53,2.663 1.759,0.635 3.652,0.956 5.628,0.956 h 0.13 13.948 0.13 c 3.942,0 7.554,-1.289 10.169,-3.627 1.185,-1.048 2.146,-2.305 2.873,-3.716 l -1.465,3.832 -1.341,3.511 h 3.758 0.13 13.704 0.13 1.839 l 0.604,-1.738 0.409,-1.179 1.188,-3.401 4.341,0.002 h 1.126 0.066 0.065 1.142 l 4.448,-0.002 h 0.046 l 1.932,4.712 0.658,1.606 h 1.736 0.13 14.391 0.13 3.948 z"
   id="path38" />&#10;<polygon
   fill="#bcbec0"
   points="20.277,51.059 20.925,52.691 22.681,52.691 75.669,52.691 79.48,52.691 78.073,49.149 59.203,1.632 58.555,0 56.799,0 3.811,0 0,0 1.407,3.542 "
   id="polygon38" />&#10;<polygon
   fill="#bb1d2c"
   points="65.409,2.65 66.361,5.052 84.222,50.1 96.169,50.1 113.823,2.65 99.867,2.65 90.413,31.235 79.552,2.65 "
   id="polygon39" />&#10;<path
   fill="#bb1d2c"
   d="M 152.138,5.617 C 149.892,3.608 146.88,2.649 143.694,2.649 l -27.388,0.003 v 1.752 45.694 h 27.388 c 0.006,0 0.014,0 0.019,0 3.179,0 6.185,-0.959 8.425,-2.963 2.258,-1.998 3.614,-5.041 3.603,-8.701 l -0.004,-24.118 c 0.015,-3.66 -1.341,-6.703 -3.599,-8.699 z m -9.944,31.742 c 0.003,0.194 -0.019,0.316 -0.039,0.395 H 129.6 V 14.999 h 12.572 c 0.012,0.065 0.021,0.154 0.021,0.267 v 22.093 z"
   id="path39" />&#10;<path
   fill="#bb1d2c"
   d="m 187.842,33.463 v 3.896 c 0.002,0.194 -0.018,0.315 -0.038,0.395 h -11.04 V 14.993 l 11.053,0.005 c 0.012,0.065 0.024,0.154 0.024,0.267 v 4.594 h 13.545 v -5.543 c 0.015,-3.66 -1.341,-6.704 -3.599,-8.7 -2.244,-2.009 -5.262,-2.968 -8.445,-2.968 l -13.761,0.003 c -2.968,0.004 -5.994,0.961 -8.365,2.919 -2.37,1.949 -4.011,4.999 -3.996,8.746 l 0.004,24.118 h -0.004 c -0.011,3.66 1.347,6.703 3.602,8.701 2.246,2.007 5.258,2.969 8.443,2.969 h 14.077 c 3.183,0 6.201,-0.962 8.445,-2.969 2.258,-1.998 3.614,-5.041 3.602,-8.701 l -0.003,-4.971 z"
   id="path40" />&#10;<path
   fill="#bb1d2c"
   d="m 230.896,2.652 h -9.294 l -18.134,47.453 h 13.833 l 0.41,-1.18 1.797,-5.139 c 1.596,-0.002 4.51,0 7.432,0.002 2.959,-0.002 5.919,-0.004 7.502,-0.002 l 2.59,6.318 h 14.521 z m -1.225,29.418 h -6.027 l 2.81,-7.944 z"
   id="path41" />&#10;<path
   fill="#c84e4e"
   d="M 81.041,6.909 C 75.874,6.017 70.706,4.833 65.539,3.304 l 0.693,1.749 6.031,15.214 c 4.963,1.191 9.926,2.083 14.888,2.726 z"
   id="path42" />&#10;<path
   fill="#c84e4e"
   d="M 105.635,24.31 111.269,9.168 C 106.743,9.215 102.218,9.12 97.691,8.837 l -4.888,14.778 c 4.278,0.396 8.555,0.618 12.832,0.695 z"
   id="path43" />&#10;<path
   fill="#c84e4e"
   d="m 129.471,23.43 v -8.431 h 12.572 c 0.012,0.065 0.021,0.154 0.021,0.267 v 6.871 c 4.514,-0.537 9.029,-1.141 13.543,-1.78 l -0.001,-6.04 c 0.016,-3.621 -1.313,-6.635 -3.526,-8.632 -11.967,1.642 -23.935,2.979 -35.902,3.375 v 15.164 c 4.431,-0.148 8.862,-0.422 13.293,-0.794 z"
   id="path44" />&#10;<path
   fill="#c84e4e"
   d="m 176.635,14.993 11.053,0.005 c 0.012,0.065 0.024,0.154 0.024,0.267 v 0.43 c 4.514,-0.607 9.027,-1.168 13.541,-1.646 -0.051,-3.541 -1.392,-6.485 -3.594,-8.433 -2.244,-2.009 -5.262,-2.968 -8.444,-2.968 l -13.761,0.003 c -2.968,0.004 -5.995,0.961 -8.366,2.919 -2.37,1.949 -4.011,4.999 -3.996,8.746 l 10e-4,4.955 c 4.515,-0.667 9.03,-1.348 13.542,-2.01 z"
   id="path45" />&#10;<path
   fill="#c84e4e"
   d="m 221.472,2.652 -3.852,10.084 c 5.815,-0.296 11.634,-0.379 17.454,-0.19 l -4.308,-9.895 h -9.294 z"
   id="path46" />&#10;<path
   fill="#c84e4e"
   d="M 96.04,50.1 99.775,40.063 C 92.907,39.718 86.039,38.965 79.171,37.685 L 84.092,50.1 Z"
   id="path47" />&#10;<path
   fill="#c84e4e"
   d="m 116.178,50.099 h 27.387 c 0.006,0 0.014,0 0.019,0 3.179,0 6.185,-0.959 8.426,-2.963 2.257,-1.998 3.614,-5.041 3.602,-8.701 v -2.127 c -13.145,1.862 -26.289,3.432 -39.433,3.867 v 9.924 z"
   id="path48" />&#10;<path
   fill="#c84e4e"
   d="m 201.257,33.463 h -13.545 v 3.896 c 0.002,0.194 -0.018,0.315 -0.038,0.395 h -11.04 v -4.542 c -4.512,0.662 -9.025,1.343 -13.54,2.01 v 3.212 h -0.004 c -0.011,3.66 1.347,6.703 3.602,8.701 1.075,0.961 2.33,1.675 3.691,2.166 9.608,-1.432 19.22,-2.846 28.832,-3.914 1.307,-1.862 2.053,-4.237 2.044,-6.953 z"
   id="path49" />&#10;<path
   fill="#c84e4e"
   d="m 229.542,32.07 h -6.028 l 1.286,-3.635 c -4.473,0.088 -8.949,0.313 -13.426,0.646 l -5.99,15.671 c 14.563,-1.37 29.121,-1.772 43.685,-0.062 l -6.887,-15.819 c -4.709,-0.347 -9.419,-0.495 -14.128,-0.475 z"
   id="path50" />&#10;<polygon
   fill="#34346a"
   points="3.879,2.587 56.867,2.587 75.737,50.104 22.75,50.104 "
   id="polygon50" />&#10;<polygon
   fill="#ffffff"
   points="13.963,12.269 19.739,12.254 19.542,6.76 23.341,12.254 29.13,12.269 25.703,15.68 29.479,21.184 23.561,17.797 20.104,21.184 19.874,15.68 "
   id="polygon51" />&#10;<polygon
   fill="#ffffff"
   points="42.027,12.269 47.802,12.254 47.605,6.76 51.404,12.254 57.194,12.269 53.767,15.68 57.542,21.184 51.624,17.797 48.167,21.184 47.938,15.68 "
   id="polygon52" />&#10;<polygon
   fill="#ffffff"
   points="23.829,38.797 29.605,38.783 29.408,33.288 33.208,38.783 38.996,38.797 35.569,42.209 39.344,47.713 33.427,44.326 29.97,47.713 29.74,42.209 "
   id="polygon53" />&#10;<polygon
   fill="#ffffff"
   points="33.116,24.327 38.892,24.313 38.695,18.818 42.494,24.313 48.284,24.327 44.856,27.738 48.631,33.242 42.713,29.855 39.257,33.242 39.027,27.738 "
   id="polygon54" />&#10;<polygon
   fill="#ffffff"
   points="50.139,38.358 55.915,38.346 55.717,32.85 59.517,38.346 65.307,38.358 61.878,41.771 65.654,47.273 59.735,43.888 56.279,47.273 56.049,41.771 "
   id="polygon55" />&#10;</svg>
