<?xml version="1.0" encoding="UTF-8" standalone="no"?>
<!-- Created with Inkscape (http://www.inkscape.org/) -->

<svg
   width="128mm"
   height="128mm"
   viewBox="0 0 128 128"
   version="1.1"
   id="svg1"
   inkscape:version="1.3 (0e150ed6c4, 2023-07-21)"
   sodipodi:docname="appicon.svg"
   xmlns:inkscape="http://www.inkscape.org/namespaces/inkscape"
   xmlns:sodipodi="http://sodipodi.sourceforge.net/DTD/sodipodi-0.dtd"
   xmlns="http://www.w3.org/2000/svg"
   xmlns:svg="http://www.w3.org/2000/svg">
  <sodipodi:namedview
     id="namedview1"
     pagecolor="#ffffff"
     bordercolor="#000000"
     borderopacity="0.25"
     inkscape:showpageshadow="2"
     inkscape:pageopacity="0.0"
     inkscape:pagecheckerboard="true"
     inkscape:deskcolor="#d1d1d1"
     inkscape:document-units="mm"
     inkscape:zoom="0.73139029"
     inkscape:cx="395.8215"
     inkscape:cy="561.25984"
     inkscape:window-width="1920"
     inkscape:window-height="1017"
     inkscape:window-x="-8"
     inkscape:window-y="-8"
     inkscape:window-maximized="1"
     inkscape:current-layer="layer1" />
  <defs
     id="defs1" />
  <g
     inkscape:label="Layer 1"
     inkscape:groupmode="layer"
     id="layer1">
    <polygon
       fill="#bcbec0"
       points="78.073,49.149 59.203,1.632 58.555,0 56.799,0 3.811,0 0,0 1.407,3.542 20.277,51.059 20.925,52.691 22.681,52.691 75.669,52.691 79.48,52.691 "
       id="polygon38"
       transform="matrix(-1.6209331,0,0,-2.4341047,128.20237,128.50166)" />
    <polygon
       fill="#34346a"
       points="56.867,2.587 75.737,50.104 22.75,50.104 3.879,2.587 "
       id="polygon50"
       transform="matrix(-1.6209331,0,0,-2.4341047,128.20237,128.50166)" />
    <polygon
       fill="#ffffff"
       points="23.341,12.254 29.13,12.269 25.703,15.68 29.479,21.184 23.561,17.797 20.104,21.184 19.874,15.68 13.963,12.269 19.739,12.254 19.542,6.76 "
       id="polygon51"
       transform="matrix(-1.6209331,0,0,-2.4341047,128.20237,128.50166)" />
    <polygon
       fill="#ffffff"
       points="51.404,12.254 57.194,12.269 53.767,15.68 57.542,21.184 51.624,17.797 48.167,21.184 47.938,15.68 42.027,12.269 47.802,12.254 47.605,6.76 "
       id="polygon52"
       transform="matrix(-1.6209331,0,0,-2.4341047,128.20237,128.50166)" />
    <polygon
       fill="#ffffff"
       points="33.208,38.783 38.996,38.797 35.569,42.209 39.344,47.713 33.427,44.326 29.97,47.713 29.74,42.209 23.829,38.797 29.605,38.783 29.408,33.288 "
       id="polygon53"
       transform="matrix(-1.6209331,0,0,-2.4341047,128.20237,128.50166)" />
    <polygon
       fill="#ffffff"
       points="48.631,33.242 42.713,29.855 39.257,33.242 39.027,27.738 33.116,24.327 38.892,24.313 38.695,18.818 42.494,24.313 48.284,24.327 44.856,27.738 "
       id="polygon54"
       transform="matrix(-1.2555903,0,0,-2.4341047,112.88135,128.50166)" />
    <polygon
       fill="#ffffff"
       points="59.517,38.346 65.307,38.358 61.878,41.771 65.654,47.273 59.735,43.888 56.279,47.273 56.049,41.771 50.139,38.358 55.915,38.346 55.717,32.85 "
       id="polygon55"
       transform="matrix(-1.6209331,0,0,-2.4341047,128.20237,128.50166)" />
    <path
       fill="#bcbec0"
       d="m 34.656747,40.057504 h -0.06036 -0.874406 l -0.274626,1.444859 -0.957216,5.039094 -2.286838,12.036165 -0.08047,0.424336 -3.83869,-17.585927 -0.296614,-1.358527 H 25.152418 18.483255 16.71292 l 9.438821,41.52957 0.302698,1.33002 h 0.822008 0.06036 5.529021 0.06083 0.841188 L 34.061183,81.54472 41.07749,48.714452 v 11.018897 12.991529 8.083567 2.107019 h 1.210323 0.06036 12.752585 0.06083 c 1.849402,0 3.535992,-1.047402 4.757541,-2.949992 1.35208,-2.081772 2.095488,-5.162079 2.088471,-8.664278 l -0.0019,-19.63675 c 0.009,-3.49324 -0.733989,-6.573548 -2.092148,-8.663465 C 58.695305,41.10409 57.005907,40.05506 55.161184,40.05506 h -0.06036 l -12.17339,0.0025 v -8.17e-4 h -1.741798 -0.06036 -6.468459 z M 49.778044,68.648483 V 54.328559 h 3.411076 v 3.706628 10.61248 h -3.411076 z"
       id="path37"
       style="stroke-width:0.617289" />
    <path
       fill="#bcbec0"
       d="M 106.73331,79.972802 97.068532,41.325625 96.751798,40.059132 h -0.793003 -0.06078 -4.287828 -0.06036 -0.832307 l -0.297081,1.355268 -1.803082,8.213067 -2.922641,13.312429 -2.570355,11.706309 c 0.160007,-1.053107 0.24328,-2.17381 0.24094,-3.342567 l -0.0015,-4.043005 -9.4e-4,-2.105392 h -1.209385 -0.06082 -6.276641 -0.06083 -1.210323 v 2.10702 1.387034 h -2.700843 v -14.32318 l 2.700884,0.0025 v 1.852907 2.107022 h 1.210322 0.06083 6.27664 0.06082 1.210323 v -2.107022 -4.51458 c 0.0084,-3.494871 -0.735,-6.574359 -2.092225,-8.664278 -1.216871,-1.89689 -2.906736,-2.945921 -4.752395,-2.945921 h -0.06036 l -6.438517,0.0025 c -1.740859,0.0039 -3.404058,1.01971 -4.684088,2.859586 -1.474656,2.111094 -2.31725,5.303795 -2.309294,8.7555 l 4.66e-4,4.027527 9.39e-4,12.991533 v 1.919696 l -0.0019,0.689034 c -0.0061,3.501386 0.737328,6.580879 2.093149,8.670793 0.598846,0.931751 1.313249,1.663953 2.11935,2.168922 0.822943,0.517186 1.708578,0.77863 2.633045,0.77863 h 0.06083 6.525538 0.06082 c 1.844257,0 3.534122,-1.049846 4.757542,-2.954064 0.554401,-0.853562 1.004001,-1.877344 1.344125,-3.026555 l -0.685394,3.121029 -0.627385,2.85959 h 1.758171 0.06083 6.411377 0.06078 0.860376 l 0.282586,-1.415539 0.191344,-0.960256 0.555807,-2.769997 2.030921,0.0017 h 0.52679 0.0309 0.03047 0.534278 l 2.08098,-0.0017 h 0.02151 l 0.903871,3.837761 0.307838,1.308031 h 0.812185 0.06078 6.732792 0.0608 1.84706 z"
       id="path38"
       style="stroke-width:0.617289" />
    <polygon
       fill="#bb1d2c"
       points="79.552,2.65 65.409,2.65 66.361,5.052 84.222,50.1 96.169,50.1 113.823,2.65 99.867,2.65 90.413,31.235 "
       id="polygon39"
       transform="matrix(0.46784745,0,0,0.81446499,-12.033492,40.006191)" />
    <path
       fill="#bb1d2c"
       d="M 59.143882,44.581039 C 58.093097,42.944782 56.68394,42.163707 55.193379,42.163707 l -12.813408,0.0025 v 1.426944 37.216164 h 12.813408 c 0.0028,0 0.0066,0 0.0088,0 1.487288,0 2.893637,-0.781074 3.941615,-2.413262 1.056401,-1.627299 1.6908,-4.105716 1.685655,-7.086659 l -0.0019,-19.643266 c 0.007,-2.980943 -0.627384,-5.45936 -1.683784,-7.085035 z m -4.652274,25.852752 c 0.0015,0.158 -0.0088,0.257375 -0.01826,0.321712 H 48.599534 V 52.222351 h 5.88178 c 0.0057,0.05294 0.0099,0.125434 0.0099,0.21745 v 17.993976 z"
       id="path39"
       style="stroke-width:0.617289" />
    <path
       fill="#bb1d2c"
       d="m 75.847906,67.260633 v 3.173158 c 9.4e-4,0.158 -0.0084,0.256545 -0.01776,0.321712 H 70.665098 V 52.217465 l 5.171119,0.0039 c 0.0057,0.05295 0.01116,0.125436 0.01116,0.217452 v 3.741694 h 6.336994 v -4.514573 c 0.007,-2.980941 -0.627383,-5.460173 -1.683782,-7.085846 -1.049768,-1.63626 -2.461732,-2.417332 -3.950891,-2.417332 l -6.438049,0.0025 c -1.388571,0.0034 -2.804277,0.7827 -3.913543,2.377423 -1.108799,1.587393 -1.876536,4.071512 -1.869519,7.123311 l 0.0019,19.643268 h -0.0019 c -0.0051,2.980942 0.630189,5.45936 1.685186,7.086658 1.050786,1.634632 2.459943,2.418147 3.950036,2.418147 h 6.585889 c 1.489159,0 2.901123,-0.783515 3.950972,-2.418147 1.056401,-1.627298 1.6908,-4.105716 1.685187,-7.086658 l -0.0015,-4.048705 z"
       id="path40"
       style="stroke-width:0.617289" />
    <path
       fill="#bb1d2c"
       d="m 95.990603,42.166152 h -4.348165 l -8.483947,38.64881 h 6.471739 l 0.191814,-0.96107 0.840715,-4.185535 c 0.7467,-0.0017 2.109997,0 3.47706,0.0017 1.384349,-0.0017 2.769176,-0.0035 3.509772,-0.0017 l 1.211735,5.145788 h 6.793614 z m -0.573112,23.959932 h -2.819705 l 1.314646,-6.470111 z"
       id="path41"
       style="stroke-width:0.617289" />
    <path
       fill="#c84e4e"
       d="M 25.881332,45.63333 C 23.463965,44.906828 21.046128,43.942501 18.62876,42.697183 l 0.324219,1.424498 2.821589,12.391272 c 2.321927,0.970028 4.643854,1.69653 6.965311,2.22023 z"
       id="path42"
       style="stroke-width:0.617289" />
    <path
       fill="#c84e4e"
       d="m 37.387572,59.805838 2.635853,-12.332632 c -2.117477,0.03826 -4.234488,-0.0391 -6.352432,-0.269596 l -2.286839,12.036163 c 2.001452,0.322527 4.002435,0.50334 6.003418,0.566055 z"
       id="path43"
       style="stroke-width:0.617289" />
    <path
       fill="#c84e4e"
       d="m 48.539184,59.089105 v -6.866754 h 5.881777 c 0.0057,0.05294 0.0099,0.125434 0.0099,0.21745 v 5.59619 c 2.111786,-0.437367 4.224118,-0.929306 6.335982,-1.449747 l -4.69e-4,-4.91937 c 0.0075,-2.949178 -0.614285,-5.403975 -1.649631,-7.030461 -5.598729,1.337351 -11.197929,2.426292 -16.796657,2.748819 v 12.350545 c 2.073029,-0.120544 4.146063,-0.343704 6.219096,-0.646685 z"
       id="path44"
       style="stroke-width:0.617289" />
    <path
       fill="#c84e4e"
       d="m 70.604741,52.217465 5.171118,0.0039 c 0.0057,0.05295 0.01131,0.125436 0.01131,0.217452 v 0.350225 c 2.111773,-0.494349 4.223169,-0.951265 6.335032,-1.340578 -0.02386,-2.884022 -0.651245,-5.281806 -1.681443,-6.868383 C 79.390912,42.94385 77.978947,42.16278 76.490256,42.16278 l -6.438048,0.0025 c -1.38857,0.0034 -2.804745,0.7827 -3.914011,2.377422 -1.108799,1.587392 -1.876537,4.071511 -1.869517,7.123312 l 4.68e-4,4.035673 c 2.11233,-0.543247 4.22466,-1.097899 6.335589,-1.637073 z"
       id="path45"
       style="stroke-width:0.617289" />
    <path
       fill="#c84e4e"
       d="m 91.581613,42.166152 -1.802142,8.213066 c 2.720525,-0.241093 5.442937,-0.308682 8.16581,-0.154746 l -2.015486,-8.05913 h -4.348182 z"
       id="path46"
       style="stroke-width:0.617289" />
    <path
       fill="#c84e4e"
       d="m 32.898577,80.810889 1.747408,-8.174784 C 31.43281,72.355117 28.219634,71.74182 25.006457,70.699307 l 2.302277,10.111582 z"
       id="path47"
       style="stroke-width:0.617289" />
    <path
       fill="#c84e4e"
       d="m 42.320089,80.810072 h 12.812935 c 0.0028,0 0.0066,0 0.0088,0 1.487289,0 2.893637,-0.78107 3.942083,-2.413257 1.055933,-1.627303 1.690803,-4.105721 1.685189,-7.086663 v -1.732368 c -6.149856,1.516537 -12.299244,2.795244 -18.44863,3.149538 v 8.08275 z"
       id="path48"
       style="stroke-width:0.617289" />
    <path
       fill="#c84e4e"
       d="m 82.124081,67.260633 h -6.336993 v 3.173158 c 9.39e-4,0.158 -0.0084,0.256545 -0.0178,0.321712 h -5.165035 v -3.699302 c -2.110929,0.539179 -4.222322,1.093829 -6.334655,1.637076 v 2.616063 h -0.0019 c -0.0051,2.980942 0.630192,5.45936 1.685187,7.086659 0.502936,0.782702 1.090084,1.364227 1.726825,1.764131 4.495079,-1.166314 8.992028,-2.317968 13.488977,-3.187817 0.611477,-1.516533 0.96049,-3.450887 0.956281,-5.662973 z"
       id="path49"
       style="stroke-width:0.617289" />
    <path
       fill="#c84e4e"
       d="M 95.357154,66.126084 H 92.53696 l 0.601659,-2.960581 c -2.092684,0.07166 -4.186773,0.254944 -6.281325,0.526147 l -2.802407,12.763478 c 6.81326,-1.115816 13.624182,-1.443233 20.437933,-0.05048 l -3.22209,-12.884035 c -2.203078,-0.282618 -4.406656,-0.403161 -6.609738,-0.386871 z"
       id="path50"
       style="stroke-width:0.617289" />
    <path
       fill="#bcbec0"
       d="m 34.656747,40.057504 h -0.06036 -0.874406 l -0.274626,1.444859 -0.957216,5.039094 -2.286838,12.036165 -0.08047,0.424336 -3.83869,-17.585927 -0.296614,-1.358527 H 25.152418 18.483255 16.71292 l 9.438821,41.52957 0.302698,1.33002 h 0.822008 0.06036 5.529021 0.06083 0.841188 L 34.061183,81.54472 41.07749,48.714452 v 11.018897 12.991529 8.083567 2.107019 h 1.210323 0.06036 12.752585 0.06083 c 1.849402,0 3.535992,-1.047402 4.757541,-2.949992 1.35208,-2.081772 2.095488,-5.162079 2.088471,-8.664278 l -0.0019,-19.63675 c 0.009,-3.49324 -0.733989,-6.573548 -2.092148,-8.663465 C 58.695305,41.10409 57.005907,40.05506 55.161184,40.05506 h -0.06036 l -12.17339,0.0025 v -8.17e-4 h -1.741798 -0.06036 -6.468459 z M 49.778044,68.648483 V 54.328559 h 3.411076 v 3.706628 10.61248 h -3.411076 z"
       id="path37-6"
       style="stroke-width:0.617289" />
    <path
       fill="#bcbec0"
       d="M 106.73331,79.972802 97.068532,41.325625 96.751798,40.059132 h -0.793003 -0.06078 -4.287828 -0.06036 -0.832307 l -0.297081,1.355268 -1.803082,8.213067 -2.922641,13.312429 -2.570355,11.706309 c 0.160007,-1.053107 0.24328,-2.17381 0.24094,-3.342567 l -0.0015,-4.043005 -9.4e-4,-2.105392 h -1.209385 -0.06082 -6.276641 -0.06083 -1.210323 v 2.10702 1.387034 h -2.700843 v -14.32318 l 2.700884,0.0025 v 1.852907 2.107022 h 1.210322 0.06083 6.27664 0.06082 1.210323 v -2.107022 -4.51458 c 0.0084,-3.494871 -0.735,-6.574359 -2.092225,-8.664278 -1.216871,-1.89689 -2.906736,-2.945921 -4.752395,-2.945921 h -0.06036 l -6.438517,0.0025 c -1.740859,0.0039 -3.404058,1.01971 -4.684088,2.859586 -1.474656,2.111094 -2.31725,5.303795 -2.309294,8.7555 l 4.66e-4,4.027527 9.39e-4,12.991533 v 1.919696 l -0.0019,0.689034 c -0.0061,3.501386 0.737328,6.580879 2.093149,8.670793 0.598846,0.931751 1.313249,1.663953 2.11935,2.168922 0.822943,0.517186 1.708578,0.77863 2.633045,0.77863 h 0.06083 6.525538 0.06082 c 1.844257,0 3.534122,-1.049846 4.757542,-2.954064 0.554401,-0.853562 1.004001,-1.877344 1.344125,-3.026555 l -0.685394,3.121029 -0.627385,2.85959 h 1.758171 0.06083 6.411377 0.06078 0.860376 l 0.282586,-1.415539 0.191344,-0.960256 0.555807,-2.769997 2.030921,0.0017 h 0.52679 0.0309 0.03047 0.534278 l 2.08098,-0.0017 h 0.02151 l 0.903871,3.837761 0.307838,1.308031 h 0.812185 0.06078 6.732792 0.0608 1.84706 z"
       id="path38-9"
       style="stroke-width:0.617289" />
    <polygon
       fill="#bb1d2c"
       points="99.867,2.65 90.413,31.235 79.552,2.65 65.409,2.65 66.361,5.052 84.222,50.1 96.169,50.1 113.823,2.65 "
       id="polygon39-3"
       transform="matrix(0.46784745,0,0,0.81446499,-12.033492,40.006191)" />
    <path
       fill="#bb1d2c"
       d="M 59.143882,44.581039 C 58.093097,42.944782 56.68394,42.163707 55.193379,42.163707 l -12.813408,0.0025 v 1.426944 37.216164 h 12.813408 c 0.0028,0 0.0066,0 0.0088,0 1.487288,0 2.893637,-0.781074 3.941615,-2.413262 1.056401,-1.627299 1.6908,-4.105716 1.685655,-7.086659 l -0.0019,-19.643266 c 0.007,-2.980943 -0.627384,-5.45936 -1.683784,-7.085035 z m -4.652274,25.852752 c 0.0015,0.158 -0.0088,0.257375 -0.01826,0.321712 H 48.599534 V 52.222351 h 5.88178 c 0.0057,0.05294 0.0099,0.125434 0.0099,0.21745 v 17.993976 z"
       id="path39-9"
       style="stroke-width:0.617289" />
    <path
       fill="#bb1d2c"
       d="m 75.847906,67.260633 v 3.173158 c 9.4e-4,0.158 -0.0084,0.256545 -0.01776,0.321712 H 70.665098 V 52.217465 l 5.171119,0.0039 c 0.0057,0.05295 0.01116,0.125436 0.01116,0.217452 v 3.741694 h 6.336994 v -4.514573 c 0.007,-2.980941 -0.627383,-5.460173 -1.683782,-7.085846 -1.049768,-1.63626 -2.461732,-2.417332 -3.950891,-2.417332 l -6.438049,0.0025 c -1.388571,0.0034 -2.804277,0.7827 -3.913543,2.377423 -1.108799,1.587393 -1.876536,4.071512 -1.869519,7.123311 l 0.0019,19.643268 h -0.0019 c -0.0051,2.980942 0.630189,5.45936 1.685186,7.086658 1.050786,1.634632 2.459943,2.418147 3.950036,2.418147 h 6.585889 c 1.489159,0 2.901123,-0.783515 3.950972,-2.418147 1.056401,-1.627298 1.6908,-4.105716 1.685187,-7.086658 l -0.0015,-4.048705 z"
       id="path40-6"
       style="stroke-width:0.617289" />
    <path
       fill="#bb1d2c"
       d="m 95.990603,42.166152 h -4.348165 l -8.483947,38.64881 h 6.471739 l 0.191814,-0.96107 0.840715,-4.185535 c 0.7467,-0.0017 2.109997,0 3.47706,0.0017 1.384349,-0.0017 2.769176,-0.0035 3.509772,-0.0017 l 1.211735,5.145788 h 6.793614 z m -0.573112,23.959932 h -2.819705 l 1.314646,-6.470111 z"
       id="path41-5"
       style="stroke-width:0.617289" />
    <path
       fill="#c84e4e"
       d="M 25.881332,45.63333 C 23.463965,44.906828 21.046128,43.942501 18.62876,42.697183 l 0.324219,1.424498 2.821589,12.391272 c 2.321927,0.970028 4.643854,1.69653 6.965311,2.22023 z"
       id="path42-4"
       style="stroke-width:0.617289" />
    <path
       fill="#c84e4e"
       d="m 37.387572,59.805838 2.635853,-12.332632 c -2.117477,0.03826 -4.234488,-0.0391 -6.352432,-0.269596 l -2.286839,12.036163 c 2.001452,0.322527 4.002435,0.50334 6.003418,0.566055 z"
       id="path43-0"
       style="stroke-width:0.617289" />
    <path
       fill="#c84e4e"
       d="m 48.539184,59.089105 v -6.866754 h 5.881777 c 0.0057,0.05294 0.0099,0.125434 0.0099,0.21745 v 5.59619 c 2.111786,-0.437367 4.224118,-0.929306 6.335982,-1.449747 l -4.69e-4,-4.91937 c 0.0075,-2.949178 -0.614285,-5.403975 -1.649631,-7.030461 -5.598729,1.337351 -11.197929,2.426292 -16.796657,2.748819 v 12.350545 c 2.073029,-0.120544 4.146063,-0.343704 6.219096,-0.646685 z"
       id="path44-9"
       style="stroke-width:0.617289" />
    <path
       fill="#c84e4e"
       d="m 70.604741,52.217465 5.171118,0.0039 c 0.0057,0.05295 0.01131,0.125436 0.01131,0.217452 v 0.350225 c 2.111773,-0.494349 4.223169,-0.951265 6.335032,-1.340578 -0.02386,-2.884022 -0.651245,-5.281806 -1.681443,-6.868383 C 79.390912,42.94385 77.978947,42.16278 76.490256,42.16278 l -6.438048,0.0025 c -1.38857,0.0034 -2.804745,0.7827 -3.914011,2.377422 -1.108799,1.587392 -1.876537,4.071511 -1.869517,7.123312 l 4.68e-4,4.035673 c 2.11233,-0.543247 4.22466,-1.097899 6.335589,-1.637073 z"
       id="path45-0"
       style="stroke-width:0.617289" />
    <path
       fill="#c84e4e"
       d="m 91.581613,42.166152 -1.802142,8.213066 c 2.720525,-0.241093 5.442937,-0.308682 8.16581,-0.154746 l -2.015486,-8.05913 h -4.348182 z"
       id="path46-0"
       style="stroke-width:0.617289" />
    <path
       fill="#c84e4e"
       d="m 32.898577,80.810889 1.747408,-8.174784 C 31.43281,72.355117 28.219634,71.74182 25.006457,70.699307 l 2.302277,10.111582 z"
       id="path47-3"
       style="stroke-width:0.617289" />
    <path
       fill="#c84e4e"
       d="m 42.320089,80.810072 h 12.812935 c 0.0028,0 0.0066,0 0.0088,0 1.487289,0 2.893637,-0.78107 3.942083,-2.413257 1.055933,-1.627303 1.690803,-4.105721 1.685189,-7.086663 v -1.732368 c -6.149856,1.516537 -12.299244,2.795244 -18.44863,3.149538 v 8.08275 z"
       id="path48-5"
       style="stroke-width:0.617289" />
    <path
       fill="#c84e4e"
       d="m 82.124081,67.260633 h -6.336993 v 3.173158 c 9.39e-4,0.158 -0.0084,0.256545 -0.0178,0.321712 h -5.165035 v -3.699302 c -2.110929,0.539179 -4.222322,1.093829 -6.334655,1.637076 v 2.616063 h -0.0019 c -0.0051,2.980942 0.630192,5.45936 1.685187,7.086659 0.502936,0.782702 1.090084,1.364227 1.726825,1.764131 4.495079,-1.166314 8.992028,-2.317968 13.488977,-3.187817 0.611477,-1.516533 0.96049,-3.450887 0.956281,-5.662973 z"
       id="path49-9"
       style="stroke-width:0.617289" />
    <path
       fill="#c84e4e"
       d="M 95.357154,66.126084 H 92.53696 l 0.601659,-2.960581 c -2.092684,0.07166 -4.186773,0.254944 -6.281325,0.526147 l -2.802407,12.763478 c 6.81326,-1.115816 13.624182,-1.443233 20.437933,-0.05048 l -3.22209,-12.884035 c -2.203078,-0.282618 -4.406656,-0.403161 -6.609738,-0.386871 z"
       id="path50-0"
       style="stroke-width:0.617289" />
  </g>
</svg>
