<?xml version="1.0" encoding="UTF-8" standalone="no"?>
<svg
   width="456"
   height="456"
   viewBox="0 0 456 456"
   version="1.1"
   xml:space="preserve"
   style="fill-rule:evenodd;clip-rule:evenodd;stroke-linejoin:round;stroke-miterlimit:2;"
   id="svg4"
   sodipodi:docname="splash.svg"
   inkscape:version="1.3 (0e150ed6c4, 2023-07-21)"
   xmlns:inkscape="http://www.inkscape.org/namespaces/inkscape"
   xmlns:sodipodi="http://sodipodi.sourceforge.net/DTD/sodipodi-0.dtd"
   xmlns="http://www.w3.org/2000/svg"
   xmlns:svg="http://www.w3.org/2000/svg"><defs
   id="defs4" /><sodipodi:namedview
   id="namedview4"
   pagecolor="#ffffff"
   bordercolor="#000000"
   borderopacity="0.25"
   inkscape:showpageshadow="2"
   inkscape:pageopacity="0.0"
   inkscape:pagecheckerboard="true"
   inkscape:deskcolor="#d1d1d1"
   inkscape:zoom="1.8004386"
   inkscape:cx="227.72229"
   inkscape:cy="228"
   inkscape:window-width="1920"
   inkscape:window-height="1017"
   inkscape:window-x="-8"
   inkscape:window-y="-8"
   inkscape:window-maximized="1"
   inkscape:current-layer="svg4"
   showgrid="false" />&#10;    &#10;    &#10;    &#10;    &#10;<path
   d="m 60.248211,295.11016 h 3.174933 l 3.30237,35.21688 h 0.06292 l 3.302369,-35.21688 h 3.174932 l -4.668,44.2947 h -3.68311 z"
   id="path1"
   style="stroke-width:2.18702" /><path
   d="m 76.24559,308.40465 h 6.044644 v 3.60863 H 78.4671 v 9.70106 h 3.599725 v 3.60863 H 78.4671 v 10.47629 h 3.823134 v 3.60864 H 76.24559 Z"
   id="path2"
   style="stroke-width:2.18702" /><path
   d="m 83.890287,308.40465 h 7.555017 v 3.60863 H 88.77855 v 27.39462 h -2.223082 v -27.39462 h -2.665181 z"
   id="path3"
   style="stroke-width:2.18702" /><path
   d="m 93.734465,308.40465 h 6.043073 v 3.60863 h -3.821566 v 9.70106 h 3.599726 v 3.60863 h -3.599726 v 10.47629 h 3.821566 v 3.60864 h -6.043073 z"
   id="path4"
   style="stroke-width:2.18702" /><path
   d="m 102.06828,308.40465 h 3.44396 c 3.24415,0 3.5777,1.6751 3.5777,8.45764 0,4.16499 -0.28949,5.97082 -2.11139,7.04095 v 0.0851 c 1.51038,0.30098 2.0217,1.8028 2.0217,4.72436 v 6.74302 c 0,1.11268 0,2.6601 0.13374,3.94912 h -2.08935 c -0.22342,-0.77219 -0.26588,-1.54742 -0.26588,-2.79084 v -7.00143 c 0,-2.91851 -0.26591,-3.69071 -1.7338,-3.69071 h -0.75519 v 13.48298 h -2.22149 z m 2.22149,13.91164 h 0.57741 c 1.75582,0 1.99968,-0.64451 1.99968,-5.28071 0,-4.59667 -0.13216,-5.0223 -1.51039,-5.0223 h -1.0667 z"
   id="path5"
   style="stroke-width:2.18702" /><path
   d="m 115.00084,308.40465 h 2.57708 l 3.26619,31.00021 h -2.22152 l -0.73314,-7.9013 h -3.46601 l -0.73315,7.9013 h -2.2231 z m -0.24386,19.49332 h 2.82094 l -1.37664,-14.94224 h -0.0441 z"
   id="path6"
   style="stroke-width:2.18702" /><path
   d="m 123.24654,308.40465 h 3.06639 l 2.62269,25.76207 h 0.0441 v -25.76207 h 2.08936 v 31.00021 h -3.20009 l -2.62272,-26.44913 h -0.0441 v 26.44913 h -1.95563 z"
   id="path7"
   style="stroke-width:2.18702" /><path
   d="m 134.84339,295.11016 h 3.36529 l -1.77783,10.92319 h -2.28601 z"
   id="path8"
   style="stroke-width:2.18702" /><path
   d="m 141.61176,330.43344 h 2.2215 v 2.52939 c 0,2.06424 0.39961,3.35326 1.28854,3.35326 1.1784,0 1.46789,-1.54742 1.46789,-3.56607 0,-2.61756 -0.0662,-3.47791 -2.37884,-7.9013 -1.42227,-2.74828 -2.59909,-5.23815 -2.59909,-9.44569 0,-5.06789 1.22245,-7.25679 3.64377,-7.25679 1.20043,0 2.06576,0.77219 2.59909,1.71767 0.37761,0.68707 0.64506,1.76024 0.64506,3.94913 v 2.91853 h -2.08934 v -2.44731 c 0,-1.76023 -0.37759,-2.79085 -1.24449,-2.79085 -0.91094,0 -1.33417,0.98805 -1.33417,3.39279 0,2.10073 0.22341,3.38975 2.26715,7.51521 2.17744,4.37779 2.57864,5.88266 2.57864,9.61897 0,4.85206 -0.97859,7.6429 -3.62333,7.6429 -2.04374,0 -3.44397,-1.67513 -3.44397,-5.53608 v -3.69376 z"
   id="path9"
   style="stroke-width:2.18702" /><path
   d="m 159.57418,295.11016 h 5.11168 c 5.14472,0 5.55692,3.31678 5.55692,16.19781 v 13.1881 c 0,11.35184 -1.04782,14.90879 -6.06352,14.90879 h -4.60349 v -44.2947 z m 3.17495,39.14168 h 1.52295 c 2.35053,0 2.7942,-2.39258 2.7942,-9.99899 V 309.037 c 0,-6.56364 -0.34929,-8.77079 -3.04751,-8.77079 h -1.26964 z"
   id="path10"
   style="stroke-width:2.18702" /><path
   d="m 173.98096,308.40465 h 2.22149 v 31.00021 h -2.22149 z"
   id="path11"
   style="stroke-width:2.18702" /><path
   d="m 178.87079,330.43344 h 2.22151 v 2.52939 c 0,2.06424 0.39963,3.35326 1.28855,3.35326 1.1784,0 1.46632,-1.54742 1.46632,-3.56607 0,-2.61756 -0.0661,-3.47791 -2.37728,-7.9013 -1.42227,-2.74828 -2.5991,-5.23815 -2.5991,-9.44569 0,-5.06789 1.22089,-7.25679 3.64378,-7.25679 1.20044,0 2.06575,0.77219 2.5991,1.71767 0.37759,0.68707 0.64507,1.76024 0.64507,3.94913 v 2.91853 h -2.08937 v -2.44731 c 0,-1.76023 -0.37759,-2.79085 -1.24447,-2.79085 -0.91252,0 -1.33417,0.98805 -1.33417,3.39279 0,2.10073 0.22183,3.38975 2.26713,7.51521 2.17746,4.37779 2.57708,5.88266 2.57708,9.61897 0,4.85206 -0.9786,7.6429 -3.62176,7.6429 -2.04372,0 -3.44396,-1.67513 -3.44396,-5.53608 v -3.69376 z"
   id="path12"
   style="stroke-width:2.18702" /><path
   d="m 191.62717,308.40465 h 2.57706 l 3.26619,31.00021 h -2.22152 l -0.73315,-7.9013 h -3.466 l -0.73316,7.9013 h -2.22307 z m -0.24544,19.49332 h 2.8225 l -1.37663,-14.94224 h -0.0441 z"
   id="path13"
   style="stroke-width:2.18702" /><path
   d="m 199.87129,308.40465 h 3.86718 c 2.73282,0 3.2001,1.84536 3.2001,7.51521 0,6.09546 -0.51131,7.08654 -2.02169,7.4696 v 0.0851 c 1.77783,0.64451 2.13339,1.80584 2.13339,7.08655 0,6.69741 -0.44524,8.84374 -3.6894,8.84374 h -3.48802 v -31.00022 z m 2.22149,13.30969 h 1.28854 c 1.33416,0 1.46632,-0.51378 1.46632,-5.58168 0,-3.52047 -0.28949,-4.37778 -1.71018,-4.37778 h -1.04468 z m 0,14.34031 h 1.37823 c 1.26652,0 1.48835,-0.72964 1.48835,-5.62425 0,-4.6818 -0.19982,-5.37191 -1.42227,-5.37191 h -1.44431 z"
   id="path14"
   style="stroke-width:2.18702" /><path
   d="m 209.78154,308.40465 h 2.22309 v 31.00021 h -2.22309 z"
   id="path15"
   style="stroke-width:2.18702" /><path
   d="m 214.91524,308.40465 h 2.22309 v 27.39461 h 3.73346 v 3.60864 h -5.95497 v -31.00325 z"
   id="path16"
   style="stroke-width:2.18702" /><path
   d="m 223.18296,308.40465 h 2.2231 v 31.00021 h -2.2231 z"
   id="path17"
   style="stroke-width:2.18702" /><path
   d="m 227.62598,308.40465 h 7.5566 v 3.60863 h -2.66676 v 27.39462 h -2.22151 v -27.39462 h -2.66676 v -3.60863 z"
   id="path18"
   style="stroke-width:2.18702" /><path
   d="m 236.98243,308.40465 h 2.22309 l 1.93359,13.05128 h 0.0441 l 2.22309,-13.05128 h 1.95562 l -3.0884,18.29247 v 12.71078 h -2.22309 v -12.71078 z"
   id="path19"
   style="stroke-width:2.18702" /><path
   d="m 255.66231,306.39816 c 0,-6.19578 1.04782,-11.65587 5.36497,-11.65587 3.14346,0 4.60348,3.06751 4.60348,8.03812 v 4.41426 h -2.98298 v -3.06444 c 0,-2.82429 -0.50818,-4.60276 -1.84076,-4.60276 -1.65039,0 -1.96821,2.26794 -1.96821,7.6064 v 21.71869 c 0,5.21383 0.85745,6.135 1.87381,6.135 1.17526,0 1.93673,-1.59304 1.93673,-5.27159 v -3.07054 h 2.983 v 4.90677 c 0,4.66357 -0.98333,8.22052 -4.66643,8.22052 -4.00092,0 -5.30204,-4.11025 -5.30204,-10.98096 v -22.3936 z"
   id="path20"
   style="stroke-width:2.18702" /><path
   d="m 268.73961,308.40465 h 2.22153 v 27.39461 h 3.73345 v 3.60864 h -5.95498 z"
   id="path21"
   style="stroke-width:2.18702" /><path
   d="m 280.0281,308.40465 h 2.57708 l 3.26617,31.00021 h -2.22151 l -0.73315,-7.9013 h -3.46758 l -0.73314,7.9013 h -2.22151 z m -0.24387,19.49332 h 2.82095 l -1.37664,-14.94224 h -0.0456 z"
   id="path22"
   style="stroke-width:2.18702" /><path
   d="m 288.20615,308.40465 h 2.2215 v 31.00021 h -2.2215 z"
   id="path23"
   style="stroke-width:2.18702" /><path
   d="m 293.33983,308.40465 h 3.53366 l 2.04374,23.61877 h 0.0441 l 2.04371,-23.61877 h 3.44398 v 31.00021 h -2.08935 v -27.91145 h -0.0441 l -2.26715,27.91145 h -2.22151 l -2.48897,-27.91145 h -0.0441 v 27.91145 h -1.95563 v -31.00021 z"
   id="path24"
   style="stroke-width:2.18702" /><path
   d="m 307.18337,330.43344 h 2.22308 v 2.52939 c 0,2.06424 0.39962,3.35326 1.28854,3.35326 1.1784,0 1.46791,-1.54742 1.46791,-3.56607 0,-2.61756 -0.0661,-3.47791 -2.37728,-7.9013 -1.42226,-2.74828 -2.60067,-5.23815 -2.60067,-9.44569 0,-5.06789 1.22244,-7.25679 3.64378,-7.25679 1.20043,0 2.06575,0.77219 2.59909,1.71767 0.37758,0.68707 0.64506,1.76024 0.64506,3.94913 v 2.91853 h -2.08935 v -2.44731 c 0,-1.76023 -0.3776,-2.79085 -1.24449,-2.79085 -0.91095,0 -1.33259,0.98805 -1.33259,3.39279 0,2.10073 0.22184,3.38975 2.26555,7.51521 2.17747,4.37779 2.57867,5.88266 2.57867,9.61897 0,4.85206 -0.97861,7.6429 -3.62176,7.6429 -2.04373,0 -3.44396,-1.67513 -3.44396,-5.53608 v -3.69376 z"
   id="path25"
   style="stroke-width:2.18702" /><path
   d="m 328.19488,295.11016 h 3.68311 l 4.66643,44.2947 h -3.17493 l -1.04783,-11.288 h -4.9512 l -1.04782,11.288 h -3.17493 z m -0.34927,27.85367 h 4.03238 l -1.96822,-21.3478 h -0.0645 z"
   id="path26"
   style="stroke-width:2.18702" /><path
   d="m 339.37636,330.43344 h 2.22152 v 2.52939 c 0,2.06424 0.39962,3.35326 1.28854,3.35326 1.1784,0 1.46631,-1.54742 1.46631,-3.56607 0,-2.61756 -0.0661,-3.47791 -2.37727,-7.9013 -1.42226,-2.74828 -2.5991,-5.23815 -2.5991,-9.44569 0,-5.06789 1.22089,-7.25679 3.64378,-7.25679 1.20044,0 2.06576,0.77219 2.60068,1.71767 0.37758,0.68707 0.64347,1.76024 0.64347,3.94913 v 2.91853 h -2.08934 v -2.44731 c 0,-1.76023 -0.3776,-2.79085 -1.2445,-2.79085 -0.91093,0 -1.33417,0.98805 -1.33417,3.39279 0,2.10073 0.22185,3.38975 2.26715,7.51521 2.17746,4.37779 2.57706,5.88266 2.57706,9.61897 0,4.85206 -0.97859,7.6429 -3.62173,7.6429 -2.04372,0 -3.44397,-1.67513 -3.44397,-5.53608 v -3.69376 z"
   id="path27"
   style="stroke-width:2.18702" /><path
   d="m 348.93105,330.43344 h 2.2215 v 2.52939 c 0,2.06424 0.39963,3.35326 1.28855,3.35326 1.1784,0 1.46789,-1.54742 1.46789,-3.56607 0,-2.61756 -0.066,-3.47791 -2.37885,-7.9013 -1.42068,-2.74828 -2.59909,-5.23815 -2.59909,-9.44569 0,-5.06789 1.22247,-7.25679 3.64377,-7.25679 1.20045,0 2.06577,0.77219 2.59913,1.71767 0.37758,0.68707 0.64504,1.76024 0.64504,3.94913 v 2.91853 h -2.08935 v -2.44731 c 0,-1.76023 -0.3776,-2.79085 -1.24448,-2.79085 -0.91096,0 -1.33418,0.98805 -1.33418,3.39279 0,2.10073 0.22184,3.38975 2.26714,7.51521 2.17747,4.37779 2.57865,5.88266 2.57865,9.61897 0,4.85206 -0.9786,7.6429 -3.62331,7.6429 -2.04374,0 -3.44398,-1.67513 -3.44398,-5.53608 v -3.69376 z"
   id="path28"
   style="stroke-width:2.18702" /><path
   d="m 358.66509,308.40465 h 2.22309 v 31.00021 h -2.22309 z"
   id="path29"
   style="stroke-width:2.18702" /><path
   d="m 363.55336,330.43344 h 2.2231 v 2.52939 c 0,2.06424 0.39803,3.35326 1.28853,3.35326 1.17841,0 1.46632,-1.54742 1.46632,-3.56607 0,-2.61756 -0.0662,-3.47791 -2.37726,-7.9013 -1.42228,-2.74828 -2.60069,-5.23815 -2.60069,-9.44569 0,-5.06789 1.22246,-7.25679 3.64378,-7.25679 1.20043,0 2.06575,0.77219 2.60068,1.71767 0.37759,0.68707 0.64506,1.76024 0.64506,3.94913 v 2.91853 h -2.08936 v -2.44731 c 0,-1.76023 -0.37759,-2.79085 -1.24449,-2.79085 -0.91252,0 -1.33257,0.98805 -1.33257,3.39279 0,2.10073 0.22181,3.38975 2.26555,7.51521 2.17745,4.37779 2.57865,5.88266 2.57865,9.61897 0,4.85206 -0.9786,7.6429 -3.62334,7.6429 -2.04371,0 -3.44396,-1.67513 -3.44396,-5.53608 z"
   id="path30"
   style="stroke-width:2.18702" /><path
   d="m 373.1112,330.43344 h 2.22151 v 2.52939 c 0,2.06424 0.40118,3.35326 1.2901,3.35326 1.17684,0 1.46634,-1.54742 1.46634,-3.56607 0,-2.61756 -0.0661,-3.47791 -2.37728,-7.9013 -1.42384,-2.74828 -2.60067,-5.23815 -2.60067,-9.44569 0,-5.06789 1.22089,-7.25679 3.64378,-7.25679 1.20042,0 2.06574,0.77219 2.60067,1.71767 0.37761,0.68707 0.64349,1.76024 0.64349,3.94913 v 2.91853 h -2.08936 v -2.44731 c 0,-1.76023 -0.37759,-2.79085 -1.24292,-2.79085 -0.9125,0 -1.33415,0.98805 -1.33415,3.39279 0,2.10073 0.22339,3.38975 2.26714,7.51521 2.17745,4.37779 2.57706,5.88266 2.57706,9.61897 0,4.85206 -0.97859,7.6429 -3.62174,7.6429 -2.0453,0 -3.44397,-1.67513 -3.44397,-5.53608 z"
   id="path31"
   style="stroke-width:2.18702" /><path
   d="m 382.22221,308.40465 h 7.55659 v 3.60863 h -2.66675 v 27.39462 h -2.22152 v -27.39462 h -2.66674 v -3.60863 z"
   id="path32"
   style="stroke-width:2.18702" /><path
   d="m 393.24324,308.40465 h 2.57864 l 3.26619,31.00021 h -2.22151 l -0.73316,-7.9013 h -3.466 l -0.73316,7.9013 h -2.22309 z m -0.2423,19.49332 h 2.82094 l -1.37664,-14.94224 h -0.0441 z"
   id="path33"
   style="stroke-width:2.18702" /><path
   d="m 401.48893,308.40465 h 3.06637 l 2.6227,25.76207 h 0.0424 v -25.76207 h 2.08935 v 31.00021 h -3.20011 l -2.62269,-26.44913 h -0.0441 v 26.44913 h -1.9556 v -31.00021 z"
   id="path34"
   style="stroke-width:2.18702" /><path
   d="m 412.04582,316.30291 c 0,-4.33827 0.73314,-8.15971 3.75547,-8.15971 2.19947,0 3.22212,2.14937 3.22212,5.62728 v 3.09181 h -2.08934 v -2.14633 c 0,-1.97608 -0.35713,-3.22255 -1.29011,-3.22255 -1.15481,0 -1.37665,1.58696 -1.37665,5.32328 v 15.20369 c 0,3.64817 0.59944,4.29267 1.31058,4.29267 0.82127,0 1.35618,-1.11574 1.35618,-3.69376 v -2.14632 h 2.08934 v 3.43534 c 0,3.26206 -0.68909,5.75497 -3.26774,5.75497 -2.79892,0 -3.70985,-2.87597 -3.70985,-7.68545 z"
   id="path35"
   style="stroke-width:2.18702" /><path
   d="m 421.44631,308.40465 h 6.04308 v 3.60863 h -3.82155 v 9.70106 h 3.59971 v 3.60863 h -3.59971 v 10.47629 h 3.82155 v 3.60864 h -6.04308 z"
   id="path36"
   style="stroke-width:2.18702" /><path
   fill="#bcbec0"
   d="m 183.56008,109.04501 h -0.20572 -2.98055 l -0.93608,5.39319 -3.26281,18.8093 -7.79501,44.92705 -0.27428,1.58391 -13.0847,-65.64251 -1.01107,-5.07094 h -2.84657 -22.73275 -6.03443 l 32.17351,155.01628 1.03179,4.96453 h 2.80194 0.20572 18.84642 0.20729 2.86733 L 181.53,263.9032 205.44604,141.35856 v 41.12993 48.49314 30.1733 7.86481 h 4.12553 0.20572 43.46893 0.20732 c 6.30394,0 12.05292,-3.9096 16.21672,-11.01135 4.60876,-7.77058 7.14277,-19.26834 7.11885,-32.34091 l -0.006,-73.29756 c 0.0304,-13.03913 -2.50211,-24.5369 -7.13158,-32.33788 -4.15267,-7.08046 -9.9112,-10.99615 -16.19919,-10.99615 h -0.20584 l -41.49465,0.009 v -0.003 h -5.93716 -0.20572 -22.04863 z m 51.54299,106.72076 v -53.45158 h 11.62713 v 13.83563 39.61291 h -11.62713 z"
   id="path37"
   style="stroke-width:2.20185" /><path
   fill="#bcbec0"
   d="m 429.24292,258.03576 -32.94378,-144.25727 -1.07962,-4.7274 h -2.70305 -0.20731 -14.61564 -0.20571 -2.83701 l -1.01264,5.05877 -6.14607,30.65669 -9.96222,49.69094 -8.76141,43.69581 c 0.5454,-3.9309 0.82927,-8.11411 0.82129,-12.4767 l -0.005,-15.09121 -0.004,-7.85874 h -4.12235 -0.20732 -21.39478 -0.20731 -4.12556 v 7.86482 5.17734 h -9.20632 v -53.46374 l 9.20632,0.009 v 6.91631 7.86481 h 4.12556 0.20731 21.39478 0.20732 4.12555 v -7.86481 -16.85146 c 0.0287,-13.04521 -2.50532,-24.53994 -7.13162,-32.34093 -4.14846,-7.08045 -9.9086,-10.99614 -16.19977,-10.99614 h -0.20572 l -21.94656,0.009 c -5.93395,0.0152 -11.6032,3.80624 -15.96638,10.6739 -5.02654,7.88002 -7.89865,19.79734 -7.87154,32.68142 l 9.6e-4,15.03344 0.004,48.49314 v 7.16558 l -0.006,2.57195 c -0.0207,13.06953 2.51328,24.56425 7.13479,32.36525 2.04123,3.4779 4.47639,6.21098 7.22409,8.09586 2.8051,1.93048 5.82392,2.90635 8.97509,2.90635 h 0.20731 22.24318 0.20732 c 6.2864,0 12.04653,-3.91872 16.21672,-11.02655 1.88976,-3.18605 3.42228,-7.00751 4.58164,-11.29712 l -2.33626,11.64978 -2.13853,10.67389 h 5.99296 0.20733 21.85405 0.20733 2.93267 l 0.96322,-5.28374 0.65224,-3.58431 1.89454,-10.33948 6.92268,0.007 h 1.79566 0.10521 0.1036 1.82118 l 7.09333,-0.007 h 0.0734 l 3.08099,14.32509 1.04933,4.88244 h 2.76844 0.20732 22.94963 0.20731 6.29597 z"
   id="path38"
   style="stroke-width:2.20185" /><polygon
   fill="#bcbec0"
   points="20.925,52.691 22.681,52.691 75.669,52.691 79.48,52.691 78.073,49.149 59.203,1.632 58.555,0 56.799,0 3.811,0 0,0 1.407,3.542 20.277,51.059 "
   id="polygon38"
   transform="matrix(1.5947219,0,0,3.0401312,24.410029,108.85348)" /><polygon
   fill="#bb1d2c"
   points="66.361,5.052 84.222,50.1 96.169,50.1 113.823,2.65 99.867,2.65 90.413,31.235 79.552,2.65 65.409,2.65 "
   id="polygon39"
   transform="matrix(1.5947219,0,0,3.0401312,24.410029,108.85348)" /><path
   fill="#bb1d2c"
   d="m 267.02781,125.9299 c -3.58174,-6.10762 -8.38504,-9.02311 -13.46582,-9.02311 l -43.67625,0.009 v 5.32632 138.91575 h 43.67625 c 0.009,0 0.0223,0 0.0303,0 5.06961,0 9.86335,-2.9155 13.43554,-9.00791 3.60087,-6.07419 5.7633,-15.32532 5.74577,-26.45218 l -0.006,-73.32189 c 0.0238,-11.12688 -2.13851,-20.378 -5.73939,-26.4461 z m -15.8579,96.49984 c 0.005,0.58978 -0.0304,0.96068 -0.0623,1.20085 h -20.02173 v -69.17818 h 20.04885 c 0.0192,0.1976 0.0335,0.46818 0.0335,0.81171 v 67.16562 z"
   id="path39"
   style="stroke-width:2.20185" /><path
   fill="#bb1d2c"
   d="m 323.96575,210.58539 v 11.84435 c 0.004,0.58978 -0.0286,0.95764 -0.0605,1.20085 h -17.60576 v -69.19643 l 17.62645,0.0153 c 0.0192,0.19759 0.0382,0.46817 0.0382,0.8117 v 13.96636 h 21.60051 v -16.85144 c 0.0239,-11.12687 -2.13852,-20.38104 -5.7394,-26.44913 -3.57856,-6.10763 -8.39143,-9.02312 -13.46744,-9.02312 l -21.94492,0.009 c -4.73314,0.0121 -9.55877,2.92158 -13.33986,8.87415 -3.77947,5.92521 -6.39642,15.19761 -6.3725,26.58898 l 0.006,73.32189 h -0.006 c -0.0176,11.12687 2.1481,20.37799 5.74419,26.45218 3.58173,6.10153 8.38505,9.02615 13.46423,9.02615 h 22.44889 c 5.076,0 9.88888,-2.92462 13.46745,-9.02615 3.60086,-6.07419 5.76331,-15.32531 5.74416,-26.45218 l -0.005,-15.11249 z"
   id="path40"
   style="stroke-width:2.20185" /><path
   fill="#bb1d2c"
   d="m 392.62492,116.91591 h -14.82136 l -28.91868,144.26334 h 22.0598 l 0.65382,-3.58735 2.86571,-15.62323 c 2.54518,-0.007 7.19222,0 11.85199,0.007 4.71877,-0.007 9.43915,-0.0121 11.96359,-0.007 l 4.13033,19.20754 h 23.15696 z m -1.95353,89.43458 h -9.6114 l 4.48115,-24.15082 z"
   id="path41"
   style="stroke-width:2.20185" /><path
   fill="#c84e4e"
   d="m 153.64788,129.85775 c -8.23994,-2.7118 -16.48146,-6.31132 -24.72139,-10.95969 l 1.10514,5.3172 9.61779,46.25256 c 7.91459,3.6208 15.82921,6.33259 23.7422,8.2874 z"
   id="path42"
   style="stroke-width:2.20185" /><path
   fill="#c84e4e"
   d="m 192.86847,182.75907 8.98465,-46.03367 c -7.2177,0.14289 -14.43383,-0.14592 -21.65313,-1.00628 l -7.79501,44.92706 c 6.82222,1.20389 13.64287,1.8788 20.46349,2.11289 z"
   id="path43"
   style="stroke-width:2.20185" /><path
   fill="#c84e4e"
   d="m 230.88026,180.08374 v -25.63133 h 20.04884 c 0.0192,0.1976 0.0335,0.46818 0.0335,0.81171 v 20.88874 c 7.19857,-1.63254 14.39875,-3.46879 21.59731,-5.41143 l -9.6e-4,-18.36239 c 0.0255,-11.00832 -2.09388,-20.17127 -5.62299,-26.24242 -19.08405,4.99189 -38.16967,9.05655 -57.25372,10.26044 v 46.10055 c 7.06622,-0.44994 14.13244,-1.28293 21.19866,-2.41387 z"
   id="path44"
   style="stroke-width:2.20185" /><path
   fill="#c84e4e"
   d="m 306.09372,154.43416 17.62645,0.0153 c 0.0192,0.19759 0.0382,0.46817 0.0382,0.8117 v 1.30727 c 7.19857,-1.84537 14.39555,-3.55088 21.59414,-5.00408 -0.0814,-10.76509 -2.21986,-19.71524 -5.73143,-25.6374 -3.57855,-6.10763 -8.39143,-9.02312 -13.46584,-9.02312 l -21.94497,0.009 c -4.73313,0.0121 -9.56034,2.92158 -13.34144,8.87415 -3.77948,5.92521 -6.39642,15.19761 -6.3725,26.58898 l 9.5e-4,15.06386 c 7.20017,-2.02777 14.40035,-4.09811 21.59573,-6.11067 z"
   id="path45"
   style="stroke-width:2.20185" /><path
   fill="#c84e4e"
   d="m 377.59625,116.91591 -6.14286,30.65668 c 9.27331,-0.89987 18.55298,-1.15221 27.83427,-0.57762 l -6.87006,-30.0821 h -14.82135 z"
   id="path46"
   style="stroke-width:2.20185" /><path
   fill="#c84e4e"
   d="m 177.56711,261.16405 5.9563,-30.51379 c -10.95256,-1.04885 -21.90511,-3.33808 -32.85766,-7.22943 l 7.84763,37.74322 z"
   id="path47"
   style="stroke-width:2.20185" /><path
   fill="#c84e4e"
   d="m 209.68162,261.16101 h 43.67465 c 0.009,0 0.0223,0 0.0303,0 5.06961,0 9.86335,-2.91549 13.43713,-9.00791 3.59928,-6.07419 5.76332,-15.3253 5.74418,-26.45218 v -6.46636 c -20.96261,5.66072 -41.92364,10.43374 -62.88466,11.75619 v 30.17026 z"
   id="path48"
   style="stroke-width:2.20185" /><path
   fill="#c84e4e"
   d="m 345.35896,210.58539 h -21.60052 v 11.84435 c 0.004,0.58978 -0.0287,0.95764 -0.0605,1.20085 h -17.60576 v -13.80827 c -7.19538,2.01256 -14.39238,4.08289 -21.59253,6.11066 v 9.7649 h -0.006 c -0.0176,11.12687 2.14811,20.37799 5.7442,26.45218 1.71433,2.92156 3.71571,5.09222 5.88613,6.58493 15.32208,-4.35348 30.65055,-8.65222 45.97901,-11.89908 2.0843,-5.66073 3.27397,-12.88104 3.2596,-21.13803 z"
   id="path49"
   style="stroke-width:2.20185" /><path
   fill="#c84e4e"
   d="m 390.46567,206.35049 h -9.61298 l 2.05079,-11.05089 c -7.1332,0.26755 -14.27116,0.95158 -21.41073,1.96393 l -9.55237,47.64191 c 23.22393,-4.16499 46.43988,-5.38712 69.6654,-0.1885 l -10.98283,-48.09183 c -7.50954,-1.05492 -15.0207,-1.50487 -22.53023,-1.44407 z"
   id="path50"
   style="stroke-width:2.20185" /><path
   fill="#bcbec0"
   d="m 183.56008,109.04501 h -0.20572 -2.98055 l -0.93608,5.39319 -3.26281,18.8093 -7.79501,44.92705 -0.27428,1.58391 -13.0847,-65.64251 -1.01107,-5.07094 h -2.84657 -22.73275 -6.03443 l 32.17351,155.01628 1.03179,4.96453 h 2.80194 0.20572 18.84642 0.20729 2.86733 L 181.53,263.9032 205.44604,141.35856 v 41.12993 48.49314 30.1733 7.86481 h 4.12553 0.20572 43.46893 0.20732 c 6.30394,0 12.05292,-3.9096 16.21672,-11.01135 4.60876,-7.77058 7.14277,-19.26834 7.11885,-32.34091 l -0.006,-73.29756 c 0.0304,-13.03913 -2.50211,-24.5369 -7.13158,-32.33788 -4.15267,-7.08046 -9.9112,-10.99615 -16.19919,-10.99615 h -0.20584 l -41.49465,0.009 v -0.003 h -5.93716 -0.20572 -22.04863 z m 51.54299,106.72076 v -53.45158 h 11.62713 v 13.83563 39.61291 h -11.62713 z"
   id="path37-6"
   style="stroke-width:2.20185" /><path
   fill="#bcbec0"
   d="m 429.24292,258.03576 -32.94378,-144.25727 -1.07962,-4.7274 h -2.70305 -0.20731 -14.61564 -0.20571 -2.83701 l -1.01264,5.05877 -6.14607,30.65669 -9.96222,49.69094 -8.76141,43.69581 c 0.5454,-3.9309 0.82927,-8.11411 0.82129,-12.4767 l -0.005,-15.09121 -0.004,-7.85874 h -4.12235 -0.20732 -21.39478 -0.20731 -4.12556 v 7.86482 5.17734 h -9.20632 v -53.46374 l 9.20632,0.009 v 6.91631 7.86481 h 4.12556 0.20731 21.39478 0.20732 4.12555 v -7.86481 -16.85146 c 0.0287,-13.04521 -2.50532,-24.53994 -7.13162,-32.34093 -4.14846,-7.08045 -9.9086,-10.99614 -16.19977,-10.99614 h -0.20572 l -21.94656,0.009 c -5.93395,0.0152 -11.6032,3.80624 -15.96638,10.6739 -5.02654,7.88002 -7.89865,19.79734 -7.87154,32.68142 l 9.6e-4,15.03344 0.004,48.49314 v 7.16558 l -0.006,2.57195 c -0.0207,13.06953 2.51328,24.56425 7.13479,32.36525 2.04123,3.4779 4.47639,6.21098 7.22409,8.09586 2.8051,1.93048 5.82392,2.90635 8.97509,2.90635 h 0.20731 22.24318 0.20732 c 6.2864,0 12.04653,-3.91872 16.21672,-11.02655 1.88976,-3.18605 3.42228,-7.00751 4.58164,-11.29712 l -2.33626,11.64978 -2.13853,10.67389 h 5.99296 0.20733 21.85405 0.20733 2.93267 l 0.96322,-5.28374 0.65224,-3.58431 1.89454,-10.33948 6.92268,0.007 h 1.79566 0.10521 0.1036 1.82118 l 7.09333,-0.007 h 0.0734 l 3.08099,14.32509 1.04933,4.88244 h 2.76844 0.20732 22.94963 0.20731 6.29597 z"
   id="path38-9"
   style="stroke-width:2.20185" /><polygon
   fill="#bb1d2c"
   points="79.552,2.65 65.409,2.65 66.361,5.052 84.222,50.1 96.169,50.1 113.823,2.65 99.867,2.65 90.413,31.235 "
   id="polygon39-3"
   transform="matrix(1.5947219,0,0,3.0401312,24.410029,108.85348)" /><path
   fill="#bb1d2c"
   d="m 267.02781,125.9299 c -3.58174,-6.10762 -8.38504,-9.02311 -13.46582,-9.02311 l -43.67625,0.009 v 5.32632 138.91575 h 43.67625 c 0.009,0 0.0223,0 0.0303,0 5.06961,0 9.86335,-2.9155 13.43554,-9.00791 3.60087,-6.07419 5.7633,-15.32532 5.74577,-26.45218 l -0.006,-73.32189 c 0.0238,-11.12688 -2.13851,-20.378 -5.73939,-26.4461 z m -15.8579,96.49984 c 0.005,0.58978 -0.0304,0.96068 -0.0623,1.20085 h -20.02173 v -69.17818 h 20.04885 c 0.0192,0.1976 0.0335,0.46818 0.0335,0.81171 v 67.16562 z"
   id="path39-9"
   style="stroke-width:2.20185" /><path
   fill="#bb1d2c"
   d="m 323.96575,210.58539 v 11.84435 c 0.004,0.58978 -0.0286,0.95764 -0.0605,1.20085 h -17.60576 v -69.19643 l 17.62645,0.0153 c 0.0192,0.19759 0.0382,0.46817 0.0382,0.8117 v 13.96636 h 21.60051 v -16.85144 c 0.0239,-11.12687 -2.13852,-20.38104 -5.7394,-26.44913 -3.57856,-6.10763 -8.39143,-9.02312 -13.46744,-9.02312 l -21.94492,0.009 c -4.73314,0.0121 -9.55877,2.92158 -13.33986,8.87415 -3.77947,5.92521 -6.39642,15.19761 -6.3725,26.58898 l 0.006,73.32189 h -0.006 c -0.0176,11.12687 2.1481,20.37799 5.74419,26.45218 3.58173,6.10153 8.38505,9.02615 13.46423,9.02615 h 22.44889 c 5.076,0 9.88888,-2.92462 13.46745,-9.02615 3.60086,-6.07419 5.76331,-15.32531 5.74416,-26.45218 l -0.005,-15.11249 z"
   id="path40-6"
   style="stroke-width:2.20185" /><path
   fill="#bb1d2c"
   d="m 392.62492,116.91591 h -14.82136 l -28.91868,144.26334 h 22.0598 l 0.65382,-3.58735 2.86571,-15.62323 c 2.54518,-0.007 7.19222,0 11.85199,0.007 4.71877,-0.007 9.43915,-0.0121 11.96359,-0.007 l 4.13033,19.20754 h 23.15696 z m -1.95353,89.43458 h -9.6114 l 4.48115,-24.15082 z"
   id="path41-5"
   style="stroke-width:2.20185" /><path
   fill="#c84e4e"
   d="m 153.64788,129.85775 c -8.23994,-2.7118 -16.48146,-6.31132 -24.72139,-10.95969 l 1.10514,5.3172 9.61779,46.25256 c 7.91459,3.6208 15.82921,6.33259 23.7422,8.2874 z"
   id="path42-4"
   style="stroke-width:2.20185" /><path
   fill="#c84e4e"
   d="m 192.86847,182.75907 8.98465,-46.03367 c -7.2177,0.14289 -14.43383,-0.14592 -21.65313,-1.00628 l -7.79501,44.92706 c 6.82222,1.20389 13.64287,1.8788 20.46349,2.11289 z"
   id="path43-0"
   style="stroke-width:2.20185" /><path
   fill="#c84e4e"
   d="m 230.88026,180.08374 v -25.63133 h 20.04884 c 0.0192,0.1976 0.0335,0.46818 0.0335,0.81171 v 20.88874 c 7.19857,-1.63254 14.39875,-3.46879 21.59731,-5.41143 l -9.6e-4,-18.36239 c 0.0255,-11.00832 -2.09388,-20.17127 -5.62299,-26.24242 -19.08405,4.99189 -38.16967,9.05655 -57.25372,10.26044 v 46.10055 c 7.06622,-0.44994 14.13244,-1.28293 21.19866,-2.41387 z"
   id="path44-9"
   style="stroke-width:2.20185" /><path
   fill="#c84e4e"
   d="m 306.09372,154.43416 17.62645,0.0153 c 0.0192,0.19759 0.0382,0.46817 0.0382,0.8117 v 1.30727 c 7.19857,-1.84537 14.39555,-3.55088 21.59414,-5.00408 -0.0814,-10.76509 -2.21986,-19.71524 -5.73143,-25.6374 -3.57855,-6.10763 -8.39143,-9.02312 -13.46584,-9.02312 l -21.94497,0.009 c -4.73313,0.0121 -9.56034,2.92158 -13.34144,8.87415 -3.77948,5.92521 -6.39642,15.19761 -6.3725,26.58898 l 9.5e-4,15.06386 c 7.20017,-2.02777 14.40035,-4.09811 21.59573,-6.11067 z"
   id="path45-0"
   style="stroke-width:2.20185" /><path
   fill="#c84e4e"
   d="m 377.59625,116.91591 -6.14286,30.65668 c 9.27331,-0.89987 18.55298,-1.15221 27.83427,-0.57762 l -6.87006,-30.0821 h -14.82135 z"
   id="path46-0"
   style="stroke-width:2.20185" /><path
   fill="#c84e4e"
   d="m 177.56711,261.16405 5.9563,-30.51379 c -10.95256,-1.04885 -21.90511,-3.33808 -32.85766,-7.22943 l 7.84763,37.74322 z"
   id="path47-3"
   style="stroke-width:2.20185" /><path
   fill="#c84e4e"
   d="m 209.68162,261.16101 h 43.67465 c 0.009,0 0.0223,0 0.0303,0 5.06961,0 9.86335,-2.91549 13.43713,-9.00791 3.59928,-6.07419 5.76332,-15.3253 5.74418,-26.45218 v -6.46636 c -20.96261,5.66072 -41.92364,10.43374 -62.88466,11.75619 v 30.17026 z"
   id="path48-5"
   style="stroke-width:2.20185" /><path
   fill="#c84e4e"
   d="m 345.35896,210.58539 h -21.60052 v 11.84435 c 0.004,0.58978 -0.0287,0.95764 -0.0605,1.20085 h -17.60576 v -13.80827 c -7.19538,2.01256 -14.39238,4.08289 -21.59253,6.11066 v 9.7649 h -0.006 c -0.0176,11.12687 2.14811,20.37799 5.7442,26.45218 1.71433,2.92156 3.71571,5.09222 5.88613,6.58493 15.32208,-4.35348 30.65055,-8.65222 45.97901,-11.89908 2.0843,-5.66073 3.27397,-12.88104 3.2596,-21.13803 z"
   id="path49-9"
   style="stroke-width:2.20185" /><path
   fill="#c84e4e"
   d="m 390.46567,206.35049 h -9.61298 l 2.05079,-11.05089 c -7.1332,0.26755 -14.27116,0.95158 -21.41073,1.96393 l -9.55237,47.64191 c 23.22393,-4.16499 46.43988,-5.38712 69.6654,-0.1885 l -10.98283,-48.09183 c -7.50954,-1.05492 -15.0207,-1.50487 -22.53023,-1.44407 z"
   id="path50-0"
   style="stroke-width:2.20185" /><polygon
   fill="#34346a"
   points="56.867,2.587 75.737,50.104 22.75,50.104 3.879,2.587 "
   id="polygon50"
   transform="matrix(1.5947219,0,0,3.0401312,24.410029,108.85348)" /><polygon
   fill="#ffffff"
   points="19.739,12.254 19.542,6.76 23.341,12.254 29.13,12.269 25.703,15.68 29.479,21.184 23.561,17.797 20.104,21.184 19.874,15.68 13.963,12.269 "
   id="polygon51"
   transform="matrix(1.5947219,0,0,3.0401312,24.410029,108.85348)" /><polygon
   fill="#ffffff"
   points="47.802,12.254 47.605,6.76 51.404,12.254 57.194,12.269 53.767,15.68 57.542,21.184 51.624,17.797 48.167,21.184 47.938,15.68 42.027,12.269 "
   id="polygon52"
   transform="matrix(1.5947219,0,0,3.0401312,24.410029,108.85348)" /><polygon
   fill="#ffffff"
   points="29.605,38.783 29.408,33.288 33.208,38.783 38.996,38.797 35.569,42.209 39.344,47.713 33.427,44.326 29.97,47.713 29.74,42.209 23.829,38.797 "
   id="polygon53"
   transform="matrix(1.5947219,0,0,3.0401312,24.410029,108.85348)" /><polygon
   fill="#ffffff"
   points="38.892,24.313 38.695,18.818 42.494,24.313 48.284,24.327 44.856,27.738 48.631,33.242 42.713,29.855 39.257,33.242 39.027,27.738 33.116,24.327 "
   id="polygon54"
   transform="matrix(1.5947219,0,0,3.0401312,24.410029,108.85348)" /><polygon
   fill="#ffffff"
   points="55.915,38.346 55.717,32.85 59.517,38.346 65.307,38.358 61.878,41.771 65.654,47.273 59.735,43.888 56.279,47.273 56.049,41.771 50.139,38.358 "
   id="polygon55"
   transform="matrix(1.5947219,0,0,3.0401312,24.410029,108.85348)" /></svg>
